<?xml version="1.0" standalone="no"?>
<!DOCTYPE svg PUBLIC "-//W3C//DTD SVG 1.1//EN" "http://www.w3.org/Graphics/SVG/1.1/DTD/svg11.dtd" >
<svg xmlns="http://www.w3.org/2000/svg" xmlns:xlink="http://www.w3.org/1999/xlink" version="1.1">
<metadata>
Created by FontForge 20170731 at Fri Feb 12 05:22:13 2021
 By Aleksey,,,
(c)NoahType
</metadata>
<defs>
<font id="AtlantaCornerDemoRegular" horiz-adv-x="2805" >
  <font-face 
    font-family="Atlanta Corner Demo"
    font-weight="400"
    font-stretch="normal"
    units-per-em="2048"
    panose-1="0 0 0 0 0 0 0 0 0 0"
    ascent="1638"
    descent="-410"
    x-height="978"
    cap-height="1318"
    bbox="-229 -343 2704.36 1434"
    underline-thickness="102"
    underline-position="-409"
    unicode-range="U+000A-F003"
  />
<missing-glyph horiz-adv-x="1079" 
d="M102 1434h875v-1434h-875v1434zM160 1393l379 -633l381 633h-760zM514 717l-369 614v-1231zM541 674l-379 -631h758zM565 717l371 -621v1239z" />
    <glyph glyph-name="dt.liga" unicode="dt" horiz-adv-x="1368" 
d="M1290 235q28 0 47.5 -19.5t19.5 -47.5v-101q0 -28 -19.5 -47.5t-47.5 -19.5h-141q-92 0 -156.5 65t-64.5 157v761h-66v-934q0 -18 -13 -31t-31 -13h-146q-18 0 -31 13t-13 31q-87 -49 -180 -49q-96 0 -181 49q-110 62 -173 186q-61 117 -61 256q0 140 61 257
q63 124 173 186q85 49 181 49q93 0 180 -49v267v24q0 39 27 66t66 27h48q39 0 66 -27.5t27 -65.5v-4h66v34q0 26 19 44.5t45 18.5h107q26 0 44.5 -18.5t18.5 -44.5v-34h87q31 0 52.5 -21.5t21.5 -52.5v-90q0 -31 -21.5 -52.5t-52.5 -21.5h-87v-690q0 -24 17.5 -41t41.5 -17
h69zM448 235q75 0 127.5 74.5t52.5 181.5t-52.5 182t-127.5 75t-128 -75.5t-53 -181.5t53 -181t128 -75z" />
    <glyph glyph-name="it.liga" unicode="it" horiz-adv-x="796" 
d="M716 235q28 0 47.5 -19.5t19.5 -47.5v-101q0 -28 -19.5 -47.5t-47.5 -19.5h-140q-92 0 -157 65t-65 157v761h-143q38 0 65.5 -27.5t27.5 -65.5v-797q0 -38 -27.5 -65.5t-65.5 -27.5h-48q-38 0 -65.5 27.5t-27.5 65.5v797q0 38 27.5 65.5t65.5 27.5h-19q-31 0 -52.5 21.5
t-21.5 52.5v90q0 31 21.5 52.5t52.5 21.5h210v34q0 26 19 44.5t45 18.5h107q26 0 44.5 -18.5t18.5 -44.5v-34h87q31 0 52.5 -21.5t21.5 -52.5v-90q0 -31 -21.5 -52.5t-52.5 -21.5h-87v-690q0 -24 17.5 -41t41.5 -17h69z" />
    <glyph glyph-name="lt.liga" unicode="lt" horiz-adv-x="798" 
d="M718 235q28 0 47.5 -19.5t19.5 -47.5v-101q0 -28 -19.5 -47.5t-47.5 -19.5h-140q-92 0 -157 65t-65 157v761h-50v-911q0 -30 -21 -51t-51 -21h-90q-30 0 -51 21t-21 51v1174q0 30 21 51t51 21h90q30 0 51 -21t21 -51v-25h50v34q0 26 19 44.5t45 18.5h107q26 0 45 -18.5
t19 -44.5v-34h86q31 0 52.5 -21.5t21.5 -52.5v-90q0 -31 -21.5 -52.5t-52.5 -21.5h-86v-690q0 -24 17 -41t41 -17h69z" />
    <glyph glyph-name="tt.liga" unicode="tt" horiz-adv-x="999" 
d="M918 235q28 0 47.5 -19.5t19.5 -47.5v-101q0 -28 -19.5 -47.5t-47.5 -19.5h-139q-92 0 -157.5 65t-65.5 157v761h-255v-690q0 -24 17.5 -41t41.5 -17h68q28 0 47.5 -19.5t19.5 -47.5v-101q0 -28 -19.5 -47.5t-47.5 -19.5h-140q-92 0 -157 65t-65 157v761h-92
q-31 0 -52.5 21.5t-21.5 52.5v90q0 31 21.5 52.5t52.5 21.5h92v34q0 26 19 44.5t45 18.5h108q26 0 44.5 -18.5t18.5 -44.5v-34h255v34q0 26 19 44.5t45 18.5h108q26 0 44.5 -18.5t18.5 -44.5v-34h86q31 0 53 -21.5t22 -52.5v-90q0 -31 -22 -52.5t-53 -21.5h-86v-690
q0 -24 17.5 -41t41.5 -17h68z" />
    <glyph glyph-name=".notdef" horiz-adv-x="1079" 
d="M102 1434h875v-1434h-875v1434zM160 1393l379 -633l381 633h-760zM514 717l-369 614v-1231zM541 674l-379 -631h758zM565 717l371 -621v1239z" />
    <glyph glyph-name=".null" horiz-adv-x="0" 
 />
    <glyph glyph-name=".null" horiz-adv-x="0" 
 />
    <glyph glyph-name="nonmarkingreturn" horiz-adv-x="682" 
 />
    <glyph glyph-name="LF" unicode="&#xa;" horiz-adv-x="0" 
 />
    <glyph glyph-name="controlCR" unicode="&#xd;" horiz-adv-x="0" 
 />
    <glyph glyph-name="space" unicode=" " horiz-adv-x="501" 
 />
    <glyph glyph-name="exclam" unicode="!" 
d="M1703 583q39 56 129 98q-31 -85 -53 -125.5t-48 -49.5q-41 -14 -48.5 11.5t20.5 65.5zM751 875q3 -45 27 -83.5t61 -51.5q-17 -61 -39 -79.5t-50 -10.5q-24 7 -24.5 72.5t14.5 116.5q3 12 11 36zM795 905q34 52 48 -21q11 -61 4 -112l-1 -5v-1q-34 18 -52 62t1 77z
M2704 921q3 -46 -19 -87q10 -17 10 -33q0 -64 -31 -98q-33 -37 -91 -65.5t-113 -28.5t-94 31q-17 13 -32 33q-62 -69 -146 -69q-33 0 -63 10l-3 -9q-44 -150 -42 -171q10 -43 -26 -66q-15 -9 -32 -9q-22 0 -40 16q-37 37 -54 65q-24 -37 -61 -64q-62 -44 -118 -44
q-21 0 -41 10t-32 21t-30 31q-23 25 -44 65q-15 30 -12 66l-6 6q-24 -11 -48 -11q-68 0 -113 73q-7 10 -12 25l-8 8l-7 -44q-2 -34 -30 -50q-14 -8 -30 -8q-15 0 -29 8q-8 4 -21 14q-7 -4 -14 -5q-6 -2 -22 -2q-65 0 -100 53q-40 -46 -82 -49h-14q-64 0 -97 45
q-62 -87 -149 -87q-63 0 -111 46q2 -34 5 -50q6 -39 -28 -61q-15 -9 -32 -9q-18 0 -34 11q-6 4 -17 13.5t-34.5 38t-42.5 61.5q-20 23 -36 50q-8 -79 10 -113q16 -31 -1 -59q-18 -30 -51 -30h-1q-65 0 -111 54q-73 87 -83 160q-16 -11 -34 -11q-12 0 -21 4q-44 17 -65 58
t-18 69l3.5 17.5t14 34.5t31 47.5t56 45.5t86.5 39q30 107 52 161.5t32 65t27 16.5q11 4 25 4q50 0 122 -74q3 -3 7 -9q37 85 94 177q36 58 108 58q55 0 97 -25q14 -8 44.5 -53.5t31.5 -61.5q2 -34 -27 -53q-14 -9 -35 -35q39 -21 71 -61q10 -13 12 -31q1 -1 4 -3
q19 31 39 50q43 41 106 41q71 0 105 -47q22 2 29 2q41 126 111 241q36 58 108 58q35 0 97 -25q31 -17 33 -51l-1 -1v-2q61 4 233 4h102q17 0 33.5 1.5t29.5 3.5t25 4t21 4.5t15.5 4.5t10.5 3l3 1q9 4 22 4q25 0 43 -18q8 -8 26 -36t18 -29q24 -35 12 -65q-7 -15 -15 -29
q44 -8 53 -45q2 -8 2 -14q24 3 25 3q50 0 84 -36q24 29 50 47q58 43 122 43q53 0 90.5 -23t72.5 -72q37 -43 40 -94zM598 552q-14 83 5.5 195.5t57 211t84 176.5t85.5 103q-10 5 -26 11.5t-50 5t-50 -27.5q-66 -107 -106 -207.5t-49.5 -172.5t-10 -111.5t4.5 -65.5
q-24 41 -36 95.5t-12.5 102t2.5 89.5t7 67l5 24l-7 7t-16 14.5t-22 18.5t-21 13t-17 3q-21 -7 -83 -237q-47 -10 -83 -27.5t-54 -36.5t-29 -36.5t-13 -28.5l-2 -11q27 40 162 68q-14 -54 -21 -99q-7 -51 -1.5 -83.5t20.5 -50.5t30 -26.5t27 -9.5l12 -2q-20 36 -20.5 96
t12.5 120t29 114.5t30 89.5l13 34q3 -120 24 -218q9 -41 24.5 -77.5t31 -59.5t30.5 -40t24 -24zM1144 716q7 -28 25 -41t33 -12l14 1q-3 3 -6.5 11t-9.5 40.5t4 79.5q6 39 17 85t19 72l8 27q-67 3 -84 -28q-29 -53 -51.5 -106t-46.5 -89q-36 -54 -52 -39q-13 11 2.5 67
t42.5 111q32 63 50 79t55 5q9 24 -24 38q-42 18 -84 -5l-17 -13q-24 -23 -47.5 -74t-35.5 -106q-22 -42 -55 -56q14 61 13 93q-3 76 -28.5 103.5t-66.5 22.5q32 22 76 9q-2 3 -6 7.5t-17.5 17.5t-26.5 19t-33.5 11.5t-37.5 -3.5q-31 -11 -64 -74.5t-48.5 -139.5t-1.5 -119
q15 -45 49 -68.5t77.5 -13t78.5 59.5q17 24 27 48q29 6 57 34q-3 -31 1 -52q9 -54 70 -50q26 2 62.5 58t59.5 111l24 55q-2 -5 -4 -12.5t-8 -31.5t-8.5 -43t-5 -46.5t3.5 -42.5zM1516 652l-5 5t-9.5 16t-10 28t-3 41.5t7.5 56.5q11 45 25.5 87.5t22.5 62.5l9 20l-57 27
q-9 5 -19 -2q-103 -73 -168 -189q33 145 99 283t119 172q-4 2 -10 4.5t-24 7.5t-33 5.5t-32.5 -6.5t-27.5 -23q-92 -150 -135 -337q-12 -51 -20.5 -113.5t-6.5 -82.5q2 -17 15.5 -33.5t26.5 -24.5l12 -8q0 11 2.5 29.5t18.5 66.5t44 84q32 41 59 69.5t38 36.5l11 8
q-3 -7 -8 -20t-16.5 -48.5t-18 -66t-6 -65t12.5 -53.5q19 -31 41 -40.5t34 -3.5zM1636 595q-13 22 -14 60.5t9.5 87t26 99t37 106t40 99t38.5 85.5q171 3 187 4q37 3 67.5 26.5t42.5 45.5l11 21q-64 -25 -159 -26h-97.5t-109 -0.5t-87.5 -2.5t-72 -5q-39 -5 -68.5 -31
t-39.5 -50l-11 -23q8 11 50 20t83 12q47 3 111 4q-2 -7 -53 -142t-70 -214q-8 -38 -3.5 -67.5t18 -50t27.5 -33.5t25 -19zM2273 817q22 37 30 65.5t6 43t-10 32.5q-23 55 -88 31q-31 -12 -62.5 -40t-47.5 -50l-16 -22q72 174 75 176l-25 1q-57 -3 -73 -33q-35 -98 -76 -213
q-1 -4 -3.5 -11t-3.5 -10q-50 -29 -63 -35q14 47 40 115.5t44 113.5l19 45q-69 -3 -91 -28q-5 -6 -43.5 -62t-72.5 -95.5t-47 -30.5t40 106t62 106q-10 0 -25 -1.5t-45 -13.5t-41 -33q-13 -24 -21 -40t-18 -38.5t-15.5 -38t-9.5 -32t-3 -28t7 -19.5q10 -12 32.5 -13t52 14
t52.5 44l86 115q-41 -127 -73 -218q-17 -11 -49.5 -29.5t-45 -27t-32.5 -26.5t-38 -42q-26 -34 -30 -67.5t10.5 -53t49 -17.5t77.5 33q28 20 50.5 58t33 67t35.5 105q46 28 60 34q-35 -98 -46 -151q-7 -24 7.5 -53.5t31.5 -47.5l18 -18q-9 31 42 203q27 90 70 163
q29 50 80 86.5t66 24.5q7 -8 1.5 -37.5t-18.5 -55.5q-16 -32 -38 -55.5t-42 -34t-38 -16.5t-29 -6l-10 -1q5 -4 13.5 -9t34 -12.5t50 -5t56.5 24t57 64.5zM2480 987q36 39 65 29q23 -8 13 -37q-8 -19 -31 -40q-17 -15 -39 -20t-36 -2l-14 3q2 -5 6 -12t21.5 -18.5
t40.5 -10.5q48 3 71.5 33t21.5 70q-2 25 -29 45.5t-68 22.5t-88 -31q-41 -30 -69.5 -77.5t-28 -101.5t43.5 -88q31 -24 73.5 -17t81 28t60.5 45q7 8 11 22.5t4 25.5l1 10q-31 -50 -103.5 -82.5t-90.5 -1.5q-19 31 10 94.5t73 110.5zM1282 94q-16 0 -28 10q-9 8 -9 25
q0 15 6 27t17 19t27 7q17 0 27 -9t10 -25q0 -15 -6 -27t-17 -19q-13 -8 -27 -8zM1733 94q-15 0 -27 10q-10 9 -10 25q0 15 6 27q6 11 18 19q11 7 26 7q18 0 28 -9t10 -25q0 -13 -7 -27q-6 -12 -17 -19q-13 -8 -27 -8zM717 102q-10 -6 -28 -6h-31l17 85h27q18 0 29 -9
q10 -9 10 -24t-6 -27q-6 -11 -18 -19zM511 0l56 282h1728l-56 -282h-1728zM2066 207l-5 -26h44l-22 -111h32l22 111h44l5 26h-120zM1888 207l-27 -137h31l17 86l51 -86h27l27 137h-31l-17 -86l-52 86h-26zM1674 169q-10 -19 -10 -42q0 -17 8 -31q7 -13 23 -21t36 -8
q24 0 44 11q18 10 30 30q11 20 11 42q0 17 -8 31q-7 13 -23 21q-14 7 -36 7q-25 0 -44 -10q-20 -11 -31 -30zM1528 207l-28 -137h32l10 50h63l6 25h-64l7 36h72l5 26h-103zM1223 169q-11 -20 -11 -42q0 -17 8 -31q7 -12 24 -21q16 -8 35 -8q25 0 45 11q18 10 30 30
q10 19 10 42q0 17 -8 31q-7 13 -23 21q-14 7 -36 7q-25 0 -44 -10q-18 -10 -30 -30zM1013 207l-28 -137h30l17 82l28 -68h14l52 67l-16 -81h30l27 137h-27l-67 -86l-34 86h-26zM846 207l-28 -137h107l5 25h-75l6 32h64l5 25h-64l6 29h72l6 26h-104zM648 207l-27 -137h67
q27 0 44 9q21 11 31 29q10 17 10 42q0 16 -8 30q-7 12 -23 20q-14 7 -36 7h-58z" />
    <glyph glyph-name="quotedbl" unicode="&#x22;" 
d="M1703 583q39 56 129 98q-31 -85 -53 -125.5t-48 -49.5q-41 -14 -48.5 11.5t20.5 65.5zM751 875q3 -45 27 -83.5t61 -51.5q-17 -61 -39 -79.5t-50 -10.5q-24 7 -24.5 72.5t14.5 116.5q3 12 11 36zM795 905q34 52 48 -21q11 -61 4 -112l-1 -5v-1q-34 18 -52 62t1 77z
M2704 921q3 -46 -19 -87q10 -17 10 -33q0 -64 -31 -98q-33 -37 -91 -65.5t-113 -28.5t-94 31q-17 13 -32 33q-62 -69 -146 -69q-33 0 -63 10l-3 -9q-44 -150 -42 -171q10 -43 -26 -66q-15 -9 -32 -9q-22 0 -40 16q-37 37 -54 65q-24 -37 -61 -64q-62 -44 -118 -44
q-21 0 -41 10t-32 21t-30 31q-23 25 -44 65q-15 30 -12 66l-6 6q-24 -11 -48 -11q-68 0 -113 73q-7 10 -12 25l-8 8l-7 -44q-2 -34 -30 -50q-14 -8 -30 -8q-15 0 -29 8q-8 4 -21 14q-7 -4 -14 -5q-6 -2 -22 -2q-65 0 -100 53q-40 -46 -82 -49h-14q-64 0 -97 45
q-62 -87 -149 -87q-63 0 -111 46q2 -34 5 -50q6 -39 -28 -61q-15 -9 -32 -9q-18 0 -34 11q-6 4 -17 13.5t-34.5 38t-42.5 61.5q-20 23 -36 50q-8 -79 10 -113q16 -31 -1 -59q-18 -30 -51 -30h-1q-65 0 -111 54q-73 87 -83 160q-16 -11 -34 -11q-12 0 -21 4q-44 17 -65 58
t-18 69l3.5 17.5t14 34.5t31 47.5t56 45.5t86.5 39q30 107 52 161.5t32 65t27 16.5q11 4 25 4q50 0 122 -74q3 -3 7 -9q37 85 94 177q36 58 108 58q55 0 97 -25q14 -8 44.5 -53.5t31.5 -61.5q2 -34 -27 -53q-16 -10 -36 -35q41 -22 72 -61q10 -13 12 -31q1 -1 4 -3
q19 31 39 50q43 41 106 41q71 0 105 -47q22 2 29 2q41 126 111 241q36 58 108 58q35 0 97 -25q31 -17 33 -51l-1 -1v-2q61 4 233 4h102q17 0 33.5 1.5t29.5 3.5t25 4t21 4.5t15.5 4.5t10.5 3l3 1q9 4 22 4q25 0 43 -18q8 -8 26 -36t18 -29q24 -35 12 -65q-7 -15 -15 -29
q44 -8 53 -45q2 -8 2 -14q24 3 25 3q50 0 84 -36q24 29 50 47q58 43 123 43q52 0 89 -23t73 -72q37 -43 40 -94zM598 552q-14 83 5.5 195.5t57 211t84 176.5t85.5 103q-10 5 -26 11.5t-50 5t-50 -27.5q-66 -107 -106 -207.5t-49.5 -172.5t-10 -111.5t4.5 -65.5
q-24 41 -36 95.5t-12.5 102t2.5 89.5t7 67l5 24l-7 7t-16 14.5t-22 18.5t-21 13t-17 3q-21 -7 -83 -237q-47 -10 -83 -27.5t-54 -36.5t-29 -36.5t-13 -28.5l-2 -11q27 40 162 68q-14 -54 -21 -99q-7 -51 -1.5 -83.5t20.5 -50.5t30 -26.5t27 -9.5l12 -2q-20 36 -20.5 96
t12.5 120t29 114.5t30 89.5l13 34q3 -120 24 -218q9 -41 24.5 -77.5t31 -59.5t30.5 -40t24 -24zM1144 716q7 -28 25 -41t33 -12l14 1q-3 3 -6.5 11t-9.5 40.5t4 79.5q6 39 17 85t19 72l8 27q-67 3 -84 -28q-29 -53 -51.5 -106t-46.5 -89q-36 -54 -52 -39q-13 11 2.5 67
t42.5 111q32 63 50 79t55 5q9 24 -24 38q-42 18 -84 -5l-17 -13q-24 -23 -47.5 -74t-35.5 -106q-22 -42 -55 -56q14 61 13 93q-3 76 -28.5 103.5t-66.5 22.5q32 22 76 9q-2 3 -6 7.5t-17.5 17.5t-26.5 19t-33.5 11.5t-37.5 -3.5q-31 -11 -64 -74.5t-48.5 -139.5t-1.5 -119
q15 -45 49 -68.5t77.5 -13t78.5 59.5q17 24 27 48q29 6 57 34q-3 -31 1 -52q9 -54 70 -50q26 2 62.5 58t59.5 111l24 55q-2 -5 -4 -12.5t-8 -31.5t-8.5 -43t-5 -46.5t3.5 -42.5zM1516 652l-5 5t-9.5 16t-10 28t-3 41.5t7.5 56.5q11 45 25.5 87.5t22.5 62.5l9 20l-57 27
q-9 5 -19 -2q-103 -73 -168 -189q33 145 99 283t119 172q-4 2 -10 4.5t-24 7.5t-33 5.5t-32.5 -6.5t-27.5 -23q-92 -150 -135 -337q-12 -51 -20.5 -113.5t-6.5 -82.5q2 -17 15.5 -33.5t26.5 -24.5l12 -8q0 11 2.5 29.5t18.5 66.5t44 84q32 41 59 69.5t38 36.5l11 8
q-3 -7 -8 -20t-16.5 -48.5t-18 -66t-6 -65t12.5 -53.5q19 -31 41 -40.5t34 -3.5zM1636 595q-13 22 -14 60.5t9.5 87t26 99t37 106t40 99t38.5 85.5q171 3 187 4q37 3 67.5 26.5t42.5 45.5l11 21q-64 -25 -159 -26h-97.5t-109 -0.5t-87.5 -2.5t-72 -5q-39 -5 -68.5 -31
t-39.5 -50l-11 -23q8 11 50 20t83 12q47 3 111 4q-2 -7 -53 -142t-70 -214q-8 -38 -3.5 -67.5t18 -50t27.5 -33.5t25 -19zM2273 817q22 37 30 65.5t6 43t-10 32.5q-23 55 -88 31q-31 -12 -62.5 -40t-47.5 -50l-16 -22q72 174 75 176l-25 1q-57 -3 -73 -33q-35 -98 -76 -213
q-1 -4 -3.5 -11t-3.5 -10q-50 -29 -63 -35q14 47 40 115.5t44 113.5l19 45q-69 -3 -91 -28q-5 -6 -43.5 -62t-72.5 -95.5t-47 -30.5t40 106t62 106q-10 0 -25 -1.5t-45 -13.5t-41 -33q-13 -24 -21 -40t-18 -38.5t-15.5 -38t-9.5 -32t-3 -28t7 -19.5q10 -12 32.5 -13t52 14
t52.5 44l86 115q-41 -127 -73 -218q-17 -11 -49.5 -29.5t-45 -27t-32.5 -26.5t-38 -42q-26 -34 -30 -67.5t10.5 -53t49 -17.5t77.5 33q28 20 50.5 58t33 67t35.5 105q46 28 60 34q-35 -98 -46 -151q-7 -24 7.5 -53.5t31.5 -47.5l18 -18q-9 31 42 203q27 90 70 163
q29 50 80 86.5t66 24.5q7 -8 1.5 -37.5t-18.5 -55.5q-16 -32 -38 -55.5t-42 -34t-38 -16.5t-29 -6l-10 -1q5 -4 13.5 -9t34 -12.5t50 -5t56.5 24t57 64.5zM2480 987q36 39 65 29q23 -8 13 -37q-8 -19 -31 -40q-17 -15 -39 -20t-36 -2l-14 3q2 -5 6 -12t21.5 -18.5
t40.5 -10.5q48 3 71.5 33t21.5 70q-2 25 -29 45.5t-68 22.5t-88 -31q-41 -30 -69.5 -77.5t-28 -101.5t43.5 -88q31 -24 73.5 -17t81 28t60.5 45q7 8 11 22.5t4 25.5l1 10q-31 -50 -103.5 -82.5t-90.5 -1.5q-19 31 10 94.5t73 110.5zM1282 94q-16 0 -28 10q-9 8 -9 25
q0 15 6 27t17 19t27 7q17 0 27 -9t10 -25q0 -15 -6 -27t-17 -19q-13 -8 -27 -8zM1734 94q-16 0 -28 10q-10 9 -10 25q0 15 6 27q6 11 18 19q11 7 26 7q18 0 28 -9t10 -25q0 -13 -7 -27q-6 -12 -17 -19q-13 -8 -26 -8zM717 102q-10 -6 -28 -6h-31l17 85h27q18 0 29 -9
q10 -9 10 -24t-6 -27q-6 -11 -18 -19zM511 0l56 282h1728l-56 -282h-1728zM2067 207l-6 -26h44l-22 -111h32l22 111h44l5 26h-119zM1888 207l-27 -137h31l17 86l51 -86h27l27 137h-31l-17 -86l-52 86h-26zM1675 169q-11 -20 -11 -42q0 -17 8 -31q7 -13 23 -21t36 -8
q24 0 44 11q18 10 30 30q11 20 11 42q0 17 -8 31q-7 13 -23 21q-14 7 -36 7q-25 0 -44 -10q-18 -10 -30 -30zM1528 207l-28 -137h32l10 50h64l5 25h-64l7 36h72l5 26h-103zM1223 169q-11 -20 -11 -42q0 -15 9 -31q7 -13 23 -21t35 -8q25 0 45 11q18 10 30 30q10 19 10 42
q0 17 -8 31q-7 13 -23 21q-14 7 -36 7q-25 0 -44 -10q-18 -10 -30 -30zM1013 207l-28 -137h30l17 82l28 -68h14l52 67l-16 -81h30l27 137h-27l-67 -86l-34 86h-26zM846 207l-28 -137h107l5 25h-75l6 32h64l5 25h-64l6 29h72l6 26h-104zM648 207l-27 -137h67q28 0 45 9
q19 10 30 29q10 17 10 42q0 16 -8 30q-7 12 -23 20q-14 7 -36 7h-58z" />
    <glyph glyph-name="numbersign" unicode="#" 
d="M1703 583q39 56 129 98q-31 -85 -53 -125.5t-48 -49.5q-41 -14 -48.5 11.5t20.5 65.5zM751 875q3 -45 27 -83.5t61 -51.5q-17 -61 -39 -79.5t-50 -10.5q-24 7 -24.5 72.5t14.5 116.5q3 12 11 36zM795 905q34 52 48 -21q11 -61 4 -112l-1 -5v-1q-34 18 -52 62t1 77z
M2704 921q3 -46 -19 -87q10 -17 10 -33q0 -64 -31 -98q-33 -37 -91 -65.5t-113 -28.5t-94 31q-17 13 -32 33q-62 -69 -146 -69q-33 0 -63 10l-3 -9q-44 -150 -42 -171q10 -43 -26 -66q-15 -9 -32 -9q-22 0 -40 16q-37 37 -54 65q-24 -37 -61 -64q-62 -44 -118 -44
q-21 0 -41 10t-32 21t-30 31q-23 25 -44 65q-15 30 -12 66l-6 6q-24 -11 -48 -11q-68 0 -113 73q-7 10 -12 25l-8 8l-7 -44q-2 -34 -30 -50q-14 -8 -30 -8q-15 0 -29 8q-8 4 -21 14q-7 -4 -14 -5q-6 -2 -22 -2q-65 0 -100 53q-40 -46 -82 -49h-14q-64 0 -97 45
q-62 -87 -149 -87q-63 0 -111 46q2 -34 5 -50q6 -39 -28 -61q-15 -9 -32 -9q-18 0 -34 11q-6 4 -17 13.5t-34.5 38t-42.5 61.5q-20 23 -36 50q-8 -79 10 -113q16 -31 -1 -59q-18 -30 -51 -30h-1q-65 0 -111 54q-73 87 -83 160q-16 -11 -34 -11q-12 0 -21 4q-44 17 -65 58
t-18 69l3.5 17.5t14 34.5t31 47.5t56 45.5t86.5 39q30 107 52 161.5t32 65t27 16.5q11 4 25 4q50 0 122 -74q3 -3 7 -9q37 85 94 177q36 58 108 58q55 0 97 -25q14 -8 44.5 -53.5t31.5 -61.5q2 -34 -27 -53q-14 -9 -35 -35q39 -21 71 -61q10 -13 12 -31q1 -1 4 -3
q19 31 39 50q43 41 106 41q71 0 105 -47q22 2 29 2q41 126 111 241q36 58 108 58q35 0 97 -25q31 -17 33 -51l-1 -1v-2q61 4 233 4h102q17 0 33.5 1.5t29.5 3.5t25 4t21 4.5t15.5 4.5t10.5 3l3 1q9 4 22 4q25 0 43 -18q8 -8 26 -36t18 -29q24 -35 12 -65q-7 -15 -15 -29
q44 -8 53 -45q2 -8 2 -14q24 3 25 3q50 0 84 -36q24 29 50 47q58 43 123 43q52 0 89 -23t73 -72q37 -43 40 -94zM598 552q-14 83 5.5 195.5t57 211t84 176.5t85.5 103q-10 5 -26 11.5t-50 5t-50 -27.5q-66 -107 -106 -207.5t-49.5 -172.5t-10 -111.5t4.5 -65.5
q-24 41 -36 95.5t-12.5 102t2.5 89.5t7 67l5 24l-7 7t-16 14.5t-22 18.5t-21 13t-17 3q-21 -7 -83 -237q-47 -10 -83 -27.5t-54 -36.5t-29 -36.5t-13 -28.5l-2 -11q27 40 162 68q-14 -54 -21 -99q-7 -51 -1.5 -83.5t20.5 -50.5t30 -26.5t27 -9.5l12 -2q-20 36 -20.5 96
t12.5 120t29 114.5t30 89.5l13 34q3 -120 24 -218q9 -41 24.5 -77.5t31 -59.5t30.5 -40t24 -24zM1144 716q7 -28 25 -41t33 -12l14 1q-3 3 -6.5 11t-9.5 40.5t4 79.5q6 39 17 85t19 72l8 27q-67 3 -84 -28q-29 -53 -51.5 -106t-46.5 -89q-36 -54 -52 -39q-13 11 2.5 67
t42.5 111q32 63 50 79t55 5q9 24 -24 38q-42 18 -84 -5l-17 -13q-24 -23 -47.5 -74t-35.5 -106q-22 -42 -55 -56q14 61 13 93q-3 76 -28.5 103.5t-66.5 22.5q32 22 76 9q-2 3 -6 7.5t-17.5 17.5t-26.5 19t-33.5 11.5t-37.5 -3.5q-31 -11 -64 -74.5t-48.5 -139.5t-1.5 -119
q15 -45 49 -68.5t77.5 -13t78.5 59.5q17 24 27 48q29 6 57 34q-3 -31 1 -52q9 -54 70 -50q26 2 62.5 58t59.5 111l24 55q-2 -5 -4 -12.5t-8 -31.5t-8.5 -43t-5 -46.5t3.5 -42.5zM1516 652l-5 5t-9.5 16t-10 28t-3 41.5t7.5 56.5q11 45 25.5 87.5t22.5 62.5l9 20l-57 27
q-9 5 -19 -2q-103 -73 -168 -189q33 145 99 283t119 172q-4 2 -10 4.5t-24 7.5t-33 5.5t-32.5 -6.5t-27.5 -23q-92 -150 -135 -337q-12 -51 -20.5 -113.5t-6.5 -82.5q2 -17 15.5 -33.5t26.5 -24.5l12 -8q0 11 2.5 29.5t18.5 66.5t44 84q32 41 59 69.5t38 36.5l11 8
q-3 -7 -8 -20t-16.5 -48.5t-18 -66t-6 -65t12.5 -53.5q19 -31 41 -40.5t34 -3.5zM1636 595q-13 22 -14 60.5t9.5 87t26 99t37 106t40 99t38.5 85.5q171 3 187 4q37 3 67.5 26.5t42.5 45.5l11 21q-64 -25 -159 -26h-97.5t-109 -0.5t-87.5 -2.5t-72 -5q-39 -5 -68.5 -31
t-39.5 -50l-11 -23q8 11 50 20t83 12q47 3 111 4q-2 -7 -53 -142t-70 -214q-8 -38 -3.5 -67.5t18 -50t27.5 -33.5t25 -19zM2273 817q22 37 30 65.5t6 43t-10 32.5q-23 55 -88 31q-31 -12 -62.5 -40t-47.5 -50l-16 -22q72 174 75 176l-25 1q-57 -3 -73 -33q-35 -98 -76 -213
q-1 -4 -3.5 -11t-3.5 -10q-50 -29 -63 -35q14 47 40 115.5t44 113.5l19 45q-69 -3 -91 -28q-5 -6 -43.5 -62t-72.5 -95.5t-47 -30.5t40 106t62 106q-10 0 -25 -1.5t-45 -13.5t-41 -33q-13 -24 -21 -40t-18 -38.5t-15.5 -38t-9.5 -32t-3 -28t7 -19.5q10 -12 32.5 -13t52 14
t52.5 44l86 115q-41 -127 -73 -218q-17 -11 -49.5 -29.5t-45 -27t-32.5 -26.5t-38 -42q-26 -34 -30 -67.5t10.5 -53t49 -17.5t77.5 33q28 20 50.5 58t33 67t35.5 105q46 28 60 34q-35 -98 -46 -151q-7 -24 7.5 -53.5t31.5 -47.5l18 -18q-9 31 42 203q27 90 70 163
q29 50 80 86.5t66 24.5q7 -8 1.5 -37.5t-18.5 -55.5q-16 -32 -38 -55.5t-42 -34t-38 -16.5t-29 -6l-10 -1q5 -4 13.5 -9t34 -12.5t50 -5t56.5 24t57 64.5zM2480 987q36 39 65 29q23 -8 13 -37q-8 -19 -31 -40q-17 -15 -39 -20t-36 -2l-14 3q2 -5 6 -12t21.5 -18.5
t40.5 -10.5q48 3 71.5 33t21.5 70q-2 25 -29 45.5t-68 22.5t-88 -31q-41 -30 -69.5 -77.5t-28 -101.5t43.5 -88q31 -24 73.5 -17t81 28t60.5 45q7 8 11 22.5t4 25.5l1 10q-31 -50 -103.5 -82.5t-90.5 -1.5q-19 31 10 94.5t73 110.5zM1282 94q-16 0 -28 10q-9 8 -9 25
q0 15 6 27t17 19t27 7q17 0 27 -9t10 -25q0 -15 -6 -27t-17 -19q-13 -8 -27 -8zM1733 94q-15 0 -27 10q-10 9 -10 25q0 15 6 27q6 11 18 19q11 7 26 7q18 0 28 -9t10 -25q0 -13 -7 -27q-6 -12 -17 -19q-13 -8 -27 -8zM717 102q-10 -6 -28 -6h-31l17 85h27q18 0 29 -9
q10 -9 10 -24t-6 -27q-6 -11 -18 -19zM511 0l56 282h1728l-56 -282h-1728zM2066 207l-5 -26h44l-22 -111h32l22 111h44l5 26h-120zM1888 207l-27 -137h31l17 86l51 -86h27l27 137h-31l-17 -86l-52 86h-26zM1674 169q-10 -19 -10 -42q0 -17 8 -31q7 -13 23 -21t36 -8
q24 0 44 11q18 10 30 30q11 20 11 42q0 17 -8 31q-7 13 -23 21q-14 7 -36 7q-25 0 -44 -10q-20 -11 -31 -30zM1528 207l-28 -137h32l10 50h63l6 25h-64l7 36h72l5 26h-103zM1223 169q-11 -20 -11 -42q0 -17 8 -31q7 -12 24 -21q16 -8 35 -8q25 0 45 11q18 10 30 30
q10 19 10 42q0 17 -8 31q-7 13 -23 21q-14 7 -36 7q-25 0 -44 -10q-18 -10 -30 -30zM1013 207l-28 -137h30l17 82l28 -68h14l52 67l-16 -81h30l27 137h-27l-67 -86l-34 86h-26zM846 207l-28 -137h107l5 25h-75l6 32h64l5 25h-64l6 29h72l6 26h-104zM648 207l-27 -137h67
q27 0 44 9q21 11 31 29q10 17 10 42q0 16 -8 30q-7 12 -23 20q-14 7 -36 7h-58z" />
    <glyph glyph-name="dollar" unicode="$" 
d="M1703 583q39 56 129 98q-31 -85 -53 -125.5t-48 -49.5q-41 -14 -48.5 11.5t20.5 65.5zM751 875q3 -45 27 -83.5t61 -51.5q-17 -61 -39 -79.5t-50 -10.5q-24 7 -24.5 72.5t14.5 116.5q3 12 11 36zM795 905q34 52 48 -21q11 -61 4 -112l-1 -5v-1q-34 18 -52 62t1 77z
M2704 921q3 -46 -19 -87q10 -17 10 -33q0 -64 -31 -98q-33 -37 -91 -65.5t-113 -28.5t-94 31q-17 13 -32 33q-62 -69 -146 -69q-33 0 -63 10l-3 -9q-44 -150 -42 -171q10 -43 -26 -66q-15 -9 -32 -9q-22 0 -40 16q-37 37 -54 65q-24 -37 -61 -64q-62 -44 -118 -44
q-21 0 -41 10t-32 21t-30 31q-23 25 -44 65q-15 30 -12 66l-6 6q-24 -11 -48 -11q-68 0 -113 73q-7 10 -12 25l-8 8l-7 -44q-2 -34 -30 -50q-14 -8 -30 -8q-15 0 -29 8q-8 4 -21 14q-7 -4 -14 -5q-6 -2 -22 -2q-65 0 -100 53q-40 -46 -82 -49h-14q-64 0 -97 45
q-62 -87 -149 -87q-63 0 -111 46q2 -34 5 -50q6 -39 -28 -61q-15 -9 -32 -9q-18 0 -34 11q-6 4 -17 13.5t-34.5 38t-42.5 61.5q-20 23 -36 50q-8 -79 10 -113q16 -31 -1 -59q-18 -30 -51 -30h-1q-65 0 -111 54q-73 87 -83 160q-16 -11 -34 -11q-12 0 -21 4q-44 17 -65 58
t-18 69l3.5 17.5t14 34.5t31 47.5t56 45.5t86.5 39q30 107 52 161.5t32 65t27 16.5q11 4 25 4q50 0 122 -74q3 -3 7 -9q37 85 94 177q36 58 108 58q55 0 97 -25q14 -8 44.5 -53.5t31.5 -61.5q2 -34 -27 -53q-14 -9 -35 -35q39 -21 71 -61q10 -13 12 -31q1 -1 4 -3
q19 31 39 50q43 41 106 41q71 0 105 -47q22 2 29 2q41 126 111 241q36 58 108 58q35 0 97 -25q31 -17 33 -51l-1 -1v-2q61 4 233 4h102q17 0 33.5 1.5t29.5 3.5t25 4t21 4.5t15.5 4.5t10.5 3l3 1q9 4 22 4q25 0 43 -18q8 -8 26 -36t18 -29q24 -35 12 -65q-7 -15 -15 -29
q44 -8 53 -45q2 -8 2 -14q24 3 25 3q50 0 84 -36q24 29 50 47q58 43 123 43q52 0 89 -23t73 -72q37 -43 40 -94zM598 552q-14 83 5.5 195.5t57 211t84 176.5t85.5 103q-10 5 -26 11.5t-50 5t-50 -27.5q-66 -107 -106 -207.5t-49.5 -172.5t-10 -111.5t4.5 -65.5
q-24 41 -36 95.5t-12.5 102t2.5 89.5t7 67l5 24l-7 7t-16 14.5t-22 18.5t-21 13t-17 3q-21 -7 -83 -237q-47 -10 -83 -27.5t-54 -36.5t-29 -36.5t-13 -28.5l-2 -11q27 40 162 68q-14 -54 -21 -99q-7 -51 -1.5 -83.5t20.5 -50.5t30 -26.5t27 -9.5l12 -2q-20 36 -20.5 96
t12.5 120t29 114.5t30 89.5l13 34q3 -120 24 -218q9 -41 24.5 -77.5t31 -59.5t30.5 -40t24 -24zM1144 716q7 -28 25 -41t33 -12l14 1q-3 3 -6.5 11t-9.5 40.5t4 79.5q6 39 17 85t19 72l8 27q-67 3 -84 -28q-29 -53 -51.5 -106t-46.5 -89q-36 -54 -52 -39q-13 11 2.5 67
t42.5 111q32 63 50 79t55 5q9 24 -24 38q-42 18 -84 -5l-17 -13q-24 -23 -47.5 -74t-35.5 -106q-22 -42 -55 -56q14 61 13 93q-3 76 -28.5 103.5t-66.5 22.5q32 22 76 9q-2 3 -6 7.5t-17.5 17.5t-26.5 19t-33.5 11.5t-37.5 -3.5q-31 -11 -64 -74.5t-48.5 -139.5t-1.5 -119
q15 -45 49 -68.5t77.5 -13t78.5 59.5q17 24 27 48q29 6 57 34q-3 -31 1 -52q9 -54 70 -50q26 2 62.5 58t59.5 111l24 55q-2 -5 -4 -12.5t-8 -31.5t-8.5 -43t-5 -46.5t3.5 -42.5zM1516 652l-5 5t-9.5 16t-10 28t-3 41.5t7.5 56.5q11 45 25.5 87.5t22.5 62.5l9 20l-57 27
q-9 5 -19 -2q-103 -73 -168 -189q33 145 99 283t119 172q-4 2 -10 4.5t-24 7.5t-33 5.5t-32.5 -6.5t-27.5 -23q-92 -150 -135 -337q-12 -51 -20.5 -113.5t-6.5 -82.5q2 -17 15.5 -33.5t26.5 -24.5l12 -8q0 11 2.5 29.5t18.5 66.5t44 84q32 41 59 69.5t38 36.5l11 8
q-3 -7 -8 -20t-16.5 -48.5t-18 -66t-6 -65t12.5 -53.5q19 -31 41 -40.5t34 -3.5zM1636 595q-13 22 -14 60.5t9.5 87t26 99t37 106t40 99t38.5 85.5q171 3 187 4q37 3 67.5 26.5t42.5 45.5l11 21q-64 -25 -159 -26h-97.5t-109 -0.5t-87.5 -2.5t-72 -5q-39 -5 -68.5 -31
t-39.5 -50l-11 -23q8 11 50 20t83 12q47 3 111 4q-2 -6 -53 -141.5t-70 -214.5q-8 -38 -3.5 -67.5t18 -50t27.5 -33.5t25 -19zM2273 817q22 37 30 65.5t6 43t-10 32.5q-23 55 -88 31q-31 -12 -62.5 -40t-47.5 -50l-16 -22q72 174 75 176l-25 1q-57 -3 -73 -33
q-35 -98 -76 -213q-1 -4 -3.5 -11t-3.5 -10q-50 -29 -63 -35q14 47 40 115.5t44 113.5l19 45q-69 -3 -91 -28q-5 -6 -43.5 -62t-72.5 -95.5t-47 -30.5t40 106t62 106q-10 0 -25 -1.5t-45 -13.5t-41 -33q-13 -24 -21 -40t-18 -38.5t-15.5 -38t-9.5 -32t-3 -28t7 -19.5
q10 -12 32.5 -13t52 14t52.5 44l86 115q-41 -127 -73 -218q-17 -11 -49.5 -29.5t-45 -27t-32.5 -26.5t-38 -42q-26 -34 -30 -67.5t10.5 -53t49 -17.5t77.5 33q28 20 50.5 58t33 67t35.5 105q46 28 60 34q-35 -98 -46 -151q-7 -24 7.5 -53.5t31.5 -47.5l18 -18q-9 31 42 203
q27 90 70 163q29 50 80 86.5t66 24.5q7 -8 1.5 -37.5t-18.5 -55.5q-16 -32 -38 -55.5t-42 -34t-38 -16.5t-29 -6l-10 -1q5 -4 13.5 -9t34 -12.5t50 -5t56.5 24t57 64.5zM2480 987q36 39 65 29q23 -8 13 -37q-8 -19 -31 -40q-17 -15 -39 -20t-36 -2l-14 3q2 -5 6 -12
t21.5 -18.5t40.5 -10.5q48 3 71.5 33t21.5 70q-2 25 -29 45.5t-67.5 22.5t-87.5 -31q-41 -30 -69.5 -77.5t-28.5 -101.5t43 -88q31 -24 73.5 -17t81 28t60.5 45q7 8 11 22.5t4 25.5l1 10q-31 -50 -103.5 -82.5t-90.5 -1.5q-19 31 10 94.5t73 110.5zM1282 94q-16 0 -28 10
q-9 8 -9 25q0 15 6 27t17 19t27 7q17 0 27 -9t10 -25q0 -15 -6 -27t-17 -19q-13 -8 -27 -8zM1734 94q-16 0 -28 10q-10 9 -10 25q0 15 6 27q6 11 18 19q11 7 26 7q18 0 28 -9t10 -25q0 -13 -7 -27q-6 -12 -17 -19q-13 -8 -26 -8zM717 102q-10 -6 -28 -6h-31l17 85h27
q18 0 29 -9q10 -9 10 -24t-6 -27q-6 -11 -18 -19zM511 0l56 282h1728l-56 -282h-1728zM2067 207l-6 -26h44l-22 -111h32l22 111h44l5 26h-119zM1888 207l-27 -137h31l17 86l51 -86h27l27 137h-31l-17 -86l-52 86h-26zM1675 169q-11 -20 -11 -42q0 -17 8 -31q7 -13 23 -21
t36 -8q24 0 44 11q18 10 30 30q11 20 11 42q0 17 -8 31q-7 13 -23 21q-14 7 -36 7q-25 0 -44 -10q-18 -10 -30 -30zM1528 207l-28 -137h32l10 50h64l5 25h-64l7 36h72l5 26h-103zM1223 169q-11 -20 -11 -42q0 -15 9 -31q7 -13 23 -21t35 -8q25 0 45 11q18 10 30 30
q10 19 10 42q0 17 -8 31q-7 13 -23 21q-14 7 -36 7q-25 0 -44 -10q-18 -10 -30 -30zM1013 207l-28 -137h30l17 82l28 -68h14l52 67l-16 -81h30l28 137h-28l-67 -86l-34 86h-26zM846 207l-28 -137h107l5 25h-75l6 32h64l5 25h-64l6 29h72l6 26h-104zM648 207l-27 -137h67
q28 0 45 9q19 10 30 29q10 17 10 42q0 16 -8 30q-7 12 -23 20q-14 7 -36 7h-58z" />
    <glyph glyph-name="percent" unicode="%" 
d="M1703 583q39 56 129 98q-31 -85 -53 -125.5t-48 -49.5q-41 -14 -48.5 11.5t20.5 65.5zM751 875q3 -45 27 -83.5t61 -51.5q-17 -61 -39 -79.5t-50 -10.5q-24 7 -24.5 72.5t14.5 116.5q3 12 11 36zM795 905q34 52 48 -21q11 -61 4 -112l-1 -5v-1q-34 18 -52 62t1 77z
M2704 921q3 -46 -19 -87q10 -17 10 -33q0 -64 -31 -98q-33 -37 -91 -65.5t-113 -28.5t-94 31q-17 13 -32 33q-62 -69 -146 -69q-33 0 -63 10l-3 -9q-44 -150 -42 -171q10 -43 -26 -66q-15 -9 -32 -9q-22 0 -40 16q-37 37 -54 65q-24 -37 -61 -64q-62 -44 -118 -44
q-21 0 -41 10t-32 21t-30 31q-23 25 -44 65q-15 30 -12 66l-6 6q-24 -11 -48 -11q-68 0 -113 73q-7 10 -12 25l-8 8l-7 -44q-2 -34 -30 -50q-14 -8 -30 -8q-15 0 -29 8q-8 4 -21 14q-7 -4 -14 -5q-6 -2 -22 -2q-65 0 -100 53q-40 -46 -82 -49h-14q-64 0 -97 45
q-62 -87 -149 -87q-63 0 -111 46q2 -34 5 -50q6 -39 -28 -61q-15 -9 -32 -9q-18 0 -34 11q-6 4 -17 13.5t-34.5 38t-42.5 61.5q-20 23 -36 50q-8 -79 10 -113q16 -31 -1 -59q-18 -30 -51 -30h-1q-65 0 -111 54q-73 87 -83 160q-16 -11 -34 -11q-12 0 -21 4q-44 17 -65 58
t-18 69l3.5 17.5t14 34.5t31 47.5t56 45.5t86.5 39q30 107 52 161.5t32 65t27 16.5q11 4 25 4q50 0 122 -74q3 -3 7 -9q37 85 94 177q36 58 108 58q55 0 97 -25q14 -8 44.5 -53.5t31.5 -61.5q2 -34 -27 -53q-14 -9 -35 -35q39 -21 71 -61q10 -13 12 -31q1 -1 4 -3
q19 31 39 50q43 41 106 41q71 0 105 -47q22 2 29 2q41 126 111 241q36 58 108 58q35 0 97 -25q31 -17 33 -51l-1 -1v-2q61 4 233 4h102q17 0 33.5 1.5t29.5 3.5t25 4t21 4.5t15.5 4.5t10.5 3l3 1q9 4 22 4q25 0 43 -18q8 -8 26 -36t18 -29q24 -35 12 -65q-7 -15 -15 -29
q44 -8 53 -45q2 -8 2 -14q24 3 25 3q50 0 84 -36q24 29 50 47q58 43 122 43q53 0 90.5 -23t72.5 -72q37 -43 40 -94zM598 552q-14 83 5.5 195.5t57 211t84 176.5t85.5 103q-10 5 -26 11.5t-50 5t-50 -27.5q-66 -107 -106 -207.5t-49.5 -172.5t-10 -111.5t4.5 -65.5
q-24 41 -36 95.5t-12.5 102t2.5 89.5t7 67l5 24l-7 7t-16 14.5t-22 18.5t-21 13t-17 3q-21 -7 -83 -237q-47 -10 -83 -27.5t-54 -36.5t-29 -36.5t-13 -28.5l-2 -11q27 40 162 68q-14 -54 -21 -99q-7 -51 -1.5 -83.5t20.5 -50.5t30 -26.5t27 -9.5l12 -2q-20 36 -20.5 96
t12.5 120t29 114.5t30 89.5l13 34q3 -120 24 -218q9 -41 24.5 -77.5t31 -59.5t30.5 -40t24 -24zM1144 716q7 -28 25 -41t33 -12l14 1q-3 3 -6.5 11t-9.5 40.5t4 79.5q6 39 17 85t19 72l8 27q-67 3 -84 -28q-29 -53 -51.5 -106t-46.5 -89q-36 -54 -52 -39q-13 11 2.5 67
t42.5 111q32 63 50 79t55 5q9 24 -24 38q-42 18 -84 -5l-17 -13q-24 -23 -47.5 -74t-35.5 -106q-22 -42 -55 -56q14 61 13 93q-3 76 -28.5 103.5t-66.5 22.5q32 22 76 9q-2 3 -6 7.5t-17.5 17.5t-26.5 19t-33.5 11.5t-37.5 -3.5q-31 -11 -64 -74.5t-48.5 -139.5t-1.5 -119
q15 -45 49 -68.5t77.5 -13t78.5 59.5q17 24 27 48q29 6 57 34q-3 -31 1 -52q9 -54 70 -50q26 2 62.5 58t59.5 111l24 55q-2 -5 -4 -12.5t-8 -31.5t-8.5 -43t-5 -46.5t3.5 -42.5zM1516 652l-5 5t-9.5 16t-10 28t-3 41.5t7.5 56.5q11 45 25 87.5t23 62.5l8 20l-56 27
q-10 5 -20 -2q-19 -14 -42.5 -34.5t-61 -64t-63.5 -90.5q33 145 99 283t119 172q-4 2 -10 4.5t-24 7.5t-33 5.5t-32.5 -6.5t-27.5 -23q-92 -150 -135 -337q-12 -51 -20.5 -113.5t-6.5 -82.5q2 -17 15.5 -33.5t26.5 -24.5l12 -8q0 11 2.5 29.5t18.5 66.5t44 84q32 41 59 69.5
t38 36.5l11 8q-3 -7 -8 -20t-16.5 -48.5t-18 -66t-6 -65t12.5 -53.5q19 -31 41 -40.5t34 -3.5zM1636 595q-13 22 -14 60.5t9.5 87t26 99t37 106t40 99t38.5 85.5q171 3 187 4q37 3 67.5 26.5t42.5 45.5l11 21q-64 -25 -159 -26h-97.5t-109 -0.5t-87.5 -2.5t-72 -5
q-39 -5 -68.5 -31t-39.5 -50l-11 -23q8 11 50 20t83 12q47 3 111 4q-2 -7 -53 -142t-70 -214q-8 -38 -3.5 -67.5t18 -50t27.5 -33.5t25 -19zM2273 817q22 37 30 65.5t6 43t-10 32.5q-23 55 -88 31q-31 -12 -62.5 -40t-47.5 -50l-16 -22q72 174 75 176l-25 1q-57 -3 -73 -33
q-35 -98 -76 -213q-1 -4 -3.5 -11t-3.5 -10q-50 -29 -63 -35q14 47 40 115.5t44 113.5l19 45q-69 -3 -91 -28q-5 -6 -43.5 -62t-72.5 -95.5t-47 -30.5t40 106t62 106q-10 0 -25 -1.5t-45 -13.5t-41 -33q-13 -24 -21 -40t-18 -38.5t-15.5 -38t-9.5 -32t-3 -28t7 -19.5
q10 -12 32.5 -13t52 14t52.5 44l86 115q-41 -127 -73 -218q-17 -11 -49.5 -29.5t-45 -27t-32.5 -26.5t-38 -42q-26 -34 -30 -67.5t10.5 -53t49 -17.5t77.5 33q28 20 50.5 58t33 67t35.5 105q46 28 60 34q-35 -98 -46 -151q-7 -24 7.5 -53.5t31.5 -47.5l18 -18q-9 31 42 203
q27 90 70 163q29 50 80 86.5t66 24.5q7 -8 1.5 -37.5t-18.5 -55.5q-16 -32 -38 -55.5t-42 -34t-38 -16.5t-29 -6l-10 -1q5 -4 13.5 -9t34 -12.5t50 -5t56.5 24t57 64.5zM2480 987q36 39 65 29q23 -8 13 -37q-8 -19 -31 -40q-17 -15 -39 -20t-36 -2l-14 3q2 -5 6 -12
t21.5 -18.5t40.5 -10.5q48 3 71.5 33t21.5 70q-2 25 -29 45.5t-68 22.5t-88 -31q-41 -30 -69.5 -77.5t-28 -101.5t43.5 -88q31 -24 73.5 -17t81 28t60.5 45q7 8 11 22.5t4 25.5l1 10q-31 -50 -103.5 -82.5t-90.5 -1.5q-19 31 10 94.5t73 110.5zM1282 94q-16 0 -28 10
q-9 8 -9 25q0 15 6 27t17 19t27 7q17 0 27 -9t10 -25q0 -15 -6 -27t-17 -19q-13 -8 -27 -8zM1734 94q-16 0 -28 10q-10 9 -10 25q0 15 6 27q6 11 18 19q11 7 26 7q18 0 28 -9t10 -25q0 -13 -7 -27q-6 -12 -17 -19q-13 -8 -26 -8zM717 102q-10 -6 -28 -6h-31l17 85h27
q18 0 29 -9q10 -9 10 -24t-6 -27q-6 -11 -18 -19zM511 0l56 282h1728l-56 -282h-1728zM2066 207l-5 -26h44l-22 -111h32l22 111h44l5 26h-120zM1888 207l-27 -137h31l17 86l51 -86h27l27 137h-31l-17 -86l-52 86h-26zM1674 169q-10 -19 -10 -42q0 -17 8 -31q7 -13 23 -21
t36 -8q24 0 44 11q18 10 30 30q11 20 11 42q0 17 -8 31q-7 13 -23 21q-14 7 -36 7q-25 0 -44 -10q-20 -11 -31 -30zM1528 207l-28 -137h32l10 50h63l6 25h-64l7 36h72l5 26h-103zM1223 169q-11 -20 -11 -42q0 -17 8 -31q7 -12 24 -21q16 -8 35 -8q25 0 45 11q18 10 30 30
q10 19 10 42q0 17 -8 31q-7 13 -23 21q-14 7 -36 7q-25 0 -44 -10q-18 -10 -30 -30zM1013 207l-28 -137h30l17 82l28 -68h14l52 67l-16 -81h30l27 137h-27l-67 -86l-34 86h-26zM846 207l-28 -137h107l5 25h-75l6 32h64l5 25h-64l6 29h72l6 26h-104zM648 207l-27 -137h67
q27 0 44 9q21 11 31 29q10 17 10 42q0 16 -8 30q-7 12 -23 20q-14 7 -36 7h-58z" />
    <glyph glyph-name="ampersand" unicode="&#x26;" 
d="M1703 583q39 56 129 98q-31 -85 -53 -125.5t-48 -49.5q-41 -14 -48.5 11.5t20.5 65.5zM751 875q3 -45 27 -83.5t61 -51.5q-17 -61 -39 -79.5t-50 -10.5q-24 7 -24.5 72.5t14.5 116.5q3 12 11 36zM795 905q34 52 48 -21q11 -61 4 -112l-1 -5v-1q-34 18 -52 62t1 77z
M2704 921q3 -46 -19 -87q10 -17 10 -33q0 -64 -31 -98q-33 -37 -91 -65.5t-113 -28.5t-94 31q-17 13 -32 33q-62 -69 -146 -69q-33 0 -63 10l-3 -9q-44 -150 -42 -171q10 -43 -26 -66q-15 -9 -32 -9q-22 0 -40 16q-37 37 -54 65q-24 -37 -61 -64q-62 -44 -118 -44
q-21 0 -41 10t-32 21t-30 31q-23 25 -44 65q-15 30 -12 66l-6 6q-24 -11 -48 -11q-68 0 -113 73q-7 10 -12 25l-8 8l-7 -44q-2 -34 -30 -50q-14 -8 -30 -8q-15 0 -29 8q-8 4 -21 14q-7 -4 -14 -5q-6 -2 -22 -2q-65 0 -100 53q-40 -46 -82 -49h-14q-64 0 -97 45
q-62 -87 -149 -87q-63 0 -111 46q2 -34 5 -50q6 -39 -28 -61q-15 -9 -32 -9q-18 0 -34 11q-6 4 -17 13.5t-34.5 38t-42.5 61.5q-20 23 -36 50q-8 -79 10 -113q16 -31 -1 -59q-18 -30 -51 -30h-1q-65 0 -111 54q-73 87 -83 160q-16 -11 -34 -11q-12 0 -21 4q-44 17 -65 58
t-18 69l3.5 17.5t14 34.5t31 47.5t56 45.5t86.5 39q30 107 52 161.5t32 65t27 16.5q11 4 25 4q50 0 122 -74q3 -3 7 -9q37 85 94 177q36 58 108 58q55 0 97 -25q14 -8 44.5 -53.5t31.5 -61.5q2 -34 -27 -53q-14 -9 -35 -35q39 -21 71 -61q10 -13 12 -31q1 -1 4 -3
q19 31 39 50q43 41 106 41q71 0 105 -47q22 2 29 2q41 126 111 241q36 58 108 58q35 0 97 -25q31 -17 33 -51l-1 -1v-2q61 4 233 4h102q17 0 33.5 1.5t29.5 3.5t25 4t21 4.5t15.5 4.5t10.5 3l3 1q9 4 22 4q25 0 43 -18q8 -8 26 -36t18 -29q24 -35 12 -65q-7 -15 -15 -29
q44 -8 53 -45q2 -8 2 -14q24 3 25 3q50 0 84 -36q24 29 50 47q58 43 122 43q53 0 90.5 -23t72.5 -72q37 -43 40 -94zM598 552q-14 83 5.5 195.5t57 211t84 176.5t85.5 103q-10 5 -26 11.5t-50 5t-50 -27.5q-66 -107 -106 -207.5t-49.5 -172.5t-10 -111.5t4.5 -65.5
q-24 41 -36 95.5t-12.5 102t2.5 89.5t7 67l5 24l-7 7t-16 14.5t-22 18.5t-21 13t-17 3q-21 -7 -83 -237q-47 -10 -83 -27.5t-54 -36.5t-29 -36.5t-13 -28.5l-2 -11q27 40 162 68q-14 -54 -21 -99q-7 -51 -1.5 -83.5t20.5 -50.5t30 -26.5t27 -9.5l12 -2q-20 36 -20.5 96
t12.5 120t29 114.5t30 89.5l13 34q3 -120 24 -218q9 -41 24.5 -77.5t31 -59.5t30.5 -40t24 -24zM1144 716q7 -28 25 -41t33 -12l14 1q-3 3 -6.5 11t-9.5 40.5t4 79.5q6 39 17 85t19 72l8 27q-67 3 -84 -28q-29 -53 -51.5 -106t-46.5 -89q-36 -54 -52 -39q-13 11 2.5 67
t42.5 111q32 63 50 79t55 5q9 24 -24 38q-42 18 -84 -5l-17 -13q-24 -23 -47.5 -74t-35.5 -106q-22 -42 -55 -56q14 61 13 93q-3 76 -28.5 103.5t-66.5 22.5q32 22 76 9q-2 3 -6 7.5t-17.5 17.5t-26.5 19t-33.5 11.5t-37.5 -3.5q-31 -11 -64 -74.5t-48.5 -139.5t-1.5 -119
q15 -45 49 -68.5t77.5 -13t78.5 59.5q17 24 27 48q29 6 57 34q-3 -31 1 -52q9 -54 70 -50q26 2 62.5 58t59.5 111l24 55q-2 -5 -4 -12.5t-8 -31.5t-8.5 -43t-5 -46.5t3.5 -42.5zM1516 652l-5 5t-9.5 16t-10 28t-3 41.5t7.5 56.5q11 45 25 87.5t23 62.5l8 20l-56 27
q-10 5 -20 -2q-19 -14 -42.5 -34.5t-61 -64t-63.5 -90.5q33 145 99 283t119 172q-4 2 -10 4.5t-24 7.5t-33 5.5t-32.5 -6.5t-27.5 -23q-92 -150 -135 -337q-12 -51 -20.5 -113.5t-6.5 -82.5q2 -17 15.5 -33.5t26.5 -24.5l12 -8q0 11 2.5 29.5t18.5 66.5t44 84q32 41 59 69.5
t38 36.5l11 8q-3 -7 -8 -20t-16.5 -48.5t-18 -66t-6 -65t12.5 -53.5q19 -31 41 -40.5t34 -3.5zM1636 595q-13 22 -14 60.5t9.5 87t26 99t37 106t40 99t38.5 85.5q171 3 187 4q37 3 67.5 26.5t42.5 45.5l11 21q-64 -25 -159 -26h-97.5t-109 -0.5t-87.5 -2.5t-72 -5
q-39 -5 -68.5 -31t-39.5 -50l-11 -23q8 11 50 20t83 12q47 3 111 4q-2 -7 -53 -142t-70 -214q-8 -38 -3.5 -67.5t18 -50t27.5 -33.5t25 -19zM2273 817q22 37 30 65.5t6 43t-10 32.5q-23 55 -88 31q-31 -12 -62.5 -40t-47.5 -50l-16 -22q72 174 75 176l-25 1q-57 -3 -73 -33
q-35 -98 -76 -213q-1 -4 -3.5 -11t-3.5 -10q-50 -29 -63 -35q14 47 39.5 115.5t44.5 113.5l18 45q-68 -3 -90 -28q-5 -6 -43.5 -62t-72.5 -95.5t-47 -30.5t40 106t62 106q-10 0 -25 -1.5t-45 -13.5t-41 -33q-13 -24 -21 -40t-18 -38.5t-15.5 -38t-9.5 -32t-3 -28t7 -19.5
q10 -12 32.5 -13t51.5 14t52 44l87 115q-41 -127 -73 -218q-17 -11 -49.5 -29.5t-45 -27t-32.5 -26.5t-38 -42q-26 -34 -30 -67.5t10.5 -53t49 -17.5t77.5 33q28 20 50.5 58t33 67t35.5 105q46 28 60 34q-35 -98 -46 -151q-7 -24 7.5 -53.5t31.5 -47.5l18 -18q-9 31 42 203
q27 90 70 163q29 50 80 86.5t66 24.5q7 -8 1.5 -37.5t-18.5 -55.5q-16 -32 -38 -55.5t-42 -34t-38 -16.5t-29 -6l-10 -1q5 -4 13.5 -9t34 -12.5t50 -5t56.5 24t57 64.5zM2480 987q36 39 65 29q23 -8 13 -37q-8 -19 -31 -40q-17 -15 -39 -20t-36 -2l-14 3q2 -5 6 -12
t21.5 -18.5t40.5 -10.5q48 3 71.5 33t21.5 70q-2 25 -29 45.5t-68 22.5t-88 -31q-41 -30 -69.5 -77.5t-28 -101.5t43.5 -88q31 -24 73.5 -17t81 28t60.5 45q7 8 11 22.5t4 25.5l1 10q-31 -50 -103.5 -82.5t-90.5 -1.5q-19 31 10 94.5t73 110.5zM1282 94q-16 0 -28 10
q-9 8 -9 25q0 15 6 27t17 19t27 7q17 0 27 -9t10 -25q0 -15 -6 -27t-17 -19q-13 -8 -27 -8zM1733 94q-15 0 -27 10q-10 9 -10 25q0 15 6 27q6 11 18 19q11 7 26 7q18 0 28 -9t10 -25q0 -13 -7 -27q-6 -12 -17 -19q-13 -8 -27 -8zM717 102q-10 -6 -28 -6h-31l17 85h27
q18 0 29 -9q10 -9 10 -24t-6 -27q-6 -11 -18 -19zM511 0l56 282h1728l-56 -282h-1728zM2066 207l-5 -26h44l-22 -111h32l22 111h44l5 26h-120zM1888 207l-27 -137h31l17 86l51 -86h27l27 137h-31l-17 -86l-52 86h-26zM1674 169q-10 -19 -10 -42q0 -17 8 -31q7 -13 23 -21
t36 -8q24 0 44 11q18 10 30 30q11 20 11 42q0 17 -8 31q-7 13 -23 21q-14 7 -36 7q-25 0 -44 -10q-20 -11 -31 -30zM1528 207l-28 -137h32l10 50h63l6 25h-64l7 36h72l5 26h-103zM1223 169q-11 -20 -11 -42q0 -17 8 -31q7 -12 24 -21q16 -8 35 -8q25 0 45 11q18 10 30 30
q10 19 10 42q0 17 -8 31q-7 13 -23 21q-14 7 -36 7q-25 0 -44 -10q-18 -10 -30 -30zM1013 207l-28 -137h30l17 82l28 -68h14l52 67l-16 -81h30l27 137h-27l-67 -86l-34 86h-26zM846 207l-28 -137h107l5 25h-75l6 32h64l5 25h-64l6 29h72l6 26h-104zM648 207l-27 -137h67
q27 0 44 9q21 11 31 29q10 17 10 42q0 16 -8 30q-7 12 -23 20q-14 7 -36 7h-58z" />
    <glyph glyph-name="quotesingle" unicode="'" 
d="M1703 583q39 56 129 98q-31 -85 -53 -125.5t-48 -49.5q-41 -14 -48.5 11.5t20.5 65.5zM751 875q3 -45 27 -83.5t61 -51.5q-17 -61 -39 -79.5t-50 -10.5q-24 7 -24.5 72.5t14.5 116.5q3 12 11 36zM795 905q34 52 48 -21q11 -61 4 -112l-1 -5v-1q-34 18 -52 62t1 77z
M2704 921q3 -46 -19 -87q10 -17 10 -33q0 -64 -31 -98q-33 -37 -91 -65.5t-113 -28.5t-94 31q-17 13 -32 33q-62 -69 -146 -69q-33 0 -63 10l-3 -9q-44 -150 -42 -171q10 -43 -26 -66q-15 -9 -32 -9q-22 0 -40 16q-37 37 -54 65q-24 -37 -61 -64q-62 -44 -118 -44
q-21 0 -41 10t-32 21t-30 31q-23 25 -44 65q-15 30 -12 66l-6 6q-24 -11 -48 -11q-68 0 -113 73q-7 10 -12 25l-8 8l-7 -44q-2 -34 -30 -50q-14 -8 -30 -8q-15 0 -29 8q-8 4 -21 14q-7 -4 -14 -5q-6 -2 -22 -2q-65 0 -100 53q-40 -46 -82 -49h-14q-64 0 -97 45
q-62 -87 -150 -87q-62 0 -110 46q2 -34 5 -50q6 -39 -28 -61q-15 -9 -32 -9q-18 0 -34 11q-6 4 -17 13.5t-34.5 38t-42.5 61.5q-20 23 -36 50q-8 -79 10 -113q16 -31 -1 -59q-18 -30 -51 -30h-1q-65 0 -111 54q-73 87 -83 160q-16 -11 -34 -11q-12 0 -21 4q-44 17 -65 58
t-18 69l3.5 17.5t14 34.5t31 47.5t56 45.5t86.5 39q30 107 52 161.5t32 65t27 16.5q11 4 25 4q50 0 122 -74q3 -3 7 -9q37 85 94 177q36 58 108 58q55 0 97 -25q14 -8 44.5 -53.5t31.5 -61.5q2 -34 -27 -53q-19 -12 -36 -35q41 -22 72 -61q10 -13 12 -31q1 -1 4 -3
q19 31 39 50q43 41 106 41q71 0 105 -47q22 2 29 2q41 126 111 241q36 58 108 58q35 0 97 -25q31 -17 33 -51l-1 -1v-2q61 4 233 4h102q17 0 33.5 1.5t29.5 3.5t25 4t21 4.5t15.5 4.5t10.5 3l3 1q9 4 22 4q25 0 43 -18q8 -8 26 -36t18 -29q24 -35 12 -65q-7 -15 -15 -29
q44 -8 53 -45q2 -8 2 -14q24 3 25 3q50 0 84 -36q24 29 50 47q58 43 123 43q52 0 89 -23t73 -72q37 -43 40 -94zM598 552q-14 83 5.5 195.5t57 211t84 176.5t85.5 103q-10 5 -26 11.5t-50 5t-50 -27.5q-66 -107 -106 -207.5t-49.5 -172.5t-10 -111.5t4.5 -65.5
q-24 41 -36 95.5t-12.5 102t2.5 89.5t7 67l5 24l-7 7t-16 14.5t-22 18.5t-21 13t-17 3q-21 -7 -83 -237q-47 -10 -83 -27.5t-54 -36.5t-29 -36.5t-13 -28.5l-2 -11q27 40 162 68q-14 -54 -21 -99q-7 -51 -1.5 -83.5t20.5 -50.5t30 -26.5t27 -9.5l12 -2q-20 36 -20.5 96
t12.5 120t29 114.5t30 89.5l13 34q3 -120 24 -218q9 -41 24.5 -77.5t31 -59.5t30.5 -40t24 -24zM1144 716q7 -28 25 -41t33 -12l14 1q-3 3 -6.5 11t-9.5 40.5t4 79.5q6 39 17 85t19 72l8 27q-67 3 -84 -28q-29 -53 -51.5 -106t-46.5 -89q-36 -54 -52 -39q-13 11 2.5 67
t42.5 111q32 63 50 79t55 5q9 24 -24 38q-42 18 -84 -5l-17 -13q-24 -23 -47.5 -74t-35.5 -106q-22 -42 -55 -56q14 61 13 93q-3 76 -28.5 103.5t-66.5 22.5q32 22 76 9q-2 3 -6 7.5t-17.5 17.5t-26.5 19t-33.5 11.5t-37.5 -3.5q-31 -11 -64 -74.5t-48.5 -139.5t-1.5 -119
q15 -45 49 -68.5t77.5 -13t78.5 59.5q17 24 27 48q29 6 57 34q-3 -31 1 -52q9 -54 70 -50q26 2 62.5 58t59.5 111l24 55q-2 -5 -4 -12.5t-8 -31.5t-8.5 -43t-5 -46.5t3.5 -42.5zM1516 652l-5 5t-9.5 16t-10 28t-3 41.5t7.5 56.5q11 45 25.5 87.5t22.5 62.5l9 20l-57 27
q-9 5 -19 -2q-103 -73 -168 -189q33 145 99 283t119 172q-4 2 -10 4.5t-24 7.5t-33 5.5t-32.5 -6.5t-27.5 -23q-92 -150 -135 -337q-12 -51 -20.5 -113.5t-6.5 -82.5q2 -17 15.5 -33.5t26.5 -24.5l12 -8q0 11 2.5 29.5t18.5 66.5t44 84q32 41 59 69.5t38 36.5l11 8
q-3 -7 -8 -20t-16.5 -48.5t-18 -66t-6 -65t12.5 -53.5q19 -31 41 -40.5t34 -3.5zM1636 595q-13 22 -14 60.5t9.5 87t26 99t37 106t40 99t38.5 85.5q171 3 187 4q37 3 67.5 26.5t42.5 45.5l11 21q-64 -25 -159 -26h-97.5t-109 -0.5t-87.5 -2.5t-72 -5q-39 -5 -68.5 -31
t-39.5 -50l-11 -23q8 11 50 20t83 12q47 3 111 4q-2 -6 -53 -141.5t-70 -214.5q-8 -38 -3.5 -67.5t18 -50t27.5 -33.5t25 -19zM2273 817q22 37 30 65.5t6 43t-10 32.5q-23 55 -88 31q-31 -12 -62.5 -40t-47.5 -50l-16 -22q72 174 75 176l-25 1q-57 -3 -73 -33
q-35 -98 -76 -213q-1 -4 -3.5 -11t-3.5 -10q-50 -29 -63 -35q14 47 40 115.5t44 113.5l19 45q-69 -3 -91 -28q-5 -6 -43.5 -62t-72.5 -95.5t-47 -30.5t40 106t62 106q-10 0 -25 -1.5t-45 -13.5t-41 -33q-13 -24 -21 -40t-18 -38.5t-15.5 -38t-9.5 -32t-3 -28t7 -19.5
q10 -12 32.5 -13t52 14t52.5 44l86 115q-41 -127 -73 -218q-17 -11 -49.5 -29.5t-45 -27t-32.5 -26.5t-38 -42q-26 -34 -30 -67.5t10.5 -53t49 -17.5t77.5 33q28 20 50.5 58t33 67t35.5 105q46 28 60 34q-35 -98 -46 -151q-7 -24 7.5 -53.5t31.5 -47.5l18 -18q-9 31 42 203
q27 90 70 163q29 50 80 86.5t66 24.5q7 -8 1.5 -37.5t-18.5 -55.5q-16 -32 -38 -55.5t-42 -34t-38 -16.5t-29 -6l-10 -1q5 -4 13.5 -9t34 -12.5t50 -5t56.5 24t57 64.5zM2480 987q36 39 65 29q23 -8 13 -37q-8 -19 -31 -40q-17 -15 -39 -20t-36 -2l-14 3q2 -5 6 -12
t21.5 -18.5t40.5 -10.5q48 3 71.5 33t21.5 70q-2 25 -29 45.5t-68 22.5t-88 -31q-41 -30 -69.5 -77.5t-28 -101.5t43.5 -88q31 -24 73.5 -17t81 28t60.5 45q7 8 11 22.5t4 25.5l1 10q-31 -50 -103.5 -82.5t-90.5 -1.5q-19 31 10 94.5t73 110.5zM1282 94q-16 0 -28 10
q-9 8 -9 25q0 15 6 27t17 19t27 7q17 0 27 -9t10 -25q0 -15 -6 -27t-17 -19q-13 -8 -27 -8zM1734 94q-16 0 -28 10q-10 9 -10 25q0 15 6 27q6 11 18 19q11 7 26 7q18 0 28 -9t10 -25q0 -13 -7 -27q-6 -12 -17 -19q-13 -8 -26 -8zM717 102q-10 -6 -28 -6h-31l17 85h27
q18 0 29 -9q10 -9 10 -24t-6 -27q-6 -11 -18 -19zM511 0l56 282h1728l-56 -282h-1728zM2066 207l-5 -26h44l-22 -111h32l22 111h44l5 26h-120zM1888 207l-27 -137h31l17 86l51 -86h27l27 137h-31l-17 -86l-52 86h-26zM1674 169q-10 -19 -10 -42q0 -17 8 -31q7 -13 23 -21
t36 -8q24 0 44 11q19 10 30 29q11 20 11 43q0 17 -8 31q-7 13 -23 21q-14 7 -36 7q-25 0 -44 -10q-20 -11 -31 -30zM1528 207l-28 -137h32l10 50h64l5 25h-64l7 36h72l5 26h-103zM1223 169q-11 -20 -11 -42q0 -17 8 -31q7 -12 24 -21q16 -8 35 -8q25 0 45 11q18 10 30 30
q10 19 10 42q0 17 -8 31q-7 13 -23 21q-14 7 -36 7q-25 0 -44 -10q-18 -10 -30 -30zM1013 207l-28 -137h30l17 82l28 -68h14l52 67l-16 -81h30l27 137h-27l-67 -86l-34 86h-26zM846 207l-28 -137h107l5 25h-75l6 32h64l5 25h-64l6 29h72l6 26h-104zM648 207l-27 -137h67
q27 0 44 9q21 11 31 29q10 17 10 42q0 16 -8 30q-7 12 -23 20q-14 7 -36 7h-58z" />
    <glyph glyph-name="parenleft" unicode="(" 
d="M1703 583q39 56 129 98q-31 -85 -53 -125.5t-48 -49.5q-41 -14 -48.5 11.5t20.5 65.5zM751 875q3 -45 27 -83.5t61 -51.5q-17 -61 -39 -79.5t-50 -10.5q-24 7 -24.5 72.5t14.5 116.5q3 12 11 36zM795 905q34 52 48 -21q11 -61 4 -112l-1 -5v-1q-34 18 -52 62t1 77z
M2704 921q3 -46 -19 -87q10 -17 10 -33q0 -64 -31 -98q-33 -37 -91 -65.5t-113 -28.5t-94 31q-17 13 -32 33q-62 -69 -146 -69q-33 0 -63 10l-3 -9q-44 -150 -42 -171q10 -43 -26 -66q-15 -9 -32 -9q-22 0 -40 16q-37 37 -54 65q-24 -37 -61 -64q-62 -44 -118 -44
q-21 0 -41 10t-32 21t-30 31q-23 25 -44 65q-15 30 -12 66l-6 6q-24 -11 -48 -11q-68 0 -113 73q-7 10 -12 25l-8 8l-7 -44q-2 -34 -30 -50q-14 -8 -30 -8q-15 0 -29 8q-8 4 -21 14q-7 -4 -14 -5q-6 -2 -22 -2q-65 0 -100 53q-40 -46 -82 -49h-14q-64 0 -97 45
q-62 -87 -149 -87q-63 0 -111 46q2 -34 5 -50q6 -39 -28 -61q-15 -9 -32 -9q-18 0 -34 11q-6 4 -17 13.5t-34.5 38t-42.5 61.5q-20 23 -36 50q-8 -79 10 -113q16 -31 -1 -59q-18 -30 -51 -30h-1q-65 0 -111 54q-73 87 -83 160q-16 -11 -34 -11q-12 0 -21 4q-44 17 -65 58
t-18 69l3.5 17.5t14 34.5t31 47.5t56 45.5t86.5 39q30 107 52 161.5t32 65t27 16.5q11 4 25 4q50 0 122 -74q3 -3 7 -9q37 85 94 177q36 58 108 58q55 0 97 -25q14 -8 44.5 -53.5t31.5 -61.5q2 -34 -27 -53q-14 -9 -35 -35q39 -21 71 -61q10 -13 12 -31q1 -1 4 -3
q19 31 39 50q43 41 106 41q71 0 105 -47q22 2 29 2q41 126 111 241q36 58 108 58q35 0 97 -25q31 -17 33 -51l-1 -1v-2q61 4 233 4h102q17 0 33.5 1.5t29.5 3.5t25 4t21 4.5t15.5 4.5t10.5 3l3 1q9 4 22 4q25 0 43 -18q8 -8 26 -36t18 -29q24 -35 12 -65q-7 -15 -15 -29
q44 -8 53 -45q2 -8 2 -14q24 3 25 3q50 0 84 -36q24 29 50 47q58 43 122 43q53 0 90.5 -23t72.5 -72q37 -43 40 -94zM598 552q-14 83 5.5 195.5t57 211t84 176.5t85.5 103q-10 5 -26 11.5t-50 5t-50 -27.5q-66 -107 -106 -207.5t-49.5 -172.5t-10 -111.5t4.5 -65.5
q-24 41 -36 95.5t-12.5 102t2.5 89.5t7 67l5 24l-7 7t-16 14.5t-22 18.5t-21 13t-17 3q-21 -7 -83 -237q-47 -10 -83 -27.5t-54 -36.5t-29 -36.5t-13 -28.5l-2 -11q27 40 162 68q-14 -54 -21 -99q-7 -51 -1.5 -83.5t20.5 -50.5t30 -26.5t27 -9.5l12 -2q-20 36 -20.5 96
t12.5 120t29 114.5t30 89.5l13 34q3 -120 24 -218q9 -41 24.5 -77.5t31 -59.5t30.5 -40t24 -24zM1144 716q7 -28 25 -41t33 -12l14 1q-3 3 -6.5 11t-9.5 40.5t4 79.5q6 39 17 85t19 72l8 27q-67 3 -84 -28q-29 -53 -51.5 -106t-46.5 -89q-36 -54 -52 -39q-13 11 2.5 67
t42.5 111q32 63 50 79t55 5q9 24 -24 38q-42 18 -84 -5l-17 -13q-24 -23 -47.5 -74t-35.5 -106q-22 -42 -55 -56q14 61 13 93q-3 76 -28.5 103.5t-66.5 22.5q32 22 76 9q-2 3 -6 7.5t-17.5 17.5t-26.5 19t-33.5 11.5t-37.5 -3.5q-31 -11 -64 -74.5t-48.5 -139.5t-1.5 -119
q15 -45 49 -68.5t77.5 -13t78.5 59.5q17 24 27 48q29 6 57 34q-3 -31 1 -52q9 -54 70 -50q26 2 62.5 58t59.5 111l24 55q-2 -5 -4 -12.5t-8 -31.5t-8.5 -43t-5 -46.5t3.5 -42.5zM1516 652l-5 5t-9.5 16t-10 28t-3 41.5t7.5 56.5q11 45 25 87.5t23 62.5l8 20l-56 27
q-10 5 -20 -2q-19 -14 -42.5 -34.5t-61 -64t-63.5 -90.5q33 145 99 283t119 172q-4 2 -10 4.5t-24 7.5t-33 5.5t-32.5 -6.5t-27.5 -23q-92 -150 -135 -337q-12 -51 -20.5 -113.5t-6.5 -82.5q2 -17 15.5 -33.5t26.5 -24.5l12 -8q0 11 2.5 29.5t18.5 66.5t44 84q32 41 59 69.5
t38 36.5l11 8q-3 -7 -8 -20t-16.5 -48.5t-18 -66t-6 -65t12.5 -53.5q19 -31 41 -40.5t34 -3.5zM1636 595q-13 22 -14 60.5t9.5 87t26 99t37 106t40 99t38.5 85.5q171 3 187 4q37 3 67.5 26.5t42.5 45.5l11 21q-64 -25 -159 -26h-97.5t-109 -0.5t-87.5 -2.5t-72 -5
q-39 -5 -68.5 -31t-39.5 -50l-11 -23q8 11 50 20t83 12q47 3 111 4q-2 -7 -53 -142t-70 -214q-8 -38 -3.5 -67.5t18 -50t27.5 -33.5t25 -19zM2273 817q22 37 30 65.5t6 43t-10 32.5q-23 55 -88 31q-31 -12 -62.5 -40t-47.5 -50l-16 -22q72 174 75 176l-25 1q-57 -3 -73 -33
q-35 -98 -76 -213q-1 -4 -3.5 -11t-3.5 -10q-50 -29 -63 -35q14 47 39.5 115.5t44.5 113.5l18 45q-68 -3 -90 -28q-5 -6 -43.5 -62t-72.5 -95.5t-47 -30.5t40 106t62 106q-10 0 -25 -1.5t-45 -13.5t-41 -33q-13 -24 -21 -40t-18 -38.5t-15.5 -38t-9.5 -32t-3 -28t7 -19.5
q10 -12 32.5 -13t51.5 14t52 44l87 115q-41 -127 -73 -218q-17 -11 -49.5 -29.5t-45 -27t-32.5 -26.5t-38 -42q-26 -34 -30 -67.5t10.5 -53t49 -17.5t77.5 33q28 20 50.5 58t33 67t35.5 105q46 28 60 34q-35 -98 -46 -151q-7 -24 7.5 -53.5t31.5 -47.5l18 -18q-9 31 42 203
q27 90 70 163q29 50 80 86.5t66 24.5q7 -8 1.5 -37.5t-18.5 -55.5q-16 -32 -38 -55.5t-42 -34t-38 -16.5t-29 -6l-10 -1q5 -4 13.5 -9t34 -12.5t50 -5t56.5 24t57 64.5zM2480 987q36 39 65 29q23 -8 13 -37q-8 -19 -31 -40q-17 -15 -39 -20t-36 -2l-14 3q2 -5 6 -12
t21.5 -18.5t40.5 -10.5q48 3 71.5 33t21.5 70q-2 25 -29 45.5t-68 22.5t-88 -31q-41 -30 -69.5 -77.5t-28 -101.5t43.5 -88q31 -24 73.5 -17t81 28t60.5 45q7 8 11 22.5t4 25.5l1 10q-31 -50 -103.5 -82.5t-90.5 -1.5q-19 31 10 94.5t73 110.5zM1282 94q-16 0 -28 10
q-9 8 -9 25q0 15 6 27t17 19t27 7q17 0 27 -9t10 -25q0 -15 -6 -27t-17 -19q-13 -8 -27 -8zM1733 94q-15 0 -27 10q-10 9 -10 25q0 15 6 27q6 11 18 19q11 7 26 7q18 0 28 -9t10 -25q0 -13 -7 -27q-6 -12 -17 -19q-13 -8 -27 -8zM717 102q-10 -6 -28 -6h-31l17 85h27
q18 0 29 -9q10 -9 10 -24t-6 -27q-6 -11 -18 -19zM511 0l56 282h1728l-56 -282h-1728zM2066 207l-5 -26h44l-22 -111h32l22 111h44l5 26h-120zM1888 207l-28 -137h32l17 86l51 -86h27l27 137h-31l-17 -86l-52 86h-26zM1674 169q-10 -19 -10 -42q0 -17 8 -31q7 -13 23 -21
t36 -8q24 0 44 11q18 10 30 30q11 20 11 42q0 17 -8 31q-7 13 -23 21q-14 7 -36 7q-25 0 -44 -10q-20 -11 -31 -30zM1528 207l-28 -137h32l10 50h63l6 25h-64l7 36h72l5 26h-103zM1223 169q-11 -20 -11 -42q0 -17 8 -31q7 -12 24 -21q16 -8 35 -8q25 0 45 11q18 10 30 30
q10 19 10 42q0 17 -8 31q-7 13 -23 21q-14 7 -36 7q-25 0 -44 -10q-18 -10 -30 -30zM1013 207l-28 -137h30l17 82l28 -68h14l52 67l-16 -81h30l27 137h-27l-67 -86l-34 86h-26zM846 207l-28 -137h107l5 25h-75l6 32h64l5 25h-64l6 29h72l6 26h-104zM648 207l-27 -137h67
q27 0 44 9q21 11 31 29q10 17 10 42q0 16 -8 30q-7 12 -23 20q-14 7 -36 7h-58z" />
    <glyph glyph-name="parenright" unicode=")" 
d="M1703 583q39 56 129 98q-31 -85 -53 -125.5t-48 -49.5q-41 -14 -48.5 11.5t20.5 65.5zM751 875q3 -45 27 -83.5t61 -51.5q-17 -61 -39 -79.5t-50 -10.5q-24 7 -24.5 72.5t14.5 116.5q3 12 11 36zM795 905q34 52 48 -21q11 -61 4 -112l-1 -5v-1q-34 18 -52 62t1 77z
M2704 921q3 -46 -19 -87q10 -17 10 -33q0 -64 -31 -98q-33 -37 -91 -65.5t-113 -28.5t-94 31q-17 13 -32 33q-62 -69 -145 -69q-34 0 -64 10l-3 -9q-44 -150 -42 -171q10 -43 -26 -66q-15 -9 -32 -9q-22 0 -40 16q-37 37 -54 65q-24 -37 -61 -64q-62 -44 -118 -44
q-21 0 -41 10t-32 21t-30 31q-23 25 -44 65q-15 30 -12 66l-6 6q-24 -11 -48 -11q-68 0 -113 73q-7 10 -12 25l-8 8l-7 -44q-2 -34 -30 -50q-14 -8 -30 -8q-15 0 -29 8q-8 4 -21 14q-7 -4 -14 -5q-6 -2 -22 -2q-65 0 -100 53q-40 -46 -82 -49h-14q-64 0 -97 45
q-62 -87 -149 -87q-63 0 -111 46q2 -34 5 -50q6 -39 -28 -61q-15 -9 -32 -9q-18 0 -34 11q-6 4 -17 13.5t-34.5 38t-42.5 61.5q-20 23 -36 50q-8 -79 10 -113q16 -31 -1 -59q-18 -30 -51 -30h-1q-65 0 -111 54q-73 87 -83 160q-16 -11 -34 -11q-12 0 -21 4q-44 17 -65 58
t-18 69l3.5 17.5t14 34.5t31 47.5t56 45.5t86.5 39q30 107 52 161.5t32 65t27 16.5q11 4 25 4q50 0 122 -74q3 -3 7 -9q37 85 94 177q36 58 108 58q55 0 97 -25q14 -8 44.5 -53.5t31.5 -61.5q2 -34 -27 -53q-16 -10 -36 -35q41 -22 72 -61q10 -13 12 -31q1 -1 4 -3
q19 31 39 50q43 41 106 41q71 0 105 -47q22 2 29 2q41 126 111 241q36 58 108 58q35 0 97 -25q31 -17 33 -51l-1 -1v-2q61 4 233 4h102q17 0 33.5 1.5t29.5 3.5t25 4t21 4.5t15.5 4.5t10.5 3l3 1q9 4 22 4q25 0 43 -18q8 -8 26 -36t18 -29q24 -35 12 -65q-7 -15 -15 -29
q44 -8 53 -45q2 -8 2 -14q24 3 25 3q50 0 84 -36q24 29 50 47q58 43 123 43q52 0 89 -23t73 -72q37 -43 40 -94zM598 552q-14 83 5.5 195.5t57 211t84 176.5t85.5 103q-10 5 -26 11.5t-50 5t-50 -27.5q-66 -107 -106 -207.5t-49.5 -172.5t-10 -111.5t4.5 -65.5
q-24 41 -36 95.5t-12.5 102t2.5 89.5t7 67l5 24l-7 7t-16 14.5t-22 18.5t-21 13t-17 3q-21 -7 -83 -237q-47 -10 -83 -27.5t-54 -36.5t-29 -36.5t-13 -28.5l-2 -11q27 40 162 68q-14 -54 -21 -99q-7 -51 -1.5 -83.5t20.5 -50.5t30 -26.5t27 -9.5l12 -2q-20 36 -20.5 96
t12.5 120t29 114.5t30 89.5l13 34q3 -120 24 -218q9 -41 24.5 -77.5t31 -59.5t30.5 -40t24 -24zM1144 716q7 -28 25 -41t33 -12l14 1q-3 3 -6.5 11t-9.5 40.5t4 79.5q6 39 17 85t19 72l8 27q-67 3 -84 -28q-29 -53 -51.5 -106t-46.5 -89q-36 -54 -52 -39q-13 11 2.5 67
t42.5 111q32 63 50 79t55 5q9 24 -24 38q-42 18 -84 -5l-17 -13q-24 -23 -47.5 -74t-35.5 -106q-22 -42 -55 -56q14 61 13 93q-3 76 -28.5 103.5t-66.5 22.5q32 22 76 9q-2 3 -6 7.5t-17.5 17.5t-26.5 19t-33.5 11.5t-37.5 -3.5q-31 -11 -64 -74.5t-48.5 -139.5t-1.5 -119
q15 -45 49 -68.5t77.5 -13t78.5 59.5q17 24 27 48q29 6 57 34q-3 -31 1 -52q9 -54 70 -50q26 2 62.5 58t59.5 111l24 55q-2 -5 -4 -12.5t-8 -31.5t-8.5 -43t-5 -46.5t3.5 -42.5zM1516 652l-5 5t-9.5 16t-10 28t-3 41.5t7.5 56.5q11 45 25.5 87.5t22.5 62.5l9 20l-57 27
q-9 5 -19 -2q-103 -73 -168 -189q33 145 99 283t119 172q-4 2 -10 4.5t-24 7.5t-33 5.5t-32.5 -6.5t-27.5 -23q-92 -150 -135 -337q-12 -51 -20.5 -113.5t-6.5 -82.5q2 -17 15.5 -33.5t26.5 -24.5l12 -8q0 11 2.5 29.5t18.5 66.5t44 84q32 41 59 69.5t38 36.5l11 8
q-3 -7 -8 -20t-16.5 -48.5t-18 -66t-6 -65t12.5 -53.5q19 -31 41 -40.5t34 -3.5zM1636 595q-13 22 -14 60.5t9.5 87t26 99t37 106t40 99t38.5 85.5q171 3 187 4q37 3 67.5 26.5t42.5 45.5l11 21q-64 -25 -159 -26h-97.5t-109 -0.5t-87.5 -2.5t-72 -5q-39 -5 -68.5 -31
t-39.5 -50l-11 -23q8 11 50 20t83 12q47 3 111 4q-2 -6 -53 -141.5t-70 -214.5q-8 -38 -3.5 -67.5t18 -50t27.5 -33.5t25 -19zM2273 817q22 37 30 65.5t6 43t-10 32.5q-23 55 -88 31q-31 -12 -62.5 -40t-47.5 -50l-16 -22q72 174 75 176l-25 1q-57 -3 -73 -33
q-35 -98 -76 -213q-1 -4 -3.5 -11t-3.5 -10q-50 -29 -63 -35q14 47 40 115.5t44 113.5l19 45q-69 -3 -91 -28q-5 -6 -43.5 -62t-72.5 -95.5t-47 -30.5t40 106t62 106q-10 0 -25 -1.5t-45 -13.5t-41 -33q-13 -24 -21 -40t-18 -38.5t-15.5 -38t-9.5 -32t-3 -28t7 -19.5
q10 -12 32.5 -13t52 14t52.5 44l86 115q-41 -127 -73 -218q-17 -11 -49.5 -29.5t-45 -27t-32.5 -26.5t-38 -42q-26 -34 -30 -67.5t10.5 -53t49 -17.5t77.5 33q28 20 50.5 58t33 67t35.5 105q46 28 60 34q-35 -98 -46 -151q-7 -24 7.5 -53.5t31.5 -47.5l18 -18q-9 31 42 203
q27 90 70 163q29 50 80 86.5t66 24.5q7 -8 1.5 -37.5t-18.5 -55.5q-16 -32 -38 -55.5t-42 -34t-38 -16.5t-29 -6l-10 -1q5 -4 13.5 -9t34 -12.5t50 -5t56.5 24t57 64.5zM2480 987q36 39 65 29q23 -8 13 -37q-8 -19 -31 -40q-17 -15 -39 -20t-36 -2l-14 3q2 -5 6 -12
t21.5 -18.5t40.5 -10.5q48 3 71.5 33t21.5 70q-2 25 -29 45.5t-68 22.5t-88 -31q-41 -30 -69.5 -77.5t-28 -101.5t43.5 -88q31 -24 73.5 -17t81 28t60.5 45q7 8 11 22.5t4 25.5l1 10q-31 -50 -103.5 -82.5t-90.5 -1.5q-19 31 10 94.5t73 110.5zM1282 94q-16 0 -28 10
q-9 8 -9 25q0 15 6 27t17 19t27 7q17 0 27 -9t10 -25q0 -15 -6 -27t-17 -19q-13 -8 -27 -8zM1734 94q-16 0 -28 10q-10 9 -10 25q0 15 6 27q6 11 18 19q11 7 26 7q18 0 28 -9t10 -25q0 -13 -7 -27q-6 -12 -17 -19q-13 -8 -26 -8zM717 102q-10 -6 -28 -6h-31l17 85h27
q18 0 29 -9q10 -9 10 -24t-6 -27q-6 -11 -18 -19zM511 0l56 282h1728l-56 -282h-1728zM2067 207l-6 -26h44l-22 -111h32l22 111h44l5 26h-119zM1888 207l-27 -137h31l17 86l51 -86h27l27 137h-31l-17 -86l-52 86h-26zM1675 169q-11 -20 -11 -42q0 -17 8 -31q7 -13 23 -21
t36 -8q24 0 44 11q19 10 30 29q11 20 11 43q0 17 -8 31q-7 13 -23 21q-14 7 -36 7q-25 0 -44 -10q-18 -10 -30 -30zM1528 207l-28 -137h32l10 50h64l5 25h-64l7 36h72l5 26h-103zM1223 169q-11 -20 -11 -42q0 -15 9 -31q7 -13 23 -21t35 -8q25 0 45 11q18 10 30 30
q10 19 10 42q0 17 -8 31q-7 13 -23 21q-14 7 -36 7q-25 0 -44 -10q-18 -10 -30 -30zM1013 207l-28 -137h30l17 82l28 -68h14l52 67l-16 -81h30l27 137h-27l-67 -86l-34 86h-26zM846 207l-28 -137h107l5 25h-75l6 32h64l5 25h-64l6 29h72l6 26h-104zM648 207l-27 -137h67
q28 0 45 9q19 10 30 29q10 17 10 42q0 16 -8 30q-7 12 -23 20q-14 7 -36 7h-58z" />
    <glyph glyph-name="asterisk" unicode="*" 
d="M1703 583q39 56 129 98q-31 -85 -53 -125.5t-48 -49.5q-41 -14 -48.5 11.5t20.5 65.5zM751 875q3 -45 27 -83.5t61 -51.5q-17 -61 -39 -79.5t-50 -10.5q-24 7 -24.5 72.5t14.5 116.5q3 12 11 36zM795 905q34 52 48 -21q11 -61 4 -112l-1 -5v-1q-34 18 -52 62t1 77z
M2704 921q3 -46 -19 -87q10 -17 10 -33q0 -64 -31 -98q-33 -37 -91 -65.5t-113 -28.5t-94 31q-17 13 -32 33q-62 -69 -146 -69q-33 0 -63 10l-3 -9q-44 -150 -42 -171q10 -43 -26 -66q-15 -9 -32 -9q-22 0 -40 16q-37 37 -54 65q-24 -37 -61 -64q-62 -44 -118 -44
q-21 0 -41 10t-32 21t-30 31q-23 25 -44 65q-15 30 -12 66l-6 6q-24 -11 -48 -11q-68 0 -113 73q-7 10 -12 25l-8 8l-7 -44q-2 -34 -30 -50q-14 -8 -30 -8q-15 0 -29 8q-8 4 -21 14q-7 -4 -14 -5q-6 -2 -22 -2q-65 0 -100 53q-40 -46 -82 -49h-14q-64 0 -97 45
q-62 -87 -149 -87q-63 0 -111 46q2 -34 5 -50q6 -39 -28 -61q-15 -9 -32 -9q-18 0 -34 11q-6 4 -17 13.5t-34.5 38t-42.5 61.5q-20 23 -36 50q-8 -79 10 -113q16 -31 -1 -59q-18 -30 -51 -30h-1q-65 0 -111 54q-73 87 -83 160q-16 -11 -34 -11q-12 0 -21 4q-44 17 -65 58
t-18 69l3.5 17.5t14 34.5t31 47.5t56 45.5t86.5 39q30 107 52 161.5t32 65t27 16.5q11 4 25 4q50 0 122 -74q3 -3 7 -9q37 85 94 177q36 58 108 58q55 0 97 -25q14 -8 44.5 -53.5t31.5 -61.5q2 -34 -27 -53q-16 -10 -36 -35q41 -22 72 -61q10 -13 12 -31q1 -1 4 -3
q19 31 39 50q43 41 106 41q71 0 105 -47q22 2 29 2q41 126 111 241q36 58 108 58q35 0 97 -25q31 -17 33 -51l-1 -1v-2q61 4 233 4h102q17 0 33.5 1.5t29.5 3.5t25 4t21 4.5t15.5 4.5t10.5 3l3 1q9 4 22 4q25 0 43 -18q8 -8 26 -36t18 -29q24 -35 12 -65q-7 -15 -15 -29
q44 -8 53 -45q2 -8 2 -14q24 3 25 3q50 0 84 -36q24 29 50 47q58 43 123 43q52 0 89 -23t73 -72q37 -43 40 -94zM598 552q-14 83 5.5 195.5t57 211t84 176.5t85.5 103q-10 5 -26 11.5t-50 5t-50 -27.5q-66 -107 -106 -207.5t-49.5 -172.5t-10 -111.5t4.5 -65.5
q-24 41 -36 95.5t-12.5 102t2.5 89.5t7 67l5 24l-7 7t-16 14.5t-22 18.5t-21 13t-17 3q-21 -7 -83 -237q-47 -10 -83 -27.5t-54 -36.5t-29 -36.5t-13 -28.5l-2 -11q27 40 162 68q-14 -54 -21 -99q-7 -51 -1.5 -83.5t20.5 -50.5t30 -26.5t27 -9.5l12 -2q-20 36 -20.5 96
t12.5 120t29 114.5t30 89.5l13 34q3 -120 24 -218q9 -41 24.5 -77.5t31 -59.5t30.5 -40t24 -24zM1144 716q7 -28 25 -41t33 -12l14 1q-3 3 -6.5 11t-9.5 40.5t4 79.5q6 39 17 85t19 72l8 27q-67 3 -84 -28q-29 -53 -51.5 -106t-46.5 -89q-36 -54 -52 -39q-13 11 2.5 67
t42.5 111q32 63 50 79t55 5q9 24 -24 38q-42 18 -84 -5l-17 -13q-24 -23 -47.5 -74t-35.5 -106q-22 -42 -55 -56q14 61 13 93q-3 76 -28.5 103.5t-66.5 22.5q32 22 76 9q-2 3 -6 7.5t-17.5 17.5t-26.5 19t-33.5 11.5t-37.5 -3.5q-31 -11 -64 -74.5t-48.5 -139.5t-1.5 -119
q15 -45 49 -68.5t77.5 -13t78.5 59.5q17 24 27 48q29 6 57 34q-3 -31 1 -52q9 -54 70 -50q26 2 62.5 58t59.5 111l24 55q-2 -5 -4 -12.5t-8 -31.5t-8.5 -43t-5 -46.5t3.5 -42.5zM1516 652l-5 5t-9.5 16t-10 28t-3 41.5t7.5 56.5q11 45 25.5 87.5t22.5 62.5l9 20l-57 27
q-9 5 -19 -2q-103 -73 -168 -189q33 145 99 283t119 172q-4 2 -10 4.5t-24 7.5t-33 5.5t-32.5 -6.5t-27.5 -23q-92 -150 -135 -337q-12 -51 -20.5 -113.5t-6.5 -82.5q2 -17 15.5 -33.5t26.5 -24.5l12 -8q0 11 2.5 29.5t18.5 66.5t44 84q32 41 59 69.5t38 36.5l11 8
q-3 -7 -8 -20t-16.5 -48.5t-18 -66t-6 -65t12.5 -53.5q19 -31 41 -40.5t34 -3.5zM1636 595q-13 22 -14 60.5t9.5 87t26 99t37 106t40 99t38.5 85.5q171 3 187 4q37 3 67.5 26.5t42.5 45.5l11 21q-64 -25 -159 -26h-97.5t-109 -0.5t-87.5 -2.5t-72 -5q-39 -5 -68.5 -31
t-39.5 -50l-11 -23q8 11 50 20t83 12q47 3 111 4q-2 -6 -53 -141.5t-70 -214.5q-8 -38 -3.5 -67.5t18 -50t27.5 -33.5t25 -19zM2273 817q22 37 30 65.5t6 43t-10 32.5q-23 55 -88 31q-31 -12 -62.5 -40t-47.5 -50l-16 -22q72 174 75 176l-25 1q-57 -3 -73 -33
q-35 -98 -76 -213q-1 -4 -3.5 -11t-3.5 -10q-50 -29 -63 -35q14 47 40 115.5t44 113.5l19 45q-69 -3 -91 -28q-5 -6 -43.5 -62t-72.5 -95.5t-47 -30.5t40 106t62 106q-10 0 -25 -1.5t-45 -13.5t-41 -33q-13 -24 -21 -40t-18 -38.5t-15.5 -38t-9.5 -32t-3 -28t7 -19.5
q10 -12 32.5 -13t52 14t52.5 44l86 115q-41 -127 -73 -218q-17 -11 -49.5 -29.5t-45 -27t-32.5 -26.5t-38 -42q-26 -34 -30 -67.5t10.5 -53t49 -17.5t77.5 33q28 20 50.5 58t33 67t35.5 105q46 28 60 34q-35 -98 -46 -151q-7 -24 7.5 -53.5t31.5 -47.5l18 -18q-9 31 42 203
q27 90 70 163q29 50 80 86.5t66 24.5q7 -8 1.5 -37.5t-18.5 -55.5q-16 -32 -38 -55.5t-42 -34t-38 -16.5t-29 -6l-10 -1q5 -4 13.5 -9t34 -12.5t50 -5t56.5 24t57 64.5zM2480 987q36 39 65 29q23 -8 13 -37q-8 -19 -31 -40q-17 -15 -39 -20t-36 -2l-14 3q2 -5 6 -12
t21.5 -18.5t40.5 -10.5q48 3 71.5 33t21.5 70q-2 25 -29 45.5t-68 22.5t-88 -31q-41 -30 -69.5 -77.5t-28 -101.5t43.5 -88q31 -24 73.5 -17t81 28t60.5 45q7 8 11 22.5t4 25.5l1 10q-31 -50 -103.5 -82.5t-90.5 -1.5q-19 31 10 94.5t73 110.5zM1282 94q-16 0 -28 10
q-9 8 -9 25q0 15 6 27t17 19t27 7q17 0 27 -9t10 -25q0 -15 -6 -27t-17 -19q-13 -8 -27 -8zM1734 94q-16 0 -28 10q-10 9 -10 25q0 15 6 27q6 11 18 19q11 7 26 7q18 0 28 -9t10 -25q0 -13 -7 -27q-6 -12 -17 -19q-13 -8 -26 -8zM717 102q-10 -6 -28 -6h-31l17 85h27
q18 0 29 -9q10 -9 10 -24t-6 -27q-6 -11 -18 -19zM511 0l56 282h1728l-56 -282h-1728zM2067 207l-6 -26h44l-22 -111h32l22 111h44l5 26h-119zM1888 207l-27 -137h31l17 86l51 -86h27l27 137h-31l-17 -86l-52 86h-26zM1675 169q-11 -20 -11 -42q0 -17 8 -31q7 -13 23 -21
t36 -8q24 0 44 11q18 10 30 30q11 20 11 42q0 17 -8 31q-7 13 -23 21q-14 7 -36 7q-25 0 -44 -10q-18 -10 -30 -30zM1528 207l-28 -137h32l10 50h64l5 25h-64l7 36h72l5 26h-103zM1223 169q-11 -20 -11 -42q0 -17 8 -31q7 -12 24 -21q16 -8 35 -8q25 0 45 11q18 10 30 30
q10 19 10 42q0 17 -8 31q-7 13 -23 21q-14 7 -36 7q-25 0 -44 -10q-18 -10 -30 -30zM1013 207l-28 -137h30l17 82l28 -68h14l52 67l-16 -81h30l28 137h-28l-67 -86l-34 86h-26zM846 207l-28 -137h107l5 25h-75l6 32h64l5 25h-64l6 29h72l6 26h-104zM648 207l-27 -137h67
q28 0 45 9q19 10 30 29q10 17 10 42q0 16 -8 30q-7 12 -23 20q-14 7 -36 7h-58z" />
    <glyph glyph-name="plus" unicode="+" 
d="M1703 583q39 56 129 98q-31 -85 -53 -125.5t-48 -49.5q-41 -14 -48.5 11.5t20.5 65.5zM751 875q3 -45 27 -83.5t61 -51.5q-17 -61 -39 -79.5t-50 -10.5q-24 7 -24.5 72.5t14.5 116.5q3 12 11 36zM795 905q34 52 48 -21q11 -61 4 -112l-1 -5v-1q-34 18 -52 62t1 77z
M2704 921q3 -46 -19 -87q10 -17 10 -33q0 -64 -31 -98q-33 -37 -91 -65.5t-113 -28.5t-94 31q-17 13 -32 33q-62 -69 -145 -69q-34 0 -64 10l-3 -9q-44 -150 -42 -171q10 -43 -26 -66q-15 -9 -32 -9q-22 0 -40 16q-37 37 -54 65q-24 -37 -61 -64q-62 -44 -118 -44
q-21 0 -41 10t-32 21t-30 31q-23 25 -44 65q-15 30 -12 66l-6 6q-24 -11 -48 -11q-68 0 -113 73q-7 10 -12 25l-8 8l-7 -44q-2 -34 -30 -50q-14 -8 -30 -8q-15 0 -29 8q-8 4 -21 14q-7 -4 -14 -5q-6 -2 -22 -2q-65 0 -100 53q-40 -46 -82 -49h-14q-64 0 -97 45
q-62 -87 -149 -87q-63 0 -111 46q2 -34 5 -50q6 -39 -28 -61q-15 -9 -32 -9q-18 0 -34 11q-6 4 -17 13.5t-34.5 38t-42.5 61.5q-20 23 -36 50q-8 -79 10 -113q16 -31 -1 -59q-18 -30 -51 -30h-1q-65 0 -111 54q-73 87 -83 160q-16 -11 -34 -11q-12 0 -21 4q-44 17 -65 58
t-18 69l3.5 17.5t14 34.5t31 47.5t56 45.5t86.5 39q30 107 52 161.5t32 65t27 16.5q11 4 25 4q50 0 122 -74q3 -3 7 -9q37 85 94 177q36 58 108 58q55 0 97 -25q14 -8 44.5 -53.5t31.5 -61.5q2 -34 -27 -53q-16 -10 -36 -35q41 -22 72 -61q10 -13 12 -31q1 -1 4 -3
q19 31 39 50q43 41 106 41q71 0 105 -47q22 2 29 2q41 126 111 241q36 58 108 58q35 0 97 -25q31 -17 33 -51l-1 -1v-2q61 4 233 4h102q17 0 33.5 1.5t29.5 3.5t25 4t21 4.5t15.5 4.5t10.5 3l3 1q9 4 22 4q25 0 43 -18q8 -8 26 -36t18 -29q24 -35 12 -65q-7 -15 -15 -29
q44 -8 53 -45q2 -8 2 -14q24 3 25 3q50 0 84 -36q24 29 50 47q58 43 123 43q52 0 89 -23t73 -72q37 -43 40 -94zM598 552q-14 83 5.5 195.5t57 211t84 176.5t85.5 103q-10 5 -26 11.5t-50 5t-50 -27.5q-66 -107 -106 -207.5t-49.5 -172.5t-10 -111.5t4.5 -65.5
q-24 41 -36 95.5t-12.5 102t2.5 89.5t7 67l5 24l-7 7t-16 14.5t-22 18.5t-21 13t-17 3q-21 -7 -83 -237q-47 -10 -83 -27.5t-54 -36.5t-29 -36.5t-13 -28.5l-2 -11q27 40 162 68q-14 -54 -21 -99q-7 -51 -1.5 -83.5t20.5 -50.5t30 -26.5t27 -9.5l12 -2q-20 36 -20.5 96
t12.5 120t29 114.5t30 89.5l13 34q3 -120 24 -218q9 -41 24.5 -77.5t31 -59.5t30.5 -40t24 -24zM1144 716q7 -28 25 -41t33 -12l14 1q-3 3 -6.5 11t-9.5 40.5t4 79.5q6 39 17 85t19 72l8 27q-67 3 -84 -28q-29 -53 -51.5 -106t-46.5 -89q-36 -54 -52 -39q-13 11 2.5 67
t42.5 111q32 63 50 79t55 5q9 24 -24 38q-42 18 -84 -5l-17 -13q-24 -23 -47.5 -74t-35.5 -106q-22 -42 -55 -56q14 61 13 93q-3 76 -28.5 103.5t-66.5 22.5q32 22 76 9q-2 3 -6 7.5t-17.5 17.5t-26.5 19t-33.5 11.5t-37.5 -3.5q-31 -11 -64 -74.5t-48.5 -139.5t-1.5 -119
q15 -45 49 -68.5t77.5 -13t78.5 59.5q17 24 27 48q29 6 57 34q-3 -31 1 -52q9 -54 70 -50q26 2 62.5 58t59.5 111l24 55q-2 -5 -4 -12.5t-8 -31.5t-8.5 -43t-5 -46.5t3.5 -42.5zM1516 652l-5 5t-9.5 16t-10 28t-3 41.5t7.5 56.5q11 45 25.5 87.5t22.5 62.5l9 20l-57 27
q-9 5 -19 -2q-103 -73 -168 -189q33 145 99 283t119 172q-4 2 -10 4.5t-24 7.5t-33 5.5t-32.5 -6.5t-27.5 -23q-92 -150 -135 -337q-12 -51 -20.5 -113.5t-6.5 -82.5q2 -17 15.5 -33.5t26.5 -24.5l12 -8q0 11 2.5 29.5t18.5 66.5t44 84q32 41 59 69.5t38 36.5l11 8
q-3 -7 -8 -20t-16.5 -48.5t-18 -66t-6 -65t12.5 -53.5q19 -31 41 -40.5t34 -3.5zM1636 595q-13 22 -14 60.5t9.5 87t26 99t37 106t40 99t38.5 85.5q171 3 187 4q37 3 67.5 26.5t42.5 45.5l11 21q-64 -25 -159 -26h-97.5t-109 -0.5t-87.5 -2.5t-72 -5q-39 -5 -68.5 -31
t-39.5 -50l-11 -23q8 11 50 20t83 12q47 3 111 4q-2 -6 -53 -141.5t-70 -214.5q-8 -38 -3.5 -67.5t18 -50t27.5 -33.5t25 -19zM2273 817q22 37 30 65.5t6 43t-10 32.5q-23 55 -88 31q-31 -12 -62.5 -40t-47.5 -50l-16 -22q72 174 75 176l-25 1q-57 -3 -73 -33
q-35 -98 -76 -213q-1 -4 -3.5 -11t-3.5 -10q-50 -29 -63 -35q14 47 40 115.5t44 113.5l19 45q-69 -3 -91 -28q-5 -6 -43.5 -62t-72.5 -95.5t-47 -30.5t40 106t62 106q-10 0 -25 -1.5t-45 -13.5t-41 -33q-13 -24 -21 -40t-18 -38.5t-15.5 -38t-9.5 -32t-3 -28t7 -19.5
q10 -12 32.5 -13t52 14t52.5 44l86 115q-41 -127 -73 -218q-17 -11 -49.5 -29.5t-45 -27t-32.5 -26.5t-38 -42q-26 -34 -30 -67.5t10.5 -53t49 -17.5t77.5 33q28 20 50.5 58t33 67t35.5 105q46 28 60 34q-35 -98 -46 -151q-7 -24 7.5 -53.5t31.5 -47.5l18 -18q-9 31 42 203
q27 90 70 163q29 50 80 86.5t66 24.5q7 -8 1.5 -37.5t-18.5 -55.5q-16 -32 -38 -55.5t-42 -34t-38 -16.5t-29 -6l-10 -1q5 -4 13.5 -9t34 -12.5t50 -5t56.5 24t57 64.5zM2480 987q36 39 65 29q23 -8 13 -37q-8 -19 -31 -40q-17 -15 -39 -20t-36 -2l-14 3q2 -5 6 -12
t21.5 -18.5t40.5 -10.5q48 3 71.5 33t21.5 70q-2 25 -29 45.5t-68 22.5t-88 -31q-41 -30 -69.5 -77.5t-28 -101.5t43.5 -88q31 -24 73.5 -17t81 28t60.5 45q7 8 11 22.5t4 25.5l1 10q-31 -50 -103.5 -82.5t-90.5 -1.5q-19 31 10 94.5t73 110.5zM1282 94q-16 0 -28 10
q-9 8 -9 25q0 15 6 27t17 19t27 7q17 0 27 -9t10 -25q0 -15 -6 -27t-17 -19q-13 -8 -27 -8zM1734 94q-16 0 -28 10q-10 9 -10 25q0 15 6 27q6 11 18 19q11 7 26 7q18 0 28 -9t10 -25q0 -13 -7 -27q-6 -12 -17 -19q-13 -8 -26 -8zM717 102q-10 -6 -28 -6h-31l17 85h27
q18 0 29 -9q10 -9 10 -24t-6 -27q-6 -11 -18 -19zM511 0l56 282h1728l-56 -282h-1728zM2067 207l-6 -26h44l-22 -111h32l22 111h44l5 26h-119zM1888 207l-27 -137h31l17 86l51 -86h27l27 137h-31l-17 -86l-52 86h-26zM1675 169q-11 -20 -11 -42q0 -17 8 -31q7 -13 23 -21
t36 -8q24 0 44 11q18 10 30 30q11 20 11 42q0 17 -8 31q-7 13 -23 21q-14 7 -36 7q-25 0 -44 -10q-18 -10 -30 -30zM1528 207l-28 -137h32l10 50h64l5 25h-64l7 36h72l5 26h-103zM1223 169q-11 -20 -11 -42q0 -17 8 -31q7 -12 24 -21q16 -8 35 -8q25 0 45 11q18 10 30 30
q10 19 10 42q0 17 -8 31q-7 13 -23 21q-14 7 -36 7q-25 0 -44 -10q-18 -10 -30 -30zM1013 207l-28 -137h30l17 82l28 -68h14l52 67l-16 -81h30l27 137h-27l-67 -86l-34 86h-26zM846 207l-28 -137h107l5 25h-75l6 32h64l5 25h-64l6 29h72l6 26h-104zM648 207l-27 -137h67
q27 0 44 9q21 11 31 29q10 17 10 42q0 16 -8 30q-7 12 -23 20q-14 7 -36 7h-58z" />
    <glyph glyph-name="comma" unicode="," 
d="M1703 583q39 56 129 98q-31 -85 -53 -125.5t-48 -49.5q-41 -14 -48.5 11.5t20.5 65.5zM751 875q3 -45 27 -83.5t61 -51.5q-17 -61 -39 -79.5t-50 -10.5q-24 7 -24.5 72.5t14.5 116.5q3 12 11 36zM795 905q34 52 48 -21q11 -61 4 -112l-1 -5v-1q-34 18 -52 62t1 77z
M2704 921q3 -46 -19 -87q10 -17 10 -33q0 -64 -31 -98q-33 -37 -91 -65.5t-113 -28.5t-94 31q-17 13 -32 33q-62 -69 -146 -69q-33 0 -63 10l-3 -9q-44 -150 -42 -171q10 -43 -26 -66q-15 -9 -32 -9q-22 0 -40 16q-37 37 -54 65q-24 -37 -61 -64q-62 -44 -118 -44
q-21 0 -41 10t-32 21t-30 31q-23 25 -44 65q-15 30 -12 66l-6 6q-24 -11 -48 -11q-68 0 -113 73q-7 10 -12 25l-8 8l-7 -44q-2 -34 -30 -50q-14 -8 -30 -8q-15 0 -29 8q-8 4 -21 14q-7 -4 -14 -5q-6 -2 -22 -2q-66 0 -101 53q-40 -46 -81 -49h-14q-64 0 -97 45
q-62 -87 -150 -87q-62 0 -110 46q2 -34 5 -50q6 -39 -28 -61q-15 -9 -32 -9q-18 0 -34 11q-6 4 -17 13.5t-34.5 38t-42.5 61.5q-20 23 -36 50q-8 -79 10 -113q16 -31 -1 -59q-18 -30 -51 -30h-1q-65 0 -111 54q-73 87 -83 160q-16 -11 -34 -11q-12 0 -21 4q-44 17 -65 58
t-18 69l3.5 17.5t14 34.5t31 47.5t56 45.5t86.5 39q30 107 52 161.5t32 65t27 16.5q11 4 25 4q50 0 122 -74q3 -3 7 -9q37 85 94 177q36 58 108 58q55 0 97 -25q14 -8 44.5 -53.5t31.5 -61.5q2 -34 -27 -53q-16 -10 -36 -35q41 -22 72 -61q10 -13 12 -31q1 -1 4 -3
q19 31 39 50q43 41 106 41q71 0 105 -47q22 2 29 2q41 126 111 241q36 58 108 58q35 0 97 -25q31 -17 33 -51l-1 -1v-2q61 4 233 4h102q17 0 33.5 1.5t29.5 3.5t25 4t21 4.5t15.5 4.5t10.5 3l3 1q9 4 22 4q25 0 43 -18q8 -8 26 -36t18 -29q24 -35 12 -65q-7 -15 -15 -29
q44 -8 53 -45q2 -8 2 -14q24 3 25 3q50 0 84 -36q24 29 50 47q58 43 123 43q52 0 89.5 -23t72.5 -72q37 -43 40 -94zM598 552q-14 83 5.5 195.5t57 211t84 176.5t85.5 103q-10 5 -26 11.5t-50 5t-50 -27.5q-66 -107 -106 -207.5t-49.5 -172.5t-10 -111.5t4.5 -65.5
q-24 41 -36 95.5t-12.5 102t2.5 89.5t7 67l5 24l-7 7t-16 14.5t-22 18.5t-21 13t-17 3q-21 -7 -83 -237q-47 -10 -83 -27.5t-54 -36.5t-29 -36.5t-13 -28.5l-2 -11q27 40 162 68q-14 -54 -21 -99q-7 -51 -1.5 -83.5t20.5 -50.5t30 -26.5t27 -9.5l12 -2q-20 36 -20.5 96
t12.5 120t29 114.5t30 89.5l13 34q3 -120 24 -218q9 -41 24.5 -77.5t31 -59.5t30.5 -40t24 -24zM1144 716q7 -28 25 -41t33 -12l14 1q-3 3 -6.5 11t-9.5 40.5t4 79.5q6 39 17 85t19 72l8 27q-67 3 -84 -28q-29 -53 -51.5 -106t-46.5 -89q-36 -54 -52 -39q-13 11 2.5 67
t42.5 111q32 63 50 79t55 5q9 24 -24 38q-42 18 -84 -5l-17 -13q-24 -23 -47.5 -74t-35.5 -106q-22 -42 -55 -56q14 61 13 93q-3 76 -28.5 103.5t-66.5 22.5q32 22 76 9q-2 3 -6 7.5t-17.5 17.5t-26.5 19t-33.5 11.5t-37.5 -3.5q-31 -11 -64 -74.5t-48.5 -139.5t-1.5 -119
q15 -45 49 -68.5t77.5 -13t78.5 59.5q17 24 27 48q29 6 57 34q-3 -31 1 -52q9 -54 70 -50q26 2 62.5 58t59.5 111l24 55q-2 -5 -4 -12.5t-8 -31.5t-8.5 -43t-5 -46.5t3.5 -42.5zM1516 652l-5 5t-9.5 16t-10 28t-3 41.5t7.5 56.5q11 45 25.5 87.5t22.5 62.5l9 20l-57 27
q-9 5 -19 -2q-103 -73 -168 -189q33 145 99 283t119 172q-4 2 -10 4.5t-24 7.5t-33 5.5t-32.5 -6.5t-27.5 -23q-92 -150 -135 -337q-12 -51 -20.5 -113.5t-6.5 -82.5q2 -17 15.5 -33.5t26.5 -24.5l12 -8q0 11 2.5 29.5t18.5 66.5t44 84q32 41 59 69.5t38 36.5l11 8
q-3 -7 -8 -20t-16.5 -48.5t-18 -66t-6 -65t12.5 -53.5q19 -31 41 -40.5t34 -3.5zM1636 595q-13 22 -14 60.5t9.5 87t26 99t37 106t40 99t38.5 85.5q171 3 187 4q37 3 67.5 26.5t42.5 45.5l11 21q-64 -25 -159 -26h-97.5t-109 -0.5t-87.5 -2.5t-72 -5q-39 -5 -68.5 -31
t-39.5 -50l-11 -23q8 11 50 20t83 12q47 3 111 4q-3 -10 -54 -143.5t-70 -212.5q-8 -38 -3.5 -67.5t18 -50t28 -33.5t25.5 -19zM2273 817q22 37 30 65.5t6 43t-10 32.5q-23 55 -88 31q-31 -12 -62.5 -40t-47.5 -50l-16 -22q72 174 75 176l-25 1q-57 -3 -73 -33
q-35 -98 -76 -213q-1 -4 -3.5 -11t-3.5 -10q-50 -29 -63 -35q14 47 40 115.5t44 113.5l19 45q-69 -3 -91 -28q-5 -6 -43.5 -62t-72.5 -95.5t-47 -30.5t40 106t62 106q-10 0 -25 -1.5t-45 -13.5t-41 -33q-13 -24 -21 -40t-18 -38.5t-15.5 -38t-9.5 -32t-3 -28t7 -19.5
q10 -12 32.5 -13t52 14t52.5 44l86 115q-41 -127 -73 -218q-17 -11 -49.5 -29.5t-45 -27t-32.5 -26.5t-38 -42q-26 -34 -30 -67.5t10.5 -53t49 -17.5t77.5 33q28 20 50.5 58t33 67t35.5 105q46 28 60 34q-35 -98 -46 -151q-7 -24 7.5 -53.5t31.5 -47.5l18 -18q-9 31 42 203
q27 90 70 163q29 50 80 86.5t66 24.5q7 -8 1.5 -37.5t-18.5 -55.5q-16 -32 -38 -55.5t-42 -34t-38 -16.5t-29 -6l-10 -1q5 -4 13.5 -9t34 -12.5t50 -5t56.5 24t57 64.5zM2480 987q36 39 65 29q24 -8 13 -37q-7 -19 -31 -40q-17 -15 -39 -20t-36 -2l-14 3q2 -5 6 -12
t21.5 -18.5t40.5 -10.5q48 3 71.5 33t21.5 70q-2 25 -29 45.5t-68 22.5t-88 -31q-41 -30 -69.5 -77.5t-28 -101.5t43.5 -88q31 -24 73.5 -17t81 28t60.5 45q7 8 11 22.5t4 25.5l1 10q-31 -50 -103.5 -82.5t-90.5 -1.5q-19 31 10 94.5t73 110.5zM1282 94q-16 0 -28 10
q-9 8 -9 25q0 15 6 27t17 19t27 7q17 0 27 -9t10 -25q0 -15 -6 -27t-17 -19q-13 -8 -27 -8zM1734 94q-16 0 -28 10q-10 9 -10 25q0 15 6 27q6 11 18 19q11 7 26 7q18 0 28 -9t10 -25q0 -13 -7 -27q-6 -12 -17 -19q-13 -8 -26 -8zM717 102q-10 -6 -28 -6h-31l17 85h27
q18 0 29 -9q10 -9 10 -24t-6 -27q-6 -11 -18 -19zM511 0l56 282h1728l-56 -282h-1728zM2066 207l-5 -26h44l-22 -111h32l22 111h44l5 26h-120zM1888 207l-27 -137h31l17 86l51 -86h27l27 137h-31l-17 -86l-52 86h-26zM1675 169q-11 -20 -11 -42q0 -17 8 -31q7 -13 23 -21
t36 -8q24 0 44 11q18 10 30 30q11 20 11 42q0 17 -8 31q-7 13 -23 21q-14 7 -36 7q-25 0 -44 -10q-18 -10 -30 -30zM1528 207l-28 -137h32l10 50h63l6 25h-64l7 36h72l5 26h-103zM1223 169q-11 -20 -11 -42q0 -17 8 -31q7 -12 24 -21q16 -8 35 -8q25 0 45 11q18 10 30 30
q10 19 10 42q0 17 -8 31q-7 13 -23 21q-14 7 -36 7q-25 0 -44 -10q-18 -10 -30 -30zM1013 207l-28 -137h30l17 82l28 -68h14l52 67l-16 -81h30l28 137h-28l-67 -86l-34 86h-26zM846 207l-28 -137h107l5 25h-75l6 32h64l5 25h-64l6 29h72l6 26h-104zM648 207l-27 -137h67
q28 0 45 9q19 10 30 29q10 17 10 42q0 16 -8 30q-7 12 -23 20q-14 7 -36 7h-58z" />
    <glyph glyph-name="hyphen" unicode="-" 
d="M1703 583q39 56 129 98q-31 -85 -53 -125.5t-48 -49.5q-41 -14 -48.5 11.5t20.5 65.5zM751 875q3 -45 27 -83.5t61 -51.5q-17 -61 -39 -79.5t-50 -10.5q-24 7 -24.5 72.5t14.5 116.5q3 12 11 36zM795 905q34 52 48 -21q11 -61 4 -112l-1 -5v-1q-34 18 -52 62t1 77z
M2704 921q3 -46 -19 -87q10 -17 10 -33q0 -64 -31 -98q-33 -37 -91 -65.5t-113 -28.5t-94 31q-17 13 -32 33q-62 -69 -146 -69q-33 0 -63 10l-3 -9q-44 -150 -42 -171q10 -43 -26 -66q-15 -9 -32 -9q-22 0 -40 16q-37 37 -54 65q-24 -37 -61 -64q-62 -44 -118 -44
q-21 0 -41 10t-32 21t-30 31q-23 25 -44 65q-15 30 -12 66l-6 6q-24 -11 -48 -11q-68 0 -113 73q-7 10 -12 25l-8 8l-7 -44q-2 -34 -30 -50q-14 -8 -30 -8q-15 0 -29 8q-8 4 -21 14q-7 -4 -14 -5q-6 -2 -22 -2q-65 0 -100 53q-40 -46 -82 -49h-14q-64 0 -97 45
q-62 -87 -149 -87q-63 0 -111 46q2 -34 5 -50q6 -39 -28 -61q-15 -9 -32 -9q-18 0 -34 11q-6 4 -17 13.5t-34.5 38t-42.5 61.5q-20 23 -36 50q-8 -79 10 -113q16 -31 -1 -59q-18 -30 -51 -30h-1q-65 0 -111 54q-73 87 -83 160q-16 -11 -34 -11q-12 0 -21 4q-44 17 -65 58
t-18 69l3.5 17.5t14 34.5t31 47.5t56 45.5t86.5 39q30 107 52 161.5t32 65t27 16.5q11 4 25 4q50 0 122 -74q3 -3 7 -9q37 85 94 177q36 58 108 58q55 0 97 -25q14 -8 44.5 -53.5t31.5 -61.5q2 -34 -27 -53q-16 -10 -36 -35q41 -22 72 -61q10 -13 12 -31q1 -1 4 -3
q19 31 39 50q43 41 106 41q71 0 105 -47q22 2 29 2q41 126 111 241q36 58 108 58q35 0 97 -25q31 -17 33 -51l-1 -1v-2q61 4 233 4h102q17 0 33.5 1.5t29.5 3.5t25 4t21 4.5t15.5 4.5t10.5 3l3 1q9 4 22 4q25 0 43 -18q8 -8 26 -36t18 -29q24 -35 12 -65q-7 -15 -15 -29
q44 -8 53 -45q2 -8 2 -14q24 3 25 3q50 0 84 -36q24 29 50 47q58 43 123 43q52 0 89 -23t73 -72q37 -43 40 -94zM598 552q-14 83 5.5 195.5t57 211t84 176.5t85.5 103q-10 5 -26 11.5t-50 5t-50 -27.5q-66 -107 -106 -207.5t-49.5 -172.5t-10 -111.5t4.5 -65.5
q-24 41 -36 95.5t-12.5 102t2.5 89.5t7 67l5 24l-7 7t-16 14.5t-22 18.5t-21 13t-17 3q-21 -7 -83 -237q-47 -10 -83 -27.5t-54 -36.5t-29 -36.5t-13 -28.5l-2 -11q27 40 162 68q-14 -54 -21 -99q-7 -51 -1.5 -83.5t20.5 -50.5t30 -26.5t27 -9.5l12 -2q-20 36 -20.5 96
t12.5 120t29 114.5t30 89.5l13 34q3 -120 24 -218q9 -41 24.5 -77.5t31 -59.5t30.5 -40t24 -24zM1144 716q7 -28 25 -41t33 -12l14 1q-3 3 -6.5 11t-9.5 40.5t4 79.5q6 39 17 85t19 72l8 27q-67 3 -84 -28q-29 -53 -51.5 -106t-46.5 -89q-36 -54 -52 -39q-13 11 2.5 67
t42.5 111q32 63 50 79t55 5q9 24 -24 38q-42 18 -84 -5l-17 -13q-24 -23 -47.5 -74t-35.5 -106q-22 -42 -55 -56q14 61 13 93q-3 76 -28.5 103.5t-66.5 22.5q32 22 76 9q-2 3 -6 7.5t-17.5 17.5t-26.5 19t-33.5 11.5t-37.5 -3.5q-31 -11 -64 -74.5t-48.5 -139.5t-1.5 -119
q15 -45 49 -68.5t77.5 -13t78.5 59.5q17 24 27 48q29 6 57 34q-3 -31 1 -52q9 -54 70 -50q26 2 62.5 58t59.5 111l24 55q-2 -5 -4 -12.5t-8 -31.5t-8.5 -43t-5 -46.5t3.5 -42.5zM1516 652l-5 5t-9.5 16t-10 28t-3 41.5t7.5 56.5q11 45 25.5 87.5t22.5 62.5l9 20l-57 27
q-9 5 -19 -2q-103 -73 -168 -189q33 145 99 283t119 172q-4 2 -10 4.5t-24 7.5t-33 5.5t-32.5 -6.5t-27.5 -23q-92 -150 -135 -337q-12 -51 -20.5 -113.5t-6.5 -82.5q2 -17 15.5 -33.5t26.5 -24.5l12 -8q0 11 2.5 29.5t18.5 66.5t44 84q32 41 59 69.5t38 36.5l11 8
q-3 -7 -8 -20t-16.5 -48.5t-18 -66t-6 -65t12.5 -53.5q19 -31 41 -40.5t34 -3.5zM1636 595q-13 22 -14 60.5t9.5 87t26 99t37 106t40 99t38.5 85.5q171 3 187 4q37 3 67.5 26.5t42.5 45.5l11 21q-64 -25 -159 -26h-97.5t-109 -0.5t-87.5 -2.5t-72 -5q-39 -5 -68.5 -31
t-39.5 -50l-11 -23q8 11 50 20t83 12q47 3 111 4q-2 -7 -53 -142t-70 -214q-8 -38 -3.5 -67.5t18 -50t27.5 -33.5t25 -19zM2273 817q22 37 30 65.5t6 43t-10 32.5q-23 55 -88 31q-31 -12 -62.5 -40t-47.5 -50l-16 -22q72 174 75 176l-25 1q-57 -3 -73 -33q-35 -98 -76 -213
q-1 -4 -3.5 -11t-3.5 -10q-50 -29 -63 -35q14 47 40 115.5t44 113.5l19 45q-69 -3 -91 -28q-5 -6 -43.5 -62t-72.5 -95.5t-47 -30.5t40 106t62 106q-10 0 -25 -1.5t-45 -13.5t-41 -33q-13 -24 -21 -40t-18 -38.5t-15.5 -38t-9.5 -32t-3 -28t7 -19.5q10 -12 32.5 -13t52 14
t52.5 44l86 115q-41 -127 -73 -218q-17 -11 -49.5 -29.5t-45 -27t-32.5 -26.5t-38 -42q-26 -34 -30 -67.5t10.5 -53t49 -17.5t77.5 33q28 20 50.5 58t33 67t35.5 105q46 28 60 34q-35 -98 -46 -151q-7 -24 7.5 -53.5t31.5 -47.5l18 -18q-9 31 42 203q27 90 70 163
q29 50 80 86.5t66 24.5q7 -8 1.5 -37.5t-18.5 -55.5q-16 -32 -38 -55.5t-42 -34t-38 -16.5t-29 -6l-10 -1q5 -4 13.5 -9t34 -12.5t50 -5t56.5 24t57 64.5zM2480 987q36 39 65 29q23 -8 13 -37q-8 -19 -31 -40q-17 -15 -39 -20t-36 -2l-14 3q2 -5 6 -12t21.5 -18.5
t40.5 -10.5q48 3 71.5 33t21.5 70q-2 25 -29 45.5t-68 22.5t-88 -31q-41 -30 -69.5 -77.5t-28 -101.5t43.5 -88q31 -24 73.5 -17t81 28t60.5 45q7 8 11 22.5t4 25.5l1 10q-31 -50 -103.5 -82.5t-90.5 -1.5q-19 31 10 94.5t73 110.5zM1282 94q-16 0 -28 10q-9 8 -9 25
q0 15 6 27t17 19t27 7q17 0 27 -9t10 -25q0 -15 -6 -27t-17 -19q-13 -8 -27 -8zM1734 94q-16 0 -28 10q-10 9 -10 25q0 15 6 27q6 11 18 19q11 7 26 7q18 0 28 -9t10 -25q0 -13 -7 -27q-6 -12 -17 -19q-13 -8 -26 -8zM717 102q-10 -6 -28 -6h-31l17 85h27q18 0 29 -9
q10 -9 10 -24t-6 -27q-6 -11 -18 -19zM511 0l56 282h1728l-56 -282h-1728zM2066 207l-5 -26h44l-22 -111h32l22 111h44l5 26h-120zM1888 207l-27 -137h31l17 86l51 -86h27l27 137h-31l-17 -86l-52 86h-26zM1675 169q-11 -20 -11 -42q0 -17 8 -31q7 -13 23 -21t36 -8
q24 0 44 11q19 10 30 29q11 20 11 43q0 17 -8 31q-7 13 -23 21q-14 7 -36 7q-25 0 -44 -10q-18 -10 -30 -30zM1528 207l-28 -137h32l10 50h64l5 25h-64l7 36h72l5 26h-103zM1223 169q-11 -20 -11 -42q0 -15 9 -31q7 -13 23 -21t35 -8q25 0 45 11q18 10 30 30q10 19 10 42
q0 17 -8 31q-7 13 -23 21q-14 7 -36 7q-25 0 -44 -10q-18 -10 -30 -30zM1013 207l-28 -137h30l17 82l28 -68h14l52 67l-16 -81h30l27 137h-27l-67 -86l-34 86h-26zM846 207l-28 -137h107l5 25h-75l6 32h64l5 25h-64l6 29h72l6 26h-104zM648 207l-27 -137h67q28 0 45 9
q19 10 30 29q10 17 10 42q0 16 -8 30q-7 12 -23 20q-14 7 -36 7h-58z" />
    <glyph glyph-name="period" unicode="." 
d="M1703 583q39 56 129 98q-31 -85 -53 -125.5t-48 -49.5q-41 -14 -48.5 11.5t20.5 65.5zM751 875q3 -45 27 -83.5t61 -51.5q-17 -61 -39 -79.5t-50 -10.5q-24 7 -24.5 72.5t14.5 116.5q3 12 11 36zM795 905q34 52 48 -21q11 -61 4 -112l-1 -5v-1q-34 18 -52 62t1 77z
M2704 921q3 -46 -19 -87q10 -17 10 -33q0 -64 -31 -98q-33 -37 -91 -65.5t-113 -28.5t-94 31q-17 13 -32 33q-62 -69 -146 -69q-33 0 -63 10l-3 -9q-44 -150 -42 -171q10 -43 -26 -66q-15 -9 -32 -9q-22 0 -40 16q-37 37 -54 65q-24 -37 -61 -64q-62 -44 -118 -44
q-21 0 -41 10t-32 21t-30 31q-23 25 -44 65q-15 30 -12 66l-6 6q-24 -11 -48 -11q-68 0 -113 73q-7 10 -12 25l-8 8l-7 -44q-2 -34 -30 -50q-14 -8 -30 -8q-15 0 -29 8q-8 4 -21 14q-7 -4 -14 -5q-6 -2 -22 -2q-66 0 -101 53q-40 -46 -81 -49h-14q-64 0 -97 45
q-62 -87 -149 -87q-63 0 -111 46q2 -34 5 -50q6 -39 -28 -61q-15 -9 -32 -9q-18 0 -34 11q-6 4 -17 13.5t-34.5 38t-42.5 61.5q-20 23 -36 50q-8 -79 10 -113q16 -31 -1 -59q-18 -30 -51 -30h-1q-65 0 -111 54q-73 87 -83 160q-16 -11 -34 -11q-12 0 -21 4q-44 17 -65 58
t-18 69l3.5 17.5t14 34.5t31 47.5t56 45.5t86.5 39q30 107 52 161.5t32 65t27 16.5q11 4 25 4q50 0 122 -74q3 -3 7 -9q37 85 94 177q36 58 108 58q55 0 97 -25q14 -8 44.5 -53.5t31.5 -61.5q2 -34 -27 -53q-14 -9 -35 -35q39 -21 71 -61q10 -13 12 -31q1 -1 4 -3
q19 31 39 50q43 41 106 41q71 0 105 -47q22 2 29 2q41 126 111 241q36 58 108 58q35 0 97 -25q31 -17 33 -51l-1 -1v-2q61 4 233 4h102q17 0 33.5 1.5t29.5 3.5t25 4t21 4.5t15.5 4.5t10.5 3l3 1q9 4 22 4q25 0 43 -18q8 -8 26 -36t18 -29q24 -35 12 -65q-7 -15 -15 -29
q44 -8 53 -45q2 -8 2 -14q24 3 25 3q50 0 84 -36q24 29 50 47q58 43 123 43q52 0 89.5 -23t72.5 -72q37 -43 40 -94zM598 552q-14 83 5.5 195.5t57 211t84 176.5t85.5 103q-10 5 -26 11.5t-50 5t-50 -27.5q-66 -107 -106 -207.5t-49.5 -172.5t-10 -111.5t4.5 -65.5
q-24 41 -36 95.5t-12.5 102t2.5 89.5t7 67l5 24l-7 7t-16 14.5t-22 18.5t-21 13t-17 3q-21 -7 -83 -237q-47 -10 -83 -27.5t-54 -36.5t-29 -36.5t-13 -28.5l-2 -11q27 40 162 68q-17 -73 -21 -99q-7 -51 -1.5 -83.5t20.5 -50.5t30 -26.5t27 -9.5l12 -2q-20 36 -20.5 96
t12.5 120t29 114.5t30 89.5l13 34q3 -120 24 -218q9 -41 24.5 -77.5t31 -59.5t30.5 -40t24 -24zM1144 716q7 -28 25 -41t33 -12l14 1q-3 3 -6.5 11t-9.5 40.5t4 79.5q6 39 17 85t19 72l8 27q-67 3 -84 -28q-29 -53 -51.5 -106t-46.5 -89q-36 -54 -52 -39q-13 11 2.5 67
t42.5 111q32 63 50 79t55 5q9 24 -24 38q-42 18 -84 -5l-17 -13q-24 -23 -47.5 -74t-35.5 -106q-22 -42 -55 -56q14 61 13 93q-3 76 -28.5 103.5t-66.5 22.5q32 22 76 9q-2 3 -6 7.5t-17.5 17.5t-26.5 19t-33.5 11.5t-37.5 -3.5q-31 -11 -64 -74.5t-48.5 -139.5t-1.5 -119
q15 -45 49 -68.5t77.5 -13t78.5 59.5q17 24 27 48q29 6 57 34q-3 -31 1 -52q9 -54 70 -50q26 2 62.5 58t59.5 111l24 55q-2 -5 -4 -12.5t-8 -31.5t-8.5 -43t-5 -46.5t3.5 -42.5zM1516 652l-5 5t-9.5 16t-10 28t-3 41.5t7.5 56.5q11 45 25.5 87.5t22.5 62.5l9 20l-57 27
q-9 5 -19 -2q-103 -73 -168 -189q33 145 99 283t119 172q-4 2 -10 4.5t-24 7.5t-33 5.5t-32.5 -6.5t-27.5 -23q-92 -150 -135 -337q-12 -51 -20.5 -113.5t-6.5 -82.5q2 -17 15.5 -33.5t26.5 -24.5l12 -8q0 11 2.5 29.5t18.5 66.5t44 84q32 41 59 69.5t38 36.5l11 8
q-3 -7 -8 -20t-16.5 -48.5t-18 -66t-6 -65t12.5 -53.5q19 -31 41 -40.5t34 -3.5zM1636 595q-13 22 -14 60.5t9.5 87t26 99t37 106t40 99t38.5 85.5q171 3 187 4q37 3 67.5 26.5t42.5 45.5l11 21q-64 -25 -159 -26h-97.5t-109 -0.5t-87.5 -2.5t-72 -5q-39 -5 -68.5 -31
t-39.5 -50l-11 -23q8 11 50 20t83 12q47 3 111 4q-3 -8 -54.5 -142.5t-69.5 -213.5q-8 -38 -3.5 -67.5t18 -50t28 -33.5t25.5 -19zM2273 817q22 37 30 65.5t6 43t-10 32.5q-23 55 -88 31q-31 -12 -62.5 -40t-47.5 -50l-16 -22q72 174 75 176l-25 1q-57 -3 -73 -33
q-35 -98 -76 -213q-1 -4 -3.5 -11t-3.5 -10q-50 -29 -63 -35q14 47 40 115.5t44 113.5l19 45q-69 -3 -91 -28q-5 -6 -43.5 -62t-72.5 -95.5t-47 -30.5t40 106t62 106q-10 0 -25 -1.5t-45 -13.5t-41 -33q-13 -24 -21 -40t-18 -38.5t-15.5 -38t-9.5 -32t-3 -28t7 -19.5
q10 -12 32.5 -13t51.5 14t52 44l87 115q-41 -127 -73 -218q-17 -11 -49.5 -29.5t-45 -27t-32.5 -26.5t-38 -42q-26 -34 -30 -67.5t10.5 -53t49 -17.5t77.5 33q28 20 50.5 58t33 67t35.5 105q46 28 60 34q-35 -98 -46 -151q-7 -24 7.5 -53.5t31.5 -47.5l18 -18q-9 31 42 203
q27 90 70 163q29 50 80 86.5t66 24.5q7 -8 1.5 -37.5t-18.5 -55.5q-16 -32 -38 -55.5t-42 -34t-38 -16.5t-29 -6l-10 -1q5 -4 13.5 -9t34 -12.5t50 -5t56.5 24t57 64.5zM2480 987q36 39 65 29q23 -8 13 -37q-8 -19 -31 -40q-17 -15 -39 -20t-36 -2l-14 3q2 -5 6 -12
t21.5 -18.5t40.5 -10.5q48 3 71.5 33t21.5 70q-2 25 -29 45.5t-68 22.5t-88 -31q-41 -30 -69.5 -77.5t-28 -101.5t43.5 -88q31 -24 73.5 -17t81 28t60.5 45q7 8 11 22.5t4 25.5l1 10q-31 -50 -103.5 -82.5t-90.5 -1.5q-19 31 10 94.5t73 110.5zM1282 94q-16 0 -28 10
q-9 8 -9 25q0 15 6 27t17 19t27 7q17 0 27 -9t10 -25q0 -15 -6 -27t-17 -19q-13 -8 -27 -8zM1733 94q-15 0 -27 10q-10 9 -10 25q0 15 6 27q6 11 18 19q11 7 26 7q18 0 28 -9t10 -25q0 -13 -7 -27q-6 -12 -17 -19q-13 -8 -27 -8zM717 102q-10 -6 -28 -6h-31l17 85h27
q18 0 29 -9q10 -9 10 -24t-6 -27q-6 -11 -18 -19zM511 0l56 282h1728l-56 -282h-1728zM2066 207l-5 -26h44l-22 -111h32l22 111h44l5 26h-120zM1888 207l-27 -137h31l17 86l51 -86h27l27 137h-31l-17 -86l-52 86h-26zM1674 169q-10 -19 -10 -42q0 -17 8 -31q7 -13 23 -21
t36 -8q24 0 44 11q19 10 30 29q11 20 11 43q0 17 -8 31q-7 13 -23 21q-14 7 -36 7q-25 0 -44 -10q-20 -11 -31 -30zM1528 207l-28 -137h32l10 50h64l5 25h-64l7 36h72l5 26h-103zM1223 169q-11 -20 -11 -42q0 -17 8 -31q7 -12 24 -21q16 -8 35 -8q25 0 45 11q18 10 30 30
q10 19 10 42q0 17 -8 31q-7 13 -23 21q-14 7 -36 7q-25 0 -44 -10q-18 -10 -30 -30zM1013 207l-28 -137h30l17 82l28 -68h14l52 67l-16 -81h30l27 137h-27l-67 -86l-34 86h-26zM846 207l-28 -137h107l5 25h-75l6 32h64l5 25h-64l6 29h72l6 26h-104zM648 207l-27 -137h67
q28 0 45 9q19 10 30 29q10 17 10 42q0 16 -8 30q-7 12 -23 20q-14 7 -36 7h-58z" />
    <glyph glyph-name="slash" unicode="/" 
d="M1703 583q39 56 129 98q-31 -85 -53 -125.5t-48 -49.5q-41 -14 -48.5 11.5t20.5 65.5zM751 875q3 -45 27 -83.5t61 -51.5q-17 -61 -39 -79.5t-50 -10.5q-24 7 -24.5 72.5t14.5 116.5q3 12 11 36zM795 905q34 52 48 -21q11 -61 4 -112l-1 -5v-1q-34 18 -52 62t1 77z
M2704 921q3 -46 -19 -87q10 -17 10 -33q0 -64 -31 -98q-33 -37 -91 -65.5t-113 -28.5t-94 31q-17 13 -32 33q-62 -69 -146 -69q-33 0 -63 10l-3 -9q-44 -150 -42 -171q10 -43 -26 -66q-15 -9 -32 -9q-22 0 -40 16q-37 37 -54 65q-24 -37 -61 -64q-62 -44 -118 -44
q-21 0 -41 10t-32 21t-30 31q-23 25 -44 65q-15 30 -12 66l-6 6q-24 -11 -48 -11q-68 0 -113 73q-7 10 -12 25l-8 8l-7 -44q-2 -34 -30 -50q-14 -8 -30 -8q-15 0 -29 8q-8 4 -21 14q-7 -4 -14 -5q-6 -2 -22 -2q-65 0 -100 53q-40 -46 -82 -49h-14q-64 0 -97 45
q-62 -87 -150 -87q-62 0 -110 46q2 -34 5 -50q6 -39 -28 -61q-15 -9 -32 -9q-18 0 -34 11q-6 4 -17 13.5t-34.5 38t-42.5 61.5q-20 23 -36 50q-8 -79 10 -113q16 -31 -1 -59q-18 -30 -51 -30h-1q-65 0 -111 54q-73 87 -83 160q-16 -11 -34 -11q-12 0 -21 4q-44 17 -65 58
t-18 69l3.5 17.5t14 34.5t31 47.5t56 45.5t86.5 39q30 107 52 161.5t32 65t27 16.5q11 4 25 4q50 0 122 -74q3 -3 7 -9q37 85 94 177q36 58 108 58q55 0 97 -25q14 -8 44.5 -53.5t31.5 -61.5q2 -34 -27 -53q-19 -12 -36 -35q41 -22 72 -61q10 -13 12 -31q1 -1 4 -3
q19 31 39 50q43 41 106 41q71 0 105 -47q22 2 29 2q41 126 111 241q36 58 108 58q35 0 97 -25q31 -17 33 -51l-1 -1v-2q61 4 233 4h102q17 0 33.5 1.5t29.5 3.5t25 4t21 4.5t15.5 4.5t10.5 3l3 1q9 4 22 4q25 0 43 -18q8 -8 26 -36t18 -29q24 -35 12 -65q-7 -15 -15 -29
q44 -8 53 -45q2 -8 2 -14q24 3 25 3q50 0 84 -36q24 29 50 47q58 43 123 43q52 0 89 -23t73 -72q37 -43 40 -94zM598 552q-14 83 5.5 195.5t57 211t84 176.5t85.5 103q-10 5 -26 11.5t-50 5t-50 -27.5q-66 -107 -106 -207.5t-49.5 -172.5t-10 -111.5t4.5 -65.5
q-24 41 -36 95.5t-12.5 102t2.5 89.5t7 67l5 24l-7 7t-16 14.5t-22 18.5t-21 13t-17 3q-21 -7 -83 -237q-47 -10 -83 -27.5t-54 -36.5t-29 -36.5t-13 -28.5l-2 -11q27 40 162 68q-14 -54 -21 -99q-7 -51 -1.5 -83.5t20.5 -50.5t30 -26.5t27 -9.5l12 -2q-20 36 -20.5 96
t12.5 120t29 114.5t30 89.5l13 34q3 -120 24 -218q9 -41 24.5 -77.5t31 -59.5t30.5 -40t24 -24zM1144 716q7 -28 25 -41t33 -12l14 1q-3 3 -6.5 11t-9.5 40.5t4 79.5q6 39 17 85t19 72l8 27q-67 3 -84 -28q-28 -52 -51.5 -105.5t-47.5 -89.5q-36 -53 -51 -39q-13 11 2.5 67
t42.5 111q32 63 50 79t55 5q9 24 -24 38q-42 18 -84 -5l-17 -13q-25 -23 -48.5 -74.5t-34.5 -105.5q-22 -42 -55 -56q14 61 13 93q-3 76 -28.5 103.5t-66.5 22.5q32 22 76 9q-2 3 -6 7.5t-17.5 17.5t-26.5 19t-33.5 11.5t-37.5 -3.5q-31 -11 -64 -74.5t-48.5 -139.5
t-1.5 -119q15 -45 49 -68.5t77.5 -13t78.5 59.5q17 24 27 48q29 6 57 34q-3 -31 1 -52q9 -54 70 -50q26 2 62.5 58t59.5 111l24 55q-2 -5 -4 -12.5t-8 -31.5t-8.5 -43t-5 -46.5t3.5 -42.5zM1516 652l-5 5t-9.5 16t-10 28t-3 41.5t7.5 56.5q11 45 25.5 87.5t22.5 62.5l9 20
l-57 27q-9 5 -19 -2q-103 -73 -168 -189q33 145 99 283t119 172q-4 2 -10 4.5t-24 7.5t-33 5.5t-32.5 -6.5t-27.5 -23q-92 -150 -135 -337q-12 -51 -20.5 -113.5t-6.5 -82.5q2 -17 15.5 -33.5t26.5 -24.5l12 -8q0 11 2.5 29.5t18.5 66.5t44 84q32 41 59 69.5t38 36.5l11 8
q-3 -7 -8 -20t-16.5 -48.5t-18 -66t-6 -65t12.5 -53.5q19 -31 41 -40.5t34 -3.5zM1636 595q-13 22 -14 60.5t9.5 87t26 99t37 106t40 99t38.5 85.5q171 3 187 4q37 3 67.5 26.5t42.5 45.5l11 21q-64 -25 -159 -26h-97.5t-109 -0.5t-87.5 -2.5t-72 -5q-39 -5 -68.5 -31
t-39.5 -50l-11 -23q8 11 50 20t83 12q47 3 111 4q-2 -6 -53 -141.5t-70 -214.5q-8 -38 -3.5 -67.5t18 -50t27.5 -33.5t25 -19zM2273 817q22 37 30 65.5t6 43t-10 32.5q-23 55 -88 31q-31 -12 -62.5 -40t-47.5 -50l-16 -22q72 174 75 176l-25 1q-57 -3 -73 -33
q-35 -98 -76 -213q-1 -4 -3.5 -11t-3.5 -10q-50 -29 -63 -35q14 47 40 115.5t44 113.5l19 45q-69 -3 -91 -28q-5 -6 -43.5 -62t-72.5 -95.5t-47 -30.5t40 106t62 106q-10 0 -25 -1.5t-45 -13.5t-41 -33q-13 -24 -21 -40t-18 -38.5t-15.5 -38t-9.5 -32t-3 -28t7 -19.5
q10 -12 32.5 -13t51.5 14t52 44l87 115q-41 -127 -73 -218q-17 -11 -49.5 -29.5t-45 -27t-32.5 -26.5t-38 -42q-26 -34 -30 -67.5t10.5 -53t49 -17.5t77.5 33q28 20 50.5 58t33 67t35.5 105q46 28 60 34q-35 -98 -46 -151q-7 -24 7.5 -53.5t31.5 -47.5l18 -18q-9 31 42 203
q27 90 70 163q29 50 80 86.5t66 24.5q7 -8 1.5 -37.5t-18.5 -55.5q-16 -32 -38 -55.5t-42 -34t-38 -16.5t-29 -6l-10 -1q5 -4 13.5 -9t34 -12.5t50 -5t56.5 24t57 64.5zM2480 987q36 39 65 29q23 -8 13 -37q-8 -19 -31 -40q-17 -15 -39 -20t-36 -2l-14 3q2 -5 6 -12
t21.5 -18.5t40.5 -10.5q48 3 71.5 33t21.5 70q-2 25 -29 45.5t-68 22.5t-88 -31q-41 -30 -69.5 -77.5t-28 -101.5t43.5 -88q31 -24 73.5 -17t81 28t60.5 45q7 8 11 22.5t4 25.5l1 10q-31 -50 -103.5 -82.5t-90.5 -1.5q-19 31 10 94.5t73 110.5zM1282 94q-16 0 -28 10
q-9 8 -9 25q0 15 6 27t17 19t27 7q17 0 27 -9t10 -25q0 -15 -6 -27t-17 -19q-13 -8 -27 -8zM1733 94q-15 0 -27 10q-10 9 -10 25q0 15 6 27q6 11 18 19q11 7 26 7q18 0 28 -9t10 -25q0 -13 -7 -27q-6 -12 -17 -19q-13 -8 -27 -8zM717 102q-10 -6 -28 -6h-31l17 85h27
q18 0 29 -9q10 -9 10 -24t-6 -27q-6 -11 -18 -19zM511 0l56 282h1728l-56 -282h-1728zM2066 207l-5 -26h44l-22 -111h32l22 111h44l5 26h-120zM1888 207l-27 -137h31l17 86l51 -86h27l27 137h-31l-17 -86l-52 86h-26zM1674 169q-10 -19 -10 -42q0 -17 8 -31q7 -13 23 -21
t36 -8q24 0 44 11q19 10 30 29q11 20 11 43q0 17 -8 31q-7 13 -23 21q-14 7 -36 7q-25 0 -44 -10q-20 -11 -31 -30zM1528 207l-28 -137h32l10 50h63l6 25h-64l7 36h72l5 26h-103zM1223 169q-11 -20 -11 -42q0 -17 8 -31q7 -12 24 -21q16 -8 35 -8q25 0 45 11q18 10 30 30
q10 19 10 42q0 17 -8 31q-7 13 -23 21q-14 7 -36 7q-25 0 -44 -10q-18 -10 -30 -30zM1013 207l-28 -137h30l17 82l28 -68h14l52 67l-16 -81h30l27 137h-27l-67 -86l-34 86h-26zM846 207l-28 -137h107l5 25h-75l6 32h64l5 25h-64l6 29h72l6 26h-104zM648 207l-27 -137h67
q27 0 44 9q21 11 31 29q10 17 10 42q0 16 -8 30q-7 12 -23 20q-14 7 -36 7h-58z" />
    <glyph glyph-name="zero" unicode="0" horiz-adv-x="1034" 
d="M102 904q0 172 121.5 293t293.5 121t293.5 -121t121.5 -293v-490q0 -172 -121.5 -293t-293.5 -121t-293.5 121t-121.5 293v490zM517 235q75 0 127.5 52.5t52.5 127.5v488q0 75 -52.5 127.5t-127.5 52.5t-127.5 -52.5t-52.5 -127.5v-488q0 -75 52.5 -127.5t127.5 -52.5z
" />
    <glyph glyph-name="one" unicode="1" 
d="M795 905q34 52 48 -21q11 -61 4 -112l-1 -5v-1q-34 18 -52 62t1 77zM751 875q3 -45 27 -83.5t61 -51.5q-17 -61 -39 -79.5t-50 -10.5q-24 7 -24.5 72.5t14.5 116.5q3 12 11 36zM1703 583q39 56 129 98q-31 -85 -53 -125.5t-48 -49.5q-41 -14 -48.5 11.5t20.5 65.5z
M2704 921q3 -45 -19 -86q10 -17 10 -34q0 -63 -31 -97q-33 -37 -91 -66t-113 -29t-94 31q-15 12 -32 34q-62 -70 -146 -70q-33 0 -63 10q-1 -2 -2 -4.5t-1 -3.5q-44 -150 -42 -172q10 -43 -26 -66q-15 -9 -32 -9q-22 0 -40 16q-37 37 -54 65q-24 -37 -61 -64
q-62 -44 -118 -44q-21 0 -41 10t-32 21t-30 31q-23 25 -44 65q-15 30 -12 66l-6 6q-24 -11 -48 -11q-69 0 -114 73q-6 9 -11 25l-8 8l-7 -44q-2 -34 -30 -50q-14 -8 -30 -8q-15 0 -29 8q-8 4 -21 14q-7 -4 -14 -5q-6 -2 -22 -2q-66 0 -101 53q-39 -45 -81 -48
q-3 0 -7.5 -0.5t-6.5 -0.5q-64 0 -97 45q-62 -87 -150 -87q-62 0 -110 46q2 -34 5 -50q6 -38 -28 -60q-17 -10 -32 -10q-18 0 -34 11q-6 4 -17 13.5t-34.5 38t-42.5 61.5q-18 21 -36 51q-8 -80 10 -114q16 -31 -1 -59q-18 -30 -51 -30h-1q-65 0 -111 54q-73 87 -83 160
q-16 -11 -34 -11q-12 0 -21 4q-44 17 -65 58.5t-18 69.5l3.5 17.5t14 34t31 47.5t56 45.5t86.5 38.5q30 106 52 161t32 65.5t27 16.5q11 4 25 4q50 0 122 -74q3 -3 7 -9q37 85 94 177q36 58 108 58q55 0 97 -25q14 -8 44.5 -53.5t31.5 -61.5q2 -33 -28 -53q-14 -9 -35 -35
q41 -22 72 -61q11 -13 12 -30l4 -4q19 31 39 50q43 41 106 41q71 0 105 -47q3 0 13.5 1.5t15.5 1.5q37 118 111 240q36 58 108 58q35 0 97 -25q31 -17 33 -50q0 -1 -0.5 -2t-0.5 -2q61 4 233 4h102q17 0 33.5 1.5t29.5 3.5t25 4t21 4.5t15.5 4.5t10.5 3l3 1q9 4 22 4
q25 0 43 -18q8 -8 26 -36t18 -29q24 -35 12 -65q-5 -12 -15 -28q44 -8 53 -46q2 -8 2 -13q8 2 25 2q50 0 84 -36q24 29 50 47q58 43 122 43q53 0 90.5 -23t72.5 -72q37 -43 40 -94zM598 552q-14 83 5.5 195.5t57 211t84 176.5t85.5 103q-10 5 -26 11.5t-50 5t-50 -27.5
q-66 -107 -106 -207.5t-49.5 -172.5t-10 -111.5t4.5 -65.5q-24 41 -36 95.5t-12.5 102t2.5 89.5t7 67l5 24l-7 7t-16 14.5t-22 18.5t-21 13t-17 3q-21 -7 -83 -237q-47 -10 -83 -27.5t-54 -36.5t-29 -36.5t-13 -28.5l-2 -11q27 40 162 68q-14 -54 -21 -99q-7 -51 -1.5 -83.5
t20.5 -50.5t30 -26.5t27 -9.5l12 -2q-20 36 -20.5 96t12.5 120t29 114.5t30 89.5l13 34q3 -119 24 -217q9 -41 24.5 -77.5t31 -59.5t30.5 -40t24 -24zM1144 717q7 -28 25 -41t33 -12l14 1q-3 3 -6.5 11t-9.5 40.5t4 79.5q6 39 17 85t19 73l8 26q-67 3 -84 -28
q-29 -53 -51.5 -106t-46.5 -89q-37 -54 -52 -40q-13 11 2.5 68t42.5 111q32 62 50 78t55 5q9 24 -24 38q-42 18 -84 -5l-17 -13q-24 -23 -47.5 -74t-35.5 -106q-22 -42 -55 -56q14 61 13 93q-3 76 -28.5 103.5t-66.5 22.5q32 22 76 9q-2 3 -6 7.5t-17.5 17.5t-26.5 19
t-33.5 11.5t-37.5 -3.5q-31 -11 -64 -74.5t-48.5 -139.5t-1.5 -119q11 -33 34.5 -55t51.5 -28t60.5 9.5t58.5 52.5q18 26 27 47q28 6 57 35q-3 -31 1 -53q9 -54 70 -50q26 2 62.5 58t59.5 112l24 55q-2 -5 -4 -12.5t-8 -31.5t-8.5 -43t-5 -46.5t3.5 -42.5zM1516 652l-5 5
t-9.5 16t-10 28t-3 41.5t7.5 56.5q11 45 25.5 87.5t22.5 62.5l9 20l-57 27q-10 5 -19 -1q-19 -14 -43 -34.5t-61.5 -64.5t-63.5 -91q33 145 99 283t119 172q-4 2 -10 4.5t-24 7.5t-33 5.5t-32.5 -6.5t-27.5 -23q-92 -150 -135 -337q-12 -51 -20.5 -113.5t-6.5 -82.5
q2 -17 15.5 -33.5t26.5 -24.5l12 -8q0 11 2.5 29.5t18.5 66.5t44 84q32 41 59 69.5t38 36.5l11 8q-3 -7 -8 -20t-16.5 -48.5t-18 -66t-6 -65t12.5 -53.5q19 -31 41 -40.5t34 -3.5zM1636 595q-13 22 -14 60.5t9.5 87t26 99t37 106t40 99t38.5 85.5q171 3 187 4
q37 3 67.5 26.5t42.5 45.5l11 21q-64 -25 -159 -26q-69 -1 -135 0t-132.5 -0.5t-98.5 -6.5q-39 -5 -68.5 -31t-39.5 -50l-11 -24q8 11 50.5 21t82.5 12q47 3 111 4q-2 -7 -54 -142.5t-70 -214.5q-8 -38 -3.5 -67.5t18 -50t28 -33.5t25.5 -19zM2273 817q22 37 30 65.5t6 43
t-10 32.5q-23 55 -88 31q-31 -12 -62.5 -40t-47.5 -50l-16 -22q72 174 75 176l-25 1q-57 -3 -73 -33q-35 -98 -76 -213q-1 -4 -3.5 -10t-3.5 -10q-59 -34 -63 -36q14 47 40 115.5t44 113.5l19 45q-69 -3 -91 -28q-5 -6 -43.5 -62t-72.5 -95.5t-47 -30.5t40 106t62 106
q-10 0 -25 -1t-45 -13t-41 -33q-12 -24 -20.5 -40.5t-18.5 -38.5t-15.5 -38t-9.5 -32.5t-3 -28t7 -19.5q10 -12 32.5 -13t52 14t52.5 44l86 115q-41 -127 -73 -218q-17 -11 -49.5 -29.5t-45 -27t-32.5 -26.5t-38 -42q-26 -34 -30 -67.5t10.5 -53t49 -17.5t77.5 33
q28 20 50.5 58t33 67t35.5 105q46 28 60 34q-35 -98 -46 -151q-7 -24 7.5 -53.5t31.5 -47.5l18 -18q-9 31 42 203q28 92 70 164q29 50 80 86.5t66 24.5q7 -8 1.5 -38t-18.5 -56q-16 -32 -38 -55.5t-42 -34t-38 -16.5t-29 -6l-10 -1q5 -4 13.5 -9t34 -12.5t50 -5t56.5 24
t57 64.5zM2480 988q36 39 65 29q23 -8 13 -37q-8 -19 -31 -40q-17 -15 -39 -20t-36 -2l-14 2q2 -5 6 -12t21.5 -18.5t40.5 -10.5q48 3 71.5 33t21.5 70q-2 25 -29 45.5t-68 22.5t-88 -31q-41 -30 -69.5 -77.5t-28 -101.5t43.5 -88q31 -24 73.5 -16.5t81 28.5t60.5 45
q7 8 11 22.5t4 24.5l1 10q-31 -50 -103.5 -82.5t-90.5 -1.5q-19 31 10 95t73 111zM1282 94q-16 0 -28 10q-9 8 -9 25q0 15 6 27t17 19t27 7q17 0 27 -9t10 -25q0 -15 -6 -27t-17 -19q-13 -8 -27 -8zM1734 94q-16 0 -28 10q-10 9 -10 25q0 15 6 27q6 11 18 19q11 7 26 7
q18 0 28 -9t10 -25q0 -13 -7 -27q-6 -12 -17 -19q-13 -8 -26 -8zM511 0l56 282h1728l-56 -282h-1728zM2066 207l-5 -26h44l-22 -111h32l22 111h44l5 26h-120zM1888 207l-27 -137h31l17 86l51 -86h27l27 137h-31l-17 -86l-52 86h-26zM1674 169q-10 -19 -10 -42q0 -17 8 -31
q7 -13 23 -21t36 -8q24 0 44 11q18 10 30 30q11 20 11 42q0 17 -8 31q-7 13 -23 21q-14 7 -36 7q-25 0 -44 -10q-20 -11 -31 -30zM1528 207l-28 -137h32l10 50h63l6 25h-64l7 37h72l5 25h-103zM1223 169q-11 -20 -11 -42q0 -17 8 -31q7 -12 24 -21q16 -8 35 -8q25 0 45 11
q18 10 30 30q10 19 10 42q0 17 -8 31q-7 13 -23 21q-14 7 -36 7q-25 0 -44 -10q-18 -10 -30 -30zM1013 207l-28 -137h30l17 82l28 -68h14l52 67l-16 -81h30l27 137h-27l-67 -85l-34 85h-26zM846 207l-28 -137h107l5 25h-75l6 32h64l5 25h-64l6 30h72l6 25h-104zM648 207
l-27 -137h67q25 0 44 10q21 12 31 28q10 17 10 42q0 16 -8 30q-7 12 -23 20q-14 7 -36 7h-58zM717 103q-14 -7 -28 -7h-31l17 85h27q18 0 29 -9q10 -9 10 -24t-6 -27q-5 -10 -18 -18z" />
    <glyph glyph-name="two" unicode="2" horiz-adv-x="1034" 
d="M860 235q30 0 51 -21t21 -51v-91q0 -30 -21 -51t-51 -21h-693q-27 0 -46 19t-19 46q0 21 12 37l524 743q25 36 27 78.5t-15 77t-51.5 58t-78.5 24.5h-3q-83 0 -136 -53q-16 -16 -39 -19t-43 8l-74 39q-37 20 -45 55t15 61q59 68 142 106q86 38 180 38q93 0 180 -38
q139 -63 201 -197q26 -56 21.5 -117.5t-37.5 -113.5l-395 -617h373z" />
    <glyph glyph-name="three" unicode="3" 
d="M1703 583q39 56 129 98q-31 -85 -53 -125.5t-48 -49.5q-41 -14 -48.5 11.5t20.5 65.5zM751 875q3 -45 27 -83.5t61 -51.5q-17 -61 -39 -79.5t-50 -10.5q-24 7 -24.5 72.5t14.5 116.5q3 12 11 36zM795 905q34 52 48 -21q11 -61 4 -112l-1 -5v-1q-34 18 -52 62t1 77z
M2704 921q3 -45 -19 -86q10 -17 10 -34q0 -63 -31 -97q-33 -37 -91 -66t-113 -29t-94 31q-15 12 -32 34q-62 -70 -146 -70q-33 0 -63 10q-1 -2 -2 -4.5t-1 -3.5q-44 -150 -42 -172q10 -43 -26 -66q-15 -9 -32 -9q-22 0 -40 16q-37 37 -54 65q-24 -37 -61 -64
q-62 -44 -118 -44q-21 0 -41 10t-32 21t-30 31q-23 25 -44 65q-15 30 -12 66l-6 6q-24 -11 -48 -11q-69 0 -114 73q-6 9 -11 25l-8 8l-7 -44q-2 -34 -30 -50q-14 -8 -30 -8q-15 0 -29 8l-21 14q-7 -4 -14 -5q-6 -2 -22 -2q-66 0 -101 53q-39 -45 -81 -48q-3 0 -7.5 -0.5
t-6.5 -0.5q-64 0 -97 45q-62 -87 -150 -87q-62 0 -110 46q2 -34 5 -50q6 -38 -28 -60q-17 -10 -32 -10q-18 0 -34 11q-6 4 -17 13.5t-34.5 38t-42.5 61.5q-18 21 -36 51q-8 -80 10 -114q16 -31 -1 -59q-18 -30 -51 -30h-1q-65 0 -111 54q-73 87 -83 160q-16 -11 -34 -11
q-12 0 -21 4q-44 17 -65 58.5t-18 69.5l3.5 17.5t14 34t31 47.5t56 45.5t86.5 38.5q30 106 52 161t32 65.5t27 16.5q11 4 25 4q50 0 122 -74q3 -3 7 -9q37 85 94 177q36 58 108 58q55 0 97 -25q14 -8 44.5 -53.5t31.5 -61.5q2 -34 -27 -53q-14 -9 -35 -35q39 -21 71 -61
q11 -13 12 -30l4 -4q19 31 39 50q43 41 106 41q71 0 105 -47q3 0 13.5 1.5t15.5 1.5q37 118 111 240q36 58 108 58q35 0 97 -25q31 -17 33 -50q0 -1 -0.5 -2t-0.5 -2q61 4 233 4h102q17 0 33.5 1.5t29.5 3.5t25 4t21 4.5t15.5 4.5t10.5 3l3 1q9 4 22 4q25 0 43 -18
q8 -8 26 -36t18 -29q25 -36 12 -65q-5 -12 -15 -28q44 -8 53 -46q2 -8 2 -13q8 2 25 2q50 0 84 -36q24 29 50 47q58 43 122 43q52 0 90 -23t73 -72q37 -43 40 -94zM598 552q-14 83 5.5 195.5t57 211t84 176.5t85.5 103q-10 5 -26 11.5t-50 5t-50 -27.5q-66 -107 -106 -207.5
t-49.5 -172.5t-10 -111.5t4.5 -65.5q-24 41 -36 95.5t-12.5 102t2.5 89.5t7 67l5 24l-7 7t-16 14.5t-22 18.5t-21 13t-17 3q-21 -7 -83 -237q-47 -10 -83 -27.5t-54 -36.5t-29 -36.5t-13 -28.5l-2 -11q27 40 162 68q-14 -54 -21 -99q-7 -51 -1.5 -83.5t20.5 -50.5t30 -26.5
t27 -9.5l12 -2q-20 36 -20.5 96t12.5 120t29 114.5t30 89.5l13 34q3 -119 24 -217q9 -41 24.5 -77.5t31 -59.5t30.5 -40t24 -24zM1144 717q7 -28 25 -41t33 -12l14 1q-3 3 -6.5 11t-9.5 40.5t4 79.5q6 39 17 85t19 73l8 26q-67 3 -84 -28q-28 -52 -51.5 -105.5t-47.5 -89.5
q-36 -54 -51 -40q-13 11 2.5 68t42.5 111q32 62 50 78t55 5q9 24 -24 38q-42 18 -84 -5l-17 -13q-24 -23 -47.5 -74t-35.5 -106q-22 -42 -55 -56q14 61 13 93q-3 76 -28.5 103.5t-66.5 22.5q32 22 76 9q-2 3 -6 7.5t-17.5 17.5t-26.5 19t-33.5 11.5t-37.5 -3.5
q-31 -11 -64 -74.5t-48.5 -139t-1.5 -118.5q11 -33 34.5 -55t51.5 -28.5t60.5 9t58.5 52.5q18 26 27 47q28 6 57 35q-3 -31 1 -53q9 -54 70 -50q26 2 62.5 58t59.5 112l24 55q-2 -5 -4 -12.5t-8 -31.5t-8.5 -43t-5 -46.5t3.5 -42.5zM1516 652l-5 5t-9.5 16t-10 28t-3 41.5
t7.5 56.5q11 45 25.5 87.5t22.5 62.5l9 20l-57 27q-10 5 -19 -1q-19 -14 -43 -34.5t-61.5 -64.5t-63.5 -91q33 145 99 283t119 172q-4 2 -10 4.5t-24 7.5t-33 5.5t-32.5 -6.5t-27.5 -23q-92 -150 -135 -337q-12 -51 -20.5 -113.5t-6.5 -82.5q2 -17 15.5 -33.5t26.5 -24.5
l12 -8q0 11 2.5 29.5t18.5 66.5t44 84q32 41 59 69.5t38 36.5l11 8q-3 -7 -8 -20t-16.5 -48.5t-18 -66t-6 -65t12.5 -53.5q19 -31 41 -40.5t34 -3.5zM1636 595q-13 22 -14 60.5t9.5 87t26 99t37 106t40 99t38.5 85.5q171 3 187 4q37 3 67.5 26.5t42.5 45.5l11 21
q-64 -25 -159 -26q-69 -1 -135 0t-132.5 -0.5t-98.5 -6.5q-39 -5 -68.5 -31t-39.5 -50l-11 -24q8 11 50.5 21t82.5 12q47 3 111 4q-2 -7 -54 -142.5t-70 -214.5q-8 -38 -3.5 -67.5t18 -50t28 -33.5t25.5 -19zM2273 817q22 37 30 65.5t6 43t-10 32.5q-23 55 -88 31
q-31 -12 -62.5 -40t-47.5 -50l-16 -22q72 174 75 176l-25 1q-57 -3 -73 -33q-35 -98 -76 -213q-1 -4 -3.5 -10t-3.5 -10q-59 -34 -63 -36q14 47 40 115.5t44 113.5l19 45q-69 -3 -91 -28q-5 -6 -43.5 -62t-72.5 -95.5t-47 -30.5t40 106t62 106q-10 0 -25 -1t-45 -13t-41 -33
q-12 -24 -20.5 -40.5t-18.5 -38.5t-15.5 -38t-9.5 -32.5t-3 -28t7 -19.5q10 -12 32.5 -13t52 14t52.5 44l86 115q-41 -127 -73 -218q-17 -11 -49.5 -29.5t-45 -27t-32.5 -26.5t-38 -42q-26 -34 -30 -67.5t10.5 -53t49 -17.5t77.5 33q28 20 50.5 58t33 67t35.5 105
q46 28 60 34q-35 -98 -46 -151q-7 -24 7.5 -53.5t31.5 -47.5l18 -18q-9 31 42 203q28 92 70 164q29 50 80 86.5t66 24.5q7 -8 1.5 -38t-18.5 -56q-16 -32 -38 -55.5t-42 -34t-38 -16.5t-29 -6l-10 -1q5 -4 13.5 -9t34 -12.5t50 -5t56.5 24t57 64.5zM2480 988q36 39 65 29
q24 -8 13 -37q-7 -19 -31 -40q-17 -15 -39 -20t-36 -2l-14 2q2 -5 6 -12t21.5 -18.5t40.5 -10.5q48 3 71.5 33t21.5 70q-2 25 -29 45.5t-68 22.5t-88 -31q-41 -30 -69.5 -77.5t-28 -101.5t43.5 -88q31 -24 73.5 -16.5t81 28.5t60.5 45q7 8 11 22.5t4 24.5l1 10
q-31 -50 -103.5 -82.5t-90.5 -1.5q-19 31 10 95t73 111zM1282 94q-16 0 -28 10q-9 8 -9 25q0 15 6 27t17 19t27 7q17 0 27 -9t10 -25q0 -15 -6 -27t-17 -19q-13 -8 -27 -8zM1733 94q-15 0 -27 10q-10 9 -10 25q0 15 6 27q6 11 18 19q11 7 26 7q18 0 28 -9t10 -25
q0 -13 -7 -27q-6 -12 -17 -19q-13 -8 -27 -8zM717 103q-14 -7 -28 -7h-31l17 85h27q18 0 29 -9q10 -9 10 -24t-6 -27q-5 -10 -18 -18zM511 0l56 282h1728l-56 -282h-1728zM2066 207l-5 -26h44l-22 -111h32l22 111h44l5 26h-120zM1888 207l-28 -137h32l17 86l51 -86h27
l27 137h-31l-17 -86l-52 86h-26zM1674 169q-10 -19 -10 -42q0 -17 8 -31q7 -13 23 -21t36 -8q24 0 44 11q18 10 30 30q11 20 11 42q0 17 -8 31q-7 13 -23 21q-14 7 -36 7q-25 0 -44 -10q-20 -11 -31 -30zM1528 207l-28 -137h32l10 50h63l6 25h-64l7 37h72l5 25h-103z
M1223 169q-11 -20 -11 -42q0 -17 8 -31q7 -12 24 -21q16 -8 35 -8q25 0 45 11q18 10 30 30q10 19 10 42q0 17 -8 31q-7 13 -23 21q-14 7 -36 7q-25 0 -44 -10q-18 -10 -30 -30zM1013 207l-28 -137h30l17 82l28 -68h14l52 67l-16 -81h30l27 137h-27l-67 -85l-34 85h-26z
M846 207l-28 -137h107l5 25h-75l6 32h64l5 25h-64l6 30h72l6 25h-104zM648 207l-27 -137h67q25 0 44 10q21 12 31 28q10 17 10 42q0 16 -8 30q-7 12 -23 20q-14 7 -36 7h-58z" />
    <glyph glyph-name="four" unicode="4" horiz-adv-x="1034" 
d="M832 776h44q23 0 39.5 -16t16.5 -39v-123q0 -23 -16.5 -39.5t-39.5 -16.5h-44v-486q0 -23 -16.5 -39.5t-39.5 -16.5h-123q-23 0 -39 16.5t-16 39.5v486h-429q-28 0 -47.5 19.5t-19.5 47.5v102q0 53 38 93l453 473q39 41 97 41h75q28 0 47.5 -19.5t19.5 -47.5v-475z
M439 776h159v167z" />
    <glyph glyph-name="five" unicode="5" horiz-adv-x="1034" 
d="M898 542q34 -73 34 -154q0 -161 -121.5 -274.5t-293.5 -113.5q-98 0 -180 38q-82 37 -140 103t-81 150q-10 37 14 67t62 30h71q65 0 83 -47q17 -47 64.5 -76.5t106.5 -29.5q75 0 127.5 44.5t52.5 108.5t-52.5 109t-127.5 45h-324q-38 0 -64.5 26.5t-26.5 63.5v595
q0 37 27 64t64 27h593q32 0 55.5 -23t23.5 -55v-78q0 -32 -23.5 -55.5t-55.5 -23.5h-381q-29 0 -48.5 -19.5t-19.5 -48.5v-170q0 -29 20 -49t48 -20h112q126 0 229 -64.5t152 -169.5z" />
    <glyph glyph-name="six" unicode="6" 
d="M2704 921q3 -45 -19 -86q10 -17 10 -34q0 -63 -31 -97q-33 -37 -91 -66t-113 -29t-94 31q-15 12 -32 34q-62 -70 -146 -70q-33 0 -63 10q-1 -2 -2 -4.5t-1 -3.5q-44 -150 -42 -172q10 -43 -26 -66q-15 -9 -32 -9q-22 0 -40 16q-37 37 -54 65q-24 -37 -61 -64
q-62 -44 -118 -44q-21 0 -41 10t-32 21t-30 31q-23 25 -44 65q-15 30 -12 66l-6 6q-24 -11 -48 -11q-69 0 -114 73q-6 9 -11 25l-8 8l-7 -44q-2 -34 -31 -50q-14 -8 -29 -8t-29 8l-21 14q-7 -4 -14 -5q-6 -2 -22 -2q-66 0 -101 53q-39 -45 -81 -48q-3 0 -7.5 -0.5t-6.5 -0.5
q-64 0 -97 45q-62 -87 -150 -87q-62 0 -110 46q2 -42 4 -50q6 -38 -27 -60q-17 -10 -32 -10q-18 0 -34 11q-6 4 -17 13.5t-34.5 38t-42.5 61.5q-18 21 -36 51q-8 -80 10 -114q16 -31 -1 -59q-18 -30 -51 -30h-1q-65 0 -111 54q-73 87 -83 160q-16 -11 -34 -11q-12 0 -21 4
q-44 17 -65 58.5t-18 69.5l3.5 17.5t14 34t31 47.5t56 45.5t86.5 38.5q30 106 52 161t32 65.5t27 16.5q11 4 25 4q50 0 122 -74q3 -3 7 -9q37 85 94 177q36 58 108 58q55 0 97 -25q14 -8 44.5 -53.5t31.5 -61.5q2 -34 -27 -53q-16 -10 -36 -35q41 -22 72 -61q11 -13 12 -30
l4 -4q19 31 39 50q43 41 106 41q71 0 105 -47q3 0 13.5 1.5t15.5 1.5q40 124 111 240q36 58 108 58q35 0 97 -25q31 -17 33 -50q0 -1 -0.5 -2t-0.5 -2q61 4 233 4h102q17 0 33.5 1.5t29.5 3.5t25 4t21 4.5t15.5 4.5t10.5 3l3 1q9 4 22 4q25 0 43 -18q8 -8 26 -36t18 -29
q25 -36 12 -65q-5 -12 -15 -28q44 -8 53 -46q2 -8 2 -13q8 2 25 2q50 0 84 -36q24 29 50 47q58 43 122 43q53 0 90.5 -23t72.5 -72q37 -43 40 -94zM598 552q-14 83 5.5 195.5t57 211t84 176.5t85.5 103q-10 5 -26 11.5t-50 5t-50 -27.5q-66 -107 -106 -207.5t-49.5 -172.5
t-10 -111.5t4.5 -65.5q-24 41 -36 95.5t-12.5 102t2.5 89.5t7 67l5 24l-7 7t-16 14.5t-22 18.5t-21 13t-17 3q-21 -7 -83 -237q-47 -10 -83 -27.5t-54 -36.5t-29 -36.5t-13 -28.5l-2 -11q27 40 162 68q-14 -54 -21 -99q-7 -51 -1.5 -83.5t20.5 -50.5t30 -26.5t27 -9.5l12 -2
q-20 36 -20.5 96t12.5 120t29 114.5t30 89.5l13 34q3 -119 24 -217q9 -41 24.5 -77.5t31 -59.5t30.5 -40t24 -24zM1144 717q7 -28 25 -41t33 -12l14 1q-3 3 -6.5 11t-9.5 40.5t4 79.5q6 39 17 85t19 73l8 26q-67 3 -84 -28q-29 -53 -51.5 -106t-46.5 -89q-37 -54 -52 -40
q-13 11 2.5 68t42.5 111q32 62 50 78t55 5q9 24 -24 38q-42 18 -84 -5l-17 -13q-24 -23 -47.5 -74t-35.5 -106q-22 -42 -55 -56q14 61 13 93q-3 76 -28.5 103.5t-66.5 22.5q32 22 76 9q-2 3 -6 7.5t-17.5 17.5t-26.5 19t-33.5 11.5t-37.5 -3.5q-31 -11 -64 -75t-48.5 -140
t-1.5 -118q11 -33 34.5 -55t51.5 -28t60.5 9.5t58.5 52.5q18 26 27 47q28 6 57 35q-3 -31 1 -53q9 -54 70 -50q26 2 62.5 58t59.5 112l24 55q-2 -5 -4 -12.5t-8 -31.5t-8.5 -43t-5 -46.5t3.5 -42.5zM1516 652l-5 5t-9.5 16t-10 28t-3 41.5t7.5 56.5q11 45 25.5 87.5
t22.5 62.5l9 20l-57 27q-10 5 -19 -1q-19 -14 -43 -34.5t-61.5 -64.5t-63.5 -91q33 145 99 283t119 172q-4 2 -10 4.5t-24 7.5t-33 5.5t-32.5 -6.5t-27.5 -23q-92 -150 -135 -337q-12 -51 -20.5 -113.5t-6.5 -82.5q2 -17 15.5 -33.5t26.5 -24.5l12 -8q0 11 2.5 29.5
t18.5 66.5t44 84q32 41 59 69.5t38 36.5l11 8q-3 -7 -8 -20t-16.5 -48.5t-18 -66t-6 -65t12.5 -53.5q19 -31 41 -40.5t34 -3.5zM1636 595q-13 22 -14 60.5t9.5 87t26 99t37 106t40 99t38.5 85.5q171 3 187 4q37 3 67.5 26.5t42.5 45.5l11 21q-64 -25 -159 -26q-69 -1 -135 0
t-132.5 -0.5t-98.5 -6.5q-39 -5 -68.5 -31t-39.5 -50l-11 -24q8 11 50.5 21t82.5 12q22 1 111 3q-3 -10 -54 -143.5t-70 -212.5q-8 -38 -3.5 -67.5t18 -50t28 -33.5t25.5 -19zM2273 817q22 37 30 65.5t6 43t-10 32.5q-23 55 -88 31q-31 -12 -62.5 -40t-47.5 -50l-16 -22
q72 174 75 176l-25 1q-57 -3 -73 -33q-35 -98 -76 -213q-1 -4 -3.5 -10t-3.5 -10q-59 -34 -63 -36q14 47 40 115.5t44 113.5l19 45q-69 -3 -91 -28q-5 -6 -43.5 -62t-72.5 -95.5t-47 -30.5t40 106t62 106q-10 0 -25 -1t-45 -13t-41 -33q-12 -24 -20.5 -40.5t-18.5 -38.5
t-15.5 -38t-9.5 -32.5t-3 -28t7 -19.5q10 -12 32.5 -13t52 14t52.5 44l86 115q-41 -127 -73 -218q-17 -11 -49.5 -29.5t-45 -27t-32.5 -26.5t-38 -42q-26 -34 -30 -67.5t10.5 -53t49 -17.5t77.5 33q28 20 50.5 58t33 67t35.5 105q46 28 60 34q-35 -98 -46 -151
q-7 -24 7.5 -53.5t31.5 -47.5l18 -18q-9 31 42 203q28 92 70 164q29 50 80 86.5t66 24.5q7 -8 1.5 -38t-18.5 -56q-16 -32 -38 -55.5t-42 -34t-38 -16.5t-29 -6l-10 -1q5 -4 13.5 -9t34 -12.5t50 -5t56.5 24t57 64.5zM2480 988q36 39 65 29q24 -8 13 -37q-7 -19 -31 -40
q-17 -15 -39 -20t-36 -2l-14 2q2 -5 6 -12t21.5 -18.5t40.5 -10.5q48 3 71.5 33t21.5 70q-2 25 -29 45.5t-68 22.5t-88 -31q-41 -30 -69.5 -77.5t-28 -101.5t43.5 -88q31 -24 73.5 -16.5t81 28.5t60.5 45q7 8 11 22.5t4 24.5l1 10q-31 -50 -103.5 -82.5t-90.5 -1.5
q-19 31 10 95t73 111zM1703 583q39 56 129 98q-31 -85 -53 -125.5t-48 -49.5q-41 -14 -48.5 11.5t20.5 65.5zM795 905q34 52 48 -21q11 -61 4 -112l-1 -5v-1q-34 18 -52 62t1 77zM751 875q3 -45 27 -83.5t61 -51.5q-17 -61 -39 -79.5t-50 -10.5q-24 7 -24.5 72.5t14.5 116.5
q3 12 11 36zM1734 94q-16 0 -28 10q-10 9 -10 25q0 15 6 27q6 11 18 19q11 7 26 7q18 0 28 -9t10 -25q0 -13 -7 -27q-6 -12 -17 -19q-13 -8 -26 -8zM1282 94q-16 0 -28 10q-9 8 -9 25q0 15 6 27t17 19t27 7q17 0 27 -9t10 -25q0 -15 -6 -27t-17 -19q-13 -8 -27 -8zM511 0
l56 282h1728l-56 -282h-1728zM2066 207l-5 -26h44l-22 -111h32l22 111h44l5 26h-120zM1888 207l-27 -137h31l17 86l51 -86h27l27 137h-31l-17 -86l-52 86h-26zM1675 169q-11 -20 -11 -42q0 -17 8 -31q7 -13 23 -21t36 -8q24 0 44 11q18 10 30 30q11 20 11 42q0 17 -8 31
q-7 13 -23 21q-14 7 -36 7q-25 0 -44 -10q-18 -10 -30 -30zM1528 207l-28 -137h32l10 50h63l6 25h-64l7 37h72l5 25h-103zM1223 169q-11 -20 -11 -42q0 -17 8 -31q7 -12 24 -21q16 -8 35 -8q25 0 45 11q18 10 30 30q10 19 10 42q0 17 -8 31q-7 13 -23 21q-14 7 -36 7
q-25 0 -44 -10q-18 -10 -30 -30zM1013 207l-28 -137h30l17 82l28 -68h14l52 67l-16 -81h30l27 137h-27l-67 -85l-34 85h-26zM846 207l-28 -137h107l5 25h-75l6 32h64l5 25h-64l6 30h72l6 25h-104zM648 207l-27 -137h67q25 0 44 10q21 12 31 28q10 17 10 42q0 16 -8 30
q-7 12 -23 20q-14 7 -36 7h-58zM717 103q-14 -7 -28 -7h-31l17 85h27q18 0 29 -9q10 -9 10 -24t-6 -27q-5 -10 -18 -18z" />
    <glyph glyph-name="seven" unicode="7" horiz-adv-x="786" 
d="M594 1318q38 0 64 -26t26 -64v-113q0 -16 -4 -28l-338 -1031q-10 -32 -40.5 -47.5t-62.5 -4.5l-68 22q-32 11 -47 40.5t-5 61.5l313 955h-252q-32 0 -55 23t-23 55v79q0 32 23 55t55 23h414z" />
    <glyph glyph-name="eight" unicode="8" 
d="M751 875q3 -45 27 -83.5t61 -51.5q-17 -61 -39 -79.5t-50 -10.5q-24 7 -24.5 72.5t14.5 116.5q3 12 11 36zM1703 583q39 56 129 98q-31 -85 -53 -125.5t-48 -49.5q-41 -14 -48.5 11.5t20.5 65.5zM795 905q34 52 48 -21q11 -61 4 -112l-1 -5v-1q-34 18 -52 62t1 77z
M2704 921q3 -45 -19 -86q10 -17 10 -34q0 -63 -31 -97q-33 -37 -91 -66t-113 -29t-94 31q-15 12 -32 34q-62 -70 -146 -70q-33 0 -63 10q-1 -2 -2 -4.5t-1 -3.5q-44 -150 -42 -172q10 -43 -26 -66q-15 -9 -32 -9q-22 0 -40 16q-37 37 -54 65q-24 -37 -61 -64
q-62 -44 -118 -44q-21 0 -41 10t-32 21t-30 31q-23 25 -44 65q-15 30 -12 66l-6 6q-24 -11 -48 -11q-69 0 -114 73q-6 9 -11 25l-8 8l-7 -44q-2 -34 -30 -50q-14 -8 -30 -8q-15 0 -29 8l-21 14q-7 -4 -14 -5q-6 -2 -22 -2q-66 0 -101 53q-39 -45 -81 -48q-3 0 -7.5 -0.5
t-6.5 -0.5q-64 0 -97 45q-62 -87 -150 -87q-62 0 -110 46q2 -34 5 -50q6 -38 -28 -60q-17 -10 -32 -10q-18 0 -34 11q-6 4 -17 13.5t-34.5 38t-42.5 61.5q-18 21 -36 51q-8 -80 10 -114q16 -31 -1 -59q-18 -30 -51 -30h-1q-65 0 -111 54q-73 87 -83 160q-16 -11 -34 -11
q-12 0 -21 4q-44 17 -65 58.5t-18 69.5l3.5 17.5t14 34t31 47.5t56 45.5t86.5 38.5q30 106 52 161t32 65.5t27 16.5q11 4 25 4q50 0 122 -74q3 -3 7 -9q37 85 94 177q36 58 108 58q55 0 97 -25q14 -8 44.5 -53.5t31.5 -61.5q2 -34 -27 -53q-17 -11 -35 -35q39 -21 71 -61
q11 -13 12 -30l4 -4q19 31 39 50q43 41 106 41q71 0 105 -47q3 0 13.5 1.5t15.5 1.5q40 124 111 240q36 58 108 58q35 0 97 -25q31 -17 33 -50q0 -1 -0.5 -2t-0.5 -2q61 4 233 4h102q17 0 33.5 1.5t29.5 3.5t25 4t21 4.5t15.5 4.5t10.5 3l3 1q9 4 22 4q25 0 43 -18
q8 -8 26 -36t18 -29q24 -35 12 -65q-5 -12 -15 -28q44 -8 53 -46q2 -8 2 -13q8 2 25 2q50 0 84 -36q24 29 50 47q58 43 122 43q53 0 90.5 -23t72.5 -72q37 -43 40 -94zM598 552q-14 83 5.5 195.5t57 211t84 176.5t85.5 103q-10 5 -26 11.5t-50 5t-50 -27.5
q-66 -107 -106 -207.5t-49.5 -172.5t-10 -111.5t4.5 -65.5q-24 41 -36 95.5t-12.5 102t2.5 89.5t7 67l5 24l-7 7t-16 14.5t-22 18.5t-21 13t-17 3q-21 -7 -83 -237q-47 -10 -83 -27.5t-54 -36.5t-29 -36.5t-13 -28.5l-2 -11q27 40 162 68q-14 -54 -21 -99q-7 -51 -1.5 -83.5
t20.5 -50.5t30 -26.5t27 -9.5l12 -2q-20 36 -20.5 96t12.5 120t29 114.5t30 89.5l13 34q3 -119 24 -217q9 -41 24.5 -77.5t31 -59.5t30.5 -40t24 -24zM1144 717q7 -28 25 -41t33 -12l14 1q-3 3 -6.5 11t-9.5 40.5t4 79.5q6 39 17 85t19 73l8 26q-67 3 -84 -28
q-29 -53 -51.5 -106t-46.5 -89q-37 -54 -52 -40q-13 11 2.5 68t42.5 111q32 62 50 78t55 5q9 24 -24 38q-42 18 -84 -5l-17 -13q-24 -23 -47.5 -74t-35.5 -106q-22 -42 -55 -56q14 61 13 93q-3 76 -28.5 103.5t-66.5 22.5q32 22 76 9q-2 3 -6 7.5t-17.5 17.5t-26.5 19
t-33.5 11.5t-37.5 -3.5q-31 -11 -64 -74.5t-48.5 -139.5t-1.5 -118q15 -45 49 -68.5t77 -13t78 59.5q20 30 28 47q28 6 57 35q-3 -31 1 -53q9 -54 70 -50q26 2 62.5 58t59.5 112l24 55q-2 -5 -4 -12.5t-8 -31.5t-8.5 -43t-5 -46.5t3.5 -42.5zM1516 652l-5 5t-9.5 16t-10 28
t-3 41.5t7.5 56.5q11 45 25.5 87.5t22.5 62.5l9 20l-57 27q-10 5 -19 -1q-19 -14 -43 -34.5t-61.5 -64.5t-63.5 -91q33 145 99 283t119 172q-4 2 -10 4.5t-24 7.5t-33 5.5t-32.5 -6.5t-27.5 -23q-92 -150 -135 -337q-12 -51 -20.5 -113.5t-6.5 -82.5q2 -17 15.5 -33.5
t26.5 -24.5l12 -8q0 11 2.5 29.5t18.5 66.5t44 84q32 41 59 69.5t38 36.5l11 8q-3 -7 -8 -20t-16.5 -48.5t-18 -66t-6 -65t12.5 -53.5q19 -31 41 -40.5t34 -3.5zM1636 595q-13 22 -14 60.5t9.5 87t26 99t37 106t40 99t38.5 85.5q171 3 187 4q37 3 67.5 26.5t42.5 45.5l11 21
q-64 -25 -159 -26q-69 -1 -135 0t-132.5 -0.5t-98.5 -6.5q-39 -5 -68.5 -31t-39.5 -50l-11 -24q8 11 50.5 21t82.5 12q47 3 111 4q-3 -9 -54 -143.5t-70 -213.5q-8 -38 -3.5 -67.5t18 -50t28 -33.5t25.5 -19zM2273 817q22 37 30 65.5t6 43t-10 32.5q-23 55 -88 31
q-31 -12 -62.5 -40t-47.5 -50l-16 -22q72 174 75 176l-25 1q-57 -3 -73 -33q-35 -98 -76 -213q-1 -4 -3.5 -10t-3.5 -10q-59 -34 -63 -36q14 47 40 115.5t44 113.5l19 45q-69 -3 -91 -28q-5 -6 -43.5 -62t-72.5 -95.5t-47 -30.5t40 106t62 106q-10 0 -25 -1t-45 -13t-41 -33
q-12 -24 -20.5 -40.5t-18.5 -38.5t-15.5 -38t-9.5 -32.5t-3 -28t7 -19.5q10 -12 32.5 -13t52 14t52.5 44l86 115q-41 -127 -73 -218q-17 -11 -49.5 -29.5t-45 -27t-32.5 -26.5t-38 -42q-26 -34 -30 -67.5t10.5 -53t49 -17.5t77.5 33q28 20 50.5 58t33 67t35.5 105
q46 28 60 34q-35 -98 -46 -151q-7 -24 7.5 -53.5t31.5 -47.5l18 -18q-9 31 42 203q28 92 70 164q29 50 80 86.5t66 24.5q7 -8 1.5 -38t-18.5 -56q-16 -32 -38 -55.5t-42 -34t-38 -16.5t-29 -6l-10 -1q5 -4 13.5 -9t34 -12.5t50 -5t56.5 24t57 64.5zM2480 988q36 39 65 29
q24 -8 13 -37q-7 -19 -31 -40q-17 -15 -39 -20t-36 -2l-14 2q2 -5 6 -12t21.5 -18.5t40.5 -10.5q48 3 71.5 33t21.5 70q-2 25 -29 45.5t-68 22.5t-88 -31q-41 -30 -69.5 -77.5t-28 -101.5t43.5 -88q31 -24 73.5 -16.5t81 28.5t60.5 45q7 8 11 22.5t4 24.5l1 10
q-31 -50 -103.5 -82.5t-90.5 -1.5q-19 31 10 95t73 111zM1734 94q-16 0 -28 10q-10 9 -10 25q0 15 6 27q6 11 18 19q11 7 26 7q18 0 28 -9t10 -25q0 -13 -7 -27q-6 -12 -17 -19q-13 -8 -26 -8zM1282 94q-16 0 -28 10q-9 8 -9 25q0 15 6 27t17 19t27 7q17 0 27 -9t10 -25
q0 -15 -6 -27t-17 -19q-13 -8 -27 -8zM511 0l56 282h1728l-56 -282h-1728zM2066 207l-5 -26h44l-22 -111h32l22 111h44l5 26h-120zM1888 207l-27 -137h31l17 86l51 -86h27l27 137h-31l-17 -86l-52 86h-26zM1675 169q-11 -20 -11 -42q0 -17 8 -31q7 -13 23 -21t36 -8
q24 0 44 11q18 10 30 30q11 20 11 42q0 17 -8 31q-7 13 -23 21q-14 7 -36 7q-25 0 -44 -10q-18 -10 -30 -30zM1528 207l-28 -137h32l10 50h63l6 25h-64l7 37h72l5 25h-103zM1223 169q-11 -20 -11 -42q0 -17 8 -31q7 -12 24 -21q16 -8 35 -8q25 0 45 11q18 10 30 30
q10 19 10 42q0 17 -8 31q-7 13 -23 21q-14 7 -36 7q-25 0 -44 -10q-18 -10 -30 -30zM1013 207l-28 -137h30l17 82l28 -68h14l52 67l-16 -81h30l27 137h-27l-67 -85l-34 85h-26zM846 207l-28 -137h107l5 25h-75l6 32h64l5 25h-64l6 30h72l6 25h-104zM648 207l-27 -137h67
q26 0 45 10q20 11 30 28t10 42q0 16 -8 30q-7 12 -23 20q-14 7 -36 7h-58zM717 103q-14 -7 -28 -7h-31l17 85h27q18 0 29 -9q10 -9 10 -24t-6 -27q-5 -10 -18 -18z" />
    <glyph glyph-name="nine" unicode="9" horiz-adv-x="1040" 
d="M221 654q-119 116 -119 273q0 162 122.5 276.5t295.5 114.5q95 0 182 -38q106 -48 171 -143t65 -210v-546q0 -82 -34 -155q-69 -150 -193 -193q-33 -12 -110 -24.5t-146 -6.5q-46 4 -75.5 24.5t-29.5 59.5v67q0 28 17 51t44 31q16 5 56.5 7.5t77 7t74.5 16.5t60.5 41
t22.5 74q0 64 -53.5 109t-128.5 45q-175 0 -299 119zM520 1081q-75 0 -128 -45t-53 -109t53 -109.5t128 -45.5t128.5 45.5t53.5 109.5t-53.5 109t-128.5 45z" />
    <glyph glyph-name="colon" unicode=":" 
d="M1703 583q39 56 129 98q-31 -85 -53 -125.5t-48 -49.5q-41 -14 -48.5 11.5t20.5 65.5zM751 875q3 -45 27 -83.5t61 -51.5q-17 -61 -39 -79.5t-50 -10.5q-24 7 -24.5 72.5t14.5 116.5q3 12 11 36zM795 905q34 52 48 -21q11 -61 4 -112l-1 -5v-1q-34 18 -52 62t1 77z
M2704 921q3 -46 -19 -87q10 -17 10 -33q0 -64 -31 -98q-33 -37 -91 -65.5t-113 -28.5t-94 31q-17 13 -32 33q-62 -69 -145 -69q-34 0 -64 10l-3 -9q-44 -150 -42 -171q10 -43 -26 -66q-15 -9 -32 -9q-22 0 -40 16q-37 37 -54 65q-24 -37 -61 -64q-62 -44 -118 -44
q-21 0 -41 10t-32 21t-30 31q-23 25 -44 65q-15 30 -12 66l-6 6q-24 -11 -48 -11q-68 0 -113 73q-7 10 -12 25l-8 8l-7 -44q-2 -34 -30 -50q-14 -8 -30 -8q-15 0 -29 8q-8 4 -21 14q-7 -4 -14 -5q-6 -2 -22 -2q-65 0 -100 53q-40 -46 -82 -49h-14q-64 0 -97 45
q-62 -87 -149 -87q-63 0 -111 46q2 -34 5 -50q6 -39 -28 -61q-15 -9 -32 -9q-18 0 -34 11q-6 4 -17 13.5t-34.5 38t-42.5 61.5q-20 23 -36 50q-8 -79 10 -113q16 -31 -1 -59q-18 -30 -51 -30h-1q-65 0 -111 54q-73 87 -83 160q-16 -11 -34 -11q-12 0 -21 4q-44 17 -65 58
t-18 69l3.5 17.5t14 34.5t31 47.5t56 45.5t86.5 39q30 107 52 161.5t32 65t27 16.5q11 4 25 4q50 0 122 -74q3 -3 7 -9q37 85 94 177q36 58 108 58q55 0 97 -25q14 -8 44.5 -53.5t31.5 -61.5q2 -34 -27 -53q-16 -10 -36 -35q41 -22 72 -61q10 -13 12 -31q1 -1 4 -3
q19 31 39 50q43 41 106 41q71 0 105 -47q22 2 29 2q41 126 111 241q36 58 108 58q35 0 97 -25q31 -17 33 -51l-1 -1v-2q61 4 233 4h102q17 0 33.5 1.5t29.5 3.5t25 4t21 4.5t15.5 4.5t10.5 3l3 1q9 4 22 4q25 0 43 -18q8 -8 26 -36t18 -29q24 -35 12 -65q-7 -15 -15 -29
q44 -8 53 -45q2 -8 2 -14q24 3 25 3q50 0 84 -36q24 29 50 47q58 43 123 43q52 0 89 -23t73 -72q37 -43 40 -94zM598 552q-14 83 5.5 195.5t57 211t84 176.5t85.5 103q-10 5 -26 11.5t-50 5t-50 -27.5q-66 -107 -106 -207.5t-49.5 -172.5t-10 -111.5t4.5 -65.5
q-24 41 -36 95.5t-12.5 102t2.5 89.5t7 67l5 24l-7 7t-16 14.5t-22 18.5t-21 13t-17 3q-21 -7 -83 -237q-47 -10 -83 -27.5t-54 -36.5t-29 -36.5t-13 -28.5l-2 -11q27 40 162 68q-14 -54 -21 -99q-7 -51 -1.5 -83.5t20.5 -50.5t30 -26.5t27 -9.5l12 -2q-20 36 -20.5 96
t12.5 120t29 114.5t30 89.5l13 34q3 -120 24 -218q9 -41 24.5 -77.5t31 -59.5t30.5 -40t24 -24zM1144 716q7 -28 25 -41t33 -12l14 1q-3 3 -6.5 11t-9.5 40.5t4 79.5q6 39 17 85t19 72l8 27q-67 3 -84 -28q-29 -53 -51.5 -106t-46.5 -89q-36 -54 -52 -39q-13 11 2.5 67
t42.5 111q32 63 50 79t55 5q9 24 -24 38q-42 18 -84 -5l-17 -13q-24 -23 -47.5 -74t-35.5 -106q-22 -42 -55 -56q14 61 13 93q-3 76 -28.5 103.5t-66.5 22.5q32 22 76 9q-2 3 -6 7.5t-17.5 17.5t-26.5 19t-33.5 11.5t-37.5 -3.5q-31 -11 -64 -74.5t-48.5 -139.5t-1.5 -119
q15 -45 49 -68.5t77.5 -13t78.5 59.5q17 24 27 48q29 6 57 34q-3 -31 1 -52q9 -54 70 -50q26 2 62.5 58t59.5 111l24 55q-2 -5 -4 -12.5t-8 -31.5t-8.5 -43t-5 -46.5t3.5 -42.5zM1516 652l-5 5t-9.5 16t-10 28t-3 41.5t7.5 56.5q11 45 25.5 87.5t22.5 62.5l9 20l-57 27
q-9 5 -19 -2q-103 -73 -168 -189q33 145 99 283t119 172q-4 2 -10 4.5t-24 7.5t-33 5.5t-32.5 -6.5t-27.5 -23q-92 -150 -135 -337q-12 -51 -20.5 -113.5t-6.5 -82.5q2 -17 15.5 -33.5t26.5 -24.5l12 -8q0 11 2.5 29.5t18.5 66.5t44 84q32 41 59 69.5t38 36.5l11 8
q-3 -7 -8 -20t-16.5 -48.5t-18 -66t-6 -65t12.5 -53.5q19 -31 41 -40.5t34 -3.5zM1636 595q-13 22 -14 60.5t9.5 87t26 99t37 106t40 99t38.5 85.5q171 3 187 4q37 3 67.5 26.5t42.5 45.5l11 21q-64 -25 -159 -26h-97.5t-109 -0.5t-87.5 -2.5t-72 -5q-39 -5 -68.5 -31
t-39.5 -50l-11 -23q8 11 50 20t83 12q47 3 111 4q-2 -6 -53 -141.5t-70 -214.5q-8 -38 -3.5 -67.5t18 -50t27.5 -33.5t25 -19zM2273 817q22 37 30 65.5t6 43t-10 32.5q-23 55 -88 31q-31 -12 -62.5 -40t-47.5 -50l-16 -22q72 174 75 176l-25 1q-57 -3 -73 -33
q-35 -98 -76 -213q-1 -4 -3.5 -11t-3.5 -10q-50 -29 -63 -35q14 47 40 115.5t44 113.5l19 45q-69 -3 -91 -28q-5 -6 -43.5 -62t-72.5 -95.5t-47 -30.5t40 106t62 106q-10 0 -25 -1.5t-45 -13.5t-41 -33q-13 -24 -21 -40t-18 -38.5t-15.5 -38t-9.5 -32t-3 -28t7 -19.5
q10 -12 32.5 -13t51.5 14t52 44l87 115q-41 -127 -73 -218q-17 -11 -49.5 -29.5t-45 -27t-32.5 -26.5t-38 -42q-26 -34 -30 -67.5t10.5 -53t49 -17.5t77.5 33q28 20 50.5 58t33 67t35.5 105q46 28 60 34q-35 -98 -46 -151q-7 -24 7.5 -53.5t31.5 -47.5l18 -18q-9 31 42 203
q27 90 70 163q29 50 80 86.5t66 24.5q7 -8 1.5 -37.5t-18.5 -55.5q-16 -32 -38 -55.5t-42 -34t-38 -16.5t-29 -6l-10 -1q5 -4 13.5 -9t34 -12.5t50 -5t56.5 24t57 64.5zM2480 987q36 39 65 29q23 -8 13 -37q-8 -19 -31 -40q-17 -15 -39 -20t-36 -2l-14 3q2 -5 6 -12
t21.5 -18.5t40.5 -10.5q48 3 71.5 33t21.5 70q-2 25 -29 45.5t-68 22.5t-88 -31q-41 -30 -69.5 -77.5t-28 -101.5t43.5 -88q31 -24 73.5 -17t81 28t60.5 45q7 8 11 22.5t4 25.5l1 10q-31 -50 -103.5 -82.5t-90.5 -1.5q-19 31 10 94.5t73 110.5zM1282 94q-16 0 -28 10
q-9 8 -9 25q0 15 6 27t17 19t27 7q17 0 27 -9t10 -25q0 -15 -6 -27t-17 -19q-13 -8 -27 -8zM1734 94q-16 0 -28 10q-10 9 -10 25q0 15 6 27q6 11 18 19q11 7 26 7q18 0 28 -9t10 -25q0 -13 -7 -27q-6 -12 -17 -19q-13 -8 -26 -8zM717 102q-10 -6 -28 -6h-31l17 85h27
q18 0 29 -9q10 -9 10 -24t-6 -27q-6 -11 -18 -19zM511 0l56 282h1728l-56 -282h-1728zM2066 207l-5 -26h44l-22 -111h32l22 111h44l5 26h-120zM1888 207l-27 -137h31l17 86l51 -86h27l27 137h-31l-17 -86l-52 86h-26zM1675 169q-11 -20 -11 -42q0 -17 8 -31q7 -13 23 -21
t36 -8q24 0 44 11q19 10 30 29q11 20 11 43q0 17 -8 31q-7 13 -23 21q-14 7 -36 7q-25 0 -44 -10q-18 -10 -30 -30zM1528 207l-28 -137h32l10 50h64l5 25h-64l7 36h72l5 26h-103zM1223 169q-11 -20 -11 -42q0 -17 8 -31q7 -12 24 -21q16 -8 35 -8q25 0 45 11q18 10 30 30
q10 19 10 42q0 17 -8 31q-7 13 -23 21q-14 7 -36 7q-25 0 -44 -10q-18 -10 -30 -30zM1013 207l-28 -137h30l17 82l28 -68h14l52 67l-16 -81h30l27 137h-27l-67 -86l-34 86h-26zM846 207l-28 -137h107l5 25h-75l6 32h64l5 25h-64l6 29h72l6 26h-104zM648 207l-27 -137h67
q27 0 44 9q21 11 31 29q10 17 10 42q0 16 -8 30q-7 12 -23 20q-14 7 -36 7h-58z" />
    <glyph glyph-name="semicolon" unicode=";" 
d="M1703 583q39 56 129 98q-31 -85 -53 -125.5t-48 -49.5q-41 -14 -48.5 11.5t20.5 65.5zM751 875q3 -45 27 -83.5t61 -51.5q-17 -61 -39 -79.5t-50 -10.5q-24 7 -24.5 72.5t14.5 116.5q3 12 11 36zM795 905q34 52 48 -21q11 -61 4 -112l-1 -5v-1q-34 18 -52 62t1 77z
M2704 921q3 -46 -19 -87q10 -17 10 -33q0 -64 -31 -98q-33 -37 -91 -65.5t-113 -28.5t-94 31q-17 13 -32 33q-62 -69 -146 -69q-33 0 -63 10l-3 -9q-44 -150 -42 -171q10 -43 -26 -66q-15 -9 -32 -9q-22 0 -40 16q-37 37 -54 65q-24 -37 -61 -64q-62 -44 -118 -44
q-21 0 -41 10t-32 21t-30 31q-23 25 -44 65q-15 30 -12 66l-6 6q-24 -11 -48 -11q-69 0 -114 73q-5 7 -11 25l-8 8l-7 -44q-2 -34 -30 -50q-14 -8 -30 -8q-15 0 -29 8q-8 4 -21 14q-7 -4 -14 -5q-6 -2 -22 -2q-66 0 -101 53q-40 -46 -81 -49h-14q-64 0 -97 45
q-62 -87 -150 -87q-62 0 -110 46q2 -34 5 -50q6 -39 -28 -61q-15 -9 -32 -9q-18 0 -34 11q-6 4 -17 13.5t-34.5 38t-42.5 61.5q-20 23 -36 50q-8 -79 10 -113q16 -31 -1 -59q-18 -30 -51 -30h-1q-65 0 -111 54q-73 87 -83 160q-16 -11 -34 -11q-12 0 -21 4q-44 17 -65 58
t-18 69l3.5 17.5t14 34.5t31 47.5t56 45.5t86.5 39q30 107 52 161.5t32 65t27 16.5q11 4 25 4q50 0 122 -74q3 -3 7 -9q37 85 94 177q36 58 108 58q55 0 97 -25q14 -8 44.5 -53.5t31.5 -61.5q2 -34 -27 -53q-16 -10 -36 -35q41 -22 72 -61q10 -13 12 -31q1 -1 4 -3
q19 31 39 50q43 41 106 41q71 0 105 -47q22 2 29 2q41 126 111 241q36 58 108 58q35 0 97 -25q31 -17 33 -51l-1 -1v-2q61 4 233 4h102q17 0 33.5 1.5t29.5 3.5t25 4t21 4.5t15.5 4.5t10.5 3l3 1q9 4 22 4q25 0 43 -18q8 -8 26 -36t18 -29q24 -35 12 -65q-7 -15 -15 -29
q44 -8 53 -45q2 -8 2 -14q24 3 25 3q50 0 84 -36q24 29 50 47q58 43 123 43q52 0 89.5 -23t72.5 -72q37 -43 40 -94zM598 552q-14 83 5.5 195.5t57 211t84 176.5t85.5 103q-10 5 -26 11.5t-50 5t-50 -27.5q-66 -107 -106 -207.5t-49.5 -172.5t-10 -111.5t4.5 -65.5
q-38 66 -46.5 160.5t1.5 155.5l10 62q-2 3 -6.5 7t-16 14.5t-21.5 18.5t-21 13t-17 3q-21 -7 -83 -237q-47 -10 -83 -27.5t-54 -36.5t-29 -36.5t-13 -28.5l-2 -11q27 40 162 68q-14 -54 -21 -99q-7 -51 -1.5 -83.5t20.5 -50.5t30 -26.5t27 -9.5l12 -2q-20 36 -20.5 96
t12.5 120t29 114.5t30 89.5l13 34q3 -120 24 -218q9 -41 24.5 -77.5t31 -59.5t30.5 -40t24 -24zM1144 716q7 -28 25 -41t33 -12l14 1q-3 3 -6.5 11t-9.5 40.5t4 79.5q6 39 17 85t19 72l8 27q-67 3 -84 -28q-29 -53 -51.5 -106t-46.5 -89q-36 -54 -52 -39q-13 11 2.5 67
t42.5 111q32 63 50 79t55 5q9 24 -24 38q-42 18 -84 -5l-17 -13q-24 -23 -47.5 -74t-35.5 -106q-22 -42 -55 -56q14 61 13 93q-3 76 -28.5 103.5t-66.5 22.5q32 22 76 9q-2 3 -6 7.5t-17.5 17.5t-26.5 19t-33.5 11.5t-37.5 -3.5q-31 -11 -64 -74.5t-48.5 -139.5t-1.5 -119
q15 -45 49 -68.5t77.5 -13t78.5 59.5q17 24 27 48q29 6 57 34q-3 -31 1 -52q9 -54 70 -50q26 2 62.5 58t59.5 111l24 55q-2 -5 -4 -12.5t-8 -31.5t-8.5 -43t-5 -46.5t3.5 -42.5zM1516 652l-5 5t-9.5 16t-10 28t-3 41.5t7.5 56.5q11 45 25.5 87.5t22.5 62.5l9 20l-57 27
q-9 5 -19 -2q-103 -73 -168 -189q33 145 99 283t119 172q-4 2 -10 4.5t-24 7.5t-33 5.5t-32.5 -6.5t-27.5 -23q-92 -150 -135 -337q-12 -51 -20.5 -113.5t-6.5 -82.5q2 -17 15.5 -33.5t26.5 -24.5l12 -8q0 11 2.5 29.5t18.5 66.5t44 84q32 41 59 69.5t38 36.5l11 8
q-3 -7 -8 -20t-16.5 -48.5t-18 -66t-6 -65t12.5 -53.5q19 -31 41 -40.5t34 -3.5zM1636 595q-13 22 -14 60.5t9.5 87t26 99t37 106t40 99t38.5 85.5q171 3 187 4q37 3 67.5 26.5t42.5 45.5l11 21q-64 -25 -159 -26h-97.5t-109 -0.5t-87.5 -2.5t-72 -5q-39 -5 -68.5 -31
t-39.5 -50l-11 -23q8 11 50 20t83 12q47 3 111 4q-2 -7 -53 -142t-70 -214q-8 -38 -3.5 -67.5t18 -50t27.5 -33.5t25 -19zM2273 817q22 37 30 65.5t6 43t-10 32.5q-23 55 -88 31q-31 -12 -62.5 -40t-47.5 -50l-16 -22q72 174 75 176l-25 1q-57 -3 -73 -33q-35 -98 -76 -213
q-1 -4 -3.5 -11t-3.5 -10q-50 -29 -63 -35q14 47 40 115.5t44 113.5l19 45q-69 -3 -91 -28q-5 -6 -43.5 -62t-72.5 -95.5t-47 -30.5t40 106t62 106q-10 0 -25 -1.5t-45 -13.5t-41 -33q-13 -24 -21 -40t-18 -38.5t-15.5 -38t-9.5 -32t-3 -28t7 -19.5q10 -12 32.5 -13t52 14
t52.5 44l86 115q-41 -127 -73 -218q-17 -11 -49.5 -29.5t-45 -27t-32.5 -26.5t-38 -42q-26 -34 -30 -67.5t10.5 -53t49 -17.5t77.5 33q28 20 50.5 58t33 67t35.5 105q46 28 60 34q-35 -98 -46 -151q-7 -24 7.5 -53.5t31.5 -47.5l18 -18q-9 31 42 203q27 90 70 163
q29 50 80 86.5t66 24.5q7 -8 1.5 -37.5t-18.5 -55.5q-16 -32 -38 -55.5t-42 -34t-38 -16.5t-29 -6l-10 -1q5 -4 13.5 -9t34 -12.5t50 -5t56.5 24t57 64.5zM2480 987q36 39 65 29q23 -8 13 -37q-8 -19 -31 -40q-17 -15 -39 -20t-36 -2l-14 3q2 -5 6 -12t21.5 -18.5
t40.5 -10.5q48 3 71.5 33t21.5 70q-2 25 -29 45.5t-68 22.5t-88 -31q-41 -30 -69.5 -77.5t-28 -101.5t43.5 -88q31 -24 73.5 -17t81 28t60.5 45q7 8 11 22.5t4 25.5l1 10q-31 -50 -103.5 -82.5t-90.5 -1.5q-19 31 10 94.5t73 110.5zM1282 94q-16 0 -28 10q-9 8 -9 25
q0 15 6 27t17 19t27 7q17 0 27 -9t10 -25q0 -15 -6 -27t-17 -19q-13 -8 -27 -8zM1733 94q-15 0 -27 10q-10 9 -10 25q0 15 6 27q6 11 18 19q11 7 26 7q18 0 28 -9t10 -25q0 -13 -7 -27q-6 -12 -17 -19q-13 -8 -27 -8zM717 102q-10 -6 -28 -6h-31l17 85h27q18 0 29 -9
q10 -9 10 -24t-6 -27q-6 -11 -18 -19zM511 0l56 282h1728l-56 -282h-1728zM2066 207l-5 -26h44l-22 -111h32l22 111h44l5 26h-120zM1888 207l-27 -137h31l17 86l51 -86h27l27 137h-31l-17 -86l-52 86h-26zM1674 169q-10 -19 -10 -42q0 -17 8 -31q7 -13 23 -21t36 -8
q24 0 44 11q19 10 30 29q11 20 11 43q0 17 -8 31q-7 13 -23 21q-14 7 -36 7q-25 0 -44 -10q-20 -11 -31 -30zM1528 207l-28 -137h32l10 50h63l6 25h-64l7 36h72l5 26h-103zM1223 169q-11 -20 -11 -42q0 -17 8 -31q7 -12 24 -21q16 -8 35 -8q25 0 45 11q18 10 30 30
q10 19 10 42q0 17 -8 31q-7 13 -23 21q-14 7 -36 7q-25 0 -44 -10q-18 -10 -30 -30zM1013 207l-28 -137h30l17 82l28 -68h14l52 67l-16 -81h30l27 137h-27l-67 -86l-34 86h-26zM846 207l-28 -137h107l5 25h-75l6 32h64l5 25h-64l6 29h72l6 26h-104zM648 207l-27 -137h67
q28 0 45 9q19 10 30 29q10 17 10 42q0 16 -8 30q-7 12 -23 20q-14 7 -36 7h-58z" />
    <glyph glyph-name="less" unicode="&#x3c;" 
d="M1703 583q39 56 129 98q-31 -85 -53 -125.5t-48 -49.5q-41 -14 -48.5 11.5t20.5 65.5zM751 875q3 -45 27 -83.5t61 -51.5q-17 -61 -39 -79.5t-50 -10.5q-24 7 -24.5 72.5t14.5 116.5q3 12 11 36zM795 905q34 52 48 -21q11 -61 4 -112l-1 -5v-1q-34 18 -52 62t1 77z
M2704 921q3 -46 -19 -87q10 -17 10 -33q0 -64 -31 -98q-33 -37 -91 -65.5t-113 -28.5t-94 31q-17 13 -32 33q-62 -69 -145 -69q-34 0 -64 10l-3 -9q-44 -150 -42 -171q10 -43 -26 -66q-15 -9 -32 -9q-22 0 -40 16q-37 37 -54 65q-24 -37 -61 -64q-62 -44 -118 -44
q-21 0 -41 10t-32 21t-30 31q-23 25 -44 65q-15 30 -12 66l-6 6q-24 -11 -48 -11q-68 0 -113 73q-7 10 -12 25l-8 8l-7 -44q-2 -34 -30 -50q-14 -8 -30 -8q-15 0 -29 8q-8 4 -21 14q-7 -4 -14 -5q-6 -2 -22 -2q-65 0 -100 53q-40 -46 -82 -49h-14q-64 0 -97 45
q-62 -87 -149 -87q-63 0 -111 46q2 -34 5 -50q6 -39 -28 -61q-15 -9 -32 -9q-18 0 -34 11q-6 4 -17 13.5t-34.5 38t-42.5 61.5q-20 23 -36 50q-8 -79 10 -113q16 -31 -1 -59q-18 -30 -51 -30h-1q-65 0 -111 54q-73 87 -83 160q-16 -11 -34 -11q-12 0 -21 4q-44 17 -65 58
t-18 69l3.5 17.5t14 34.5t31 47.5t56 45.5t86.5 39q30 107 52 161.5t32 65t27 16.5q11 4 25 4q50 0 122 -74q3 -3 7 -9q37 85 94 177q36 58 108 58q55 0 97 -25q14 -8 44.5 -53.5t31.5 -61.5q2 -34 -27 -53q-16 -10 -36 -35q41 -22 72 -61q10 -13 12 -31q1 -1 4 -3
q19 31 39 50q43 41 106 41q71 0 105 -47q22 2 29 2q41 126 111 241q36 58 108 58q35 0 97 -25q31 -17 33 -51l-1 -1v-2q61 4 233 4h102q17 0 33.5 1.5t29.5 3.5t25 4t21 4.5t15.5 4.5t10.5 3l3 1q9 4 22 4q25 0 43 -18q8 -8 26 -36t18 -29q24 -35 12 -65q-7 -15 -15 -29
q44 -8 53 -45q2 -8 2 -14q24 3 25 3q50 0 84 -36q24 29 50 47q58 43 123 43q52 0 89.5 -23t72.5 -72q37 -43 40 -94zM598 552q-14 83 5.5 195.5t57 211t84 176.5t85.5 103q-10 5 -26 11.5t-50 5t-50 -27.5q-66 -107 -106 -207.5t-49.5 -172.5t-10 -111.5t4.5 -65.5
q-24 41 -36 95.5t-12.5 102t2.5 89.5t7 67l5 24l-7 7t-16 14.5t-22 18.5t-21 13t-17 3q-21 -7 -83 -237q-47 -10 -83 -27.5t-54 -36.5t-29 -36.5t-13 -28.5l-2 -11q27 40 162 68q-14 -54 -21 -99q-7 -51 -1.5 -83.5t20.5 -50.5t30 -26.5t27 -9.5l12 -2q-20 36 -20.5 96
t12.5 120t29 114.5t30 89.5l13 34q3 -120 24 -218q9 -41 24.5 -77.5t31 -59.5t30.5 -40t24 -24zM1144 716q7 -28 25 -41t33 -12l14 1q-3 3 -6.5 11t-9.5 40.5t4 79.5q6 39 17 85t19 72l8 27q-67 3 -84 -28q-29 -53 -51.5 -106t-46.5 -89q-36 -54 -52 -39q-13 11 2.5 67
t42.5 111q32 63 50 79t55 5q9 24 -24 38q-42 18 -84 -5l-17 -13q-24 -23 -47.5 -74t-35.5 -106q-22 -42 -55 -56q14 61 13 93q-3 76 -28.5 103.5t-66.5 22.5q32 22 76 9q-2 3 -6 7.5t-17.5 17.5t-26.5 19t-33.5 11.5t-37.5 -3.5q-31 -11 -64 -74.5t-48.5 -139.5t-1.5 -119
q15 -45 49 -68.5t77.5 -13t78.5 59.5q17 24 27 48q29 6 57 34q-3 -31 1 -52q9 -54 70 -50q26 2 62.5 58t59.5 111l24 55q-2 -5 -4 -12.5t-8 -31.5t-8.5 -43t-5 -46.5t3.5 -42.5zM1516 652l-5 5t-9.5 16t-10 28t-3 41.5t7.5 56.5q11 45 25.5 87.5t22.5 62.5l9 20l-57 27
q-9 5 -19 -2q-103 -73 -168 -189q33 145 99 283t119 172q-4 2 -10 4.5t-24 7.5t-33 5.5t-32.5 -6.5t-27.5 -23q-92 -150 -135 -337q-12 -51 -20.5 -113.5t-6.5 -82.5q2 -17 15.5 -33.5t26.5 -24.5l12 -8q0 11 2.5 29.5t18.5 66.5t44 84q32 41 59 69.5t38 36.5l11 8
q-3 -7 -8 -20t-16.5 -48.5t-18 -66t-6 -65t12.5 -53.5q19 -31 41 -40.5t34 -3.5zM1636 595q-13 22 -14 60.5t9.5 87t26 99t37 106t40 99t38.5 85.5q171 3 187 4q37 3 67.5 26.5t42.5 45.5l11 21q-64 -25 -159 -26h-97.5t-109 -0.5t-87.5 -2.5t-72 -5q-39 -5 -68.5 -31
t-39.5 -50l-11 -23q8 11 50 20t83 12q47 3 111 4q-2 -6 -53 -141.5t-70 -214.5q-8 -38 -3.5 -67.5t18 -50t27.5 -33.5t25 -19zM2273 817q22 37 30 65.5t6 43t-10 32.5q-23 55 -88 31q-31 -12 -62.5 -40t-47.5 -50l-16 -22q72 174 75 176l-25 1q-57 -3 -73 -33
q-35 -98 -76 -213q-1 -4 -3.5 -11t-3.5 -10q-50 -29 -63 -35q14 47 40 115.5t44 113.5l19 45q-69 -3 -91 -28q-5 -6 -43.5 -62t-72.5 -95.5t-47 -30.5t40 106t62 106q-10 0 -25 -1.5t-45 -13.5t-41 -33q-13 -24 -21 -40t-18 -38.5t-15.5 -38t-9.5 -32t-3 -28t7 -19.5
q10 -12 32.5 -13t51.5 14t52 44l87 115q-41 -127 -73 -218q-17 -11 -49.5 -29.5t-45 -27t-32.5 -26.5t-38 -42q-26 -34 -30 -67.5t10.5 -53t49 -17.5t77.5 33q28 20 50.5 58t33 67t35.5 105q46 28 60 34q-35 -98 -46 -151q-7 -24 7.5 -53.5t31.5 -47.5l18 -18q-9 31 42 203
q27 90 70 163q29 50 80 86.5t66 24.5q7 -8 1.5 -37.5t-18.5 -55.5q-16 -32 -38 -55.5t-42 -34t-38 -16.5t-29 -6l-10 -1q5 -4 13.5 -9t34 -12.5t50 -5t56.5 24t57 64.5zM2480 987q36 39 65 29q23 -8 13 -37q-8 -19 -31 -40q-17 -15 -39 -20t-36 -2l-14 3q2 -5 6 -12
t21.5 -18.5t40.5 -10.5q48 3 71.5 33t21.5 70q-2 25 -29 45.5t-68 22.5t-88 -31q-41 -30 -69.5 -77.5t-28 -101.5t43.5 -88q31 -24 73.5 -17t81 28t60.5 45q7 8 11 22.5t4 25.5l1 10q-31 -50 -103.5 -82.5t-90.5 -1.5q-19 31 10 94.5t73 110.5zM1282 94q-16 0 -28 10
q-9 8 -9 25q0 15 6 27t17 19t27 7q17 0 27 -9t10 -25q0 -15 -6 -27t-17 -19q-13 -8 -27 -8zM1734 94q-16 0 -28 10q-10 9 -10 25q0 15 6 27q6 11 18 19q11 7 26 7q18 0 28 -9t10 -25q0 -13 -7 -27q-6 -12 -17 -19q-13 -8 -26 -8zM717 102q-10 -6 -28 -6h-31l17 85h27
q18 0 29 -9q10 -9 10 -24t-6 -27q-6 -11 -18 -19zM511 0l56 282h1728l-56 -282h-1728zM2066 207l-5 -26h44l-22 -111h32l22 111h44l5 26h-120zM1888 207l-27 -137h31l17 86l51 -86h27l27 137h-31l-17 -86l-52 86h-26zM1675 169q-11 -20 -11 -42q0 -17 8 -31q7 -13 23 -21
t36 -8q24 0 44 11q18 10 30 30q11 20 11 42q0 17 -8 31q-7 13 -23 21q-14 7 -36 7q-25 0 -44 -10q-18 -10 -30 -30zM1528 207l-28 -137h32l10 50h64l5 25h-64l7 36h72l5 26h-103zM1223 169q-11 -20 -11 -42q0 -17 8 -31q7 -12 24 -21q16 -8 35 -8q25 0 45 11q18 10 30 30
q10 19 10 42q0 17 -8 31q-7 13 -23 21q-14 7 -36 7q-25 0 -44 -10q-18 -10 -30 -30zM1013 207l-28 -137h30l17 82l28 -68h14l52 67l-16 -81h30l27 137h-27l-67 -86l-34 86h-26zM846 207l-28 -137h107l5 25h-75l6 32h64l5 25h-64l6 29h72l6 26h-104zM648 207l-27 -137h67
q27 0 44 9q21 11 31 29q10 17 10 42q0 16 -8 30q-7 12 -23 20q-14 7 -36 7h-58z" />
    <glyph glyph-name="equal" unicode="=" 
d="M1703 583q39 56 129 98q-31 -85 -53 -125.5t-48 -49.5q-41 -14 -48.5 11.5t20.5 65.5zM751 875q3 -45 27 -83.5t61 -51.5q-17 -61 -39 -79.5t-50 -10.5q-24 7 -24.5 72.5t14.5 116.5q3 12 11 36zM795 905q34 52 48 -21q11 -61 4 -112l-1 -5v-1q-34 18 -52 62t1 77z
M2704 921q3 -46 -19 -87q10 -17 10 -33q0 -64 -31 -98q-33 -37 -91 -65.5t-113 -28.5t-94 31q-17 13 -32 33q-62 -69 -145 -69q-34 0 -64 10l-3 -9q-44 -150 -42 -171q10 -43 -26 -66q-15 -9 -32 -9q-22 0 -40 16q-37 37 -54 65q-24 -37 -61 -64q-62 -44 -118 -44
q-21 0 -41 10t-32 21t-30 31q-23 25 -44 65q-15 30 -12 66l-6 6q-24 -11 -48 -11q-68 0 -113 73q-7 10 -12 25l-8 8l-7 -44q-2 -34 -30 -50q-14 -8 -30 -8q-15 0 -29 8q-8 4 -21 14q-7 -4 -14 -5q-6 -2 -22 -2q-65 0 -100 53q-40 -46 -82 -49h-14q-64 0 -97 45
q-62 -87 -149 -87q-63 0 -111 46q2 -34 5 -50q6 -39 -28 -61q-15 -9 -32 -9q-18 0 -34 11q-6 4 -17 13.5t-34.5 38t-42.5 61.5q-20 23 -36 50q-8 -79 10 -113q16 -31 -1 -59q-18 -30 -51 -30h-1q-65 0 -111 54q-73 87 -83 160q-16 -11 -34 -11q-12 0 -21 4q-44 17 -65 58
t-18 69l3.5 17.5t14 34.5t31 47.5t56 45.5t86.5 39q30 107 52 161.5t32 65t27 16.5q11 4 25 4q50 0 122 -74q3 -3 7 -9q37 85 94 177q36 58 108 58q55 0 97 -25q14 -8 44.5 -53.5t31.5 -61.5q2 -34 -27 -53q-16 -10 -36 -35q41 -22 72 -61q10 -13 12 -31q1 -1 4 -3
q19 31 39 50q43 41 106 41q71 0 105 -47q22 2 29 2q41 126 111 241q36 58 108 58q35 0 97 -25q31 -17 33 -51l-1 -1v-2q61 4 233 4h102q17 0 33.5 1.5t29.5 3.5t25 4t21 4.5t15.5 4.5t10.5 3l3 1q9 4 22 4q25 0 43 -18q8 -8 26 -36t18 -29q24 -35 12 -65q-7 -15 -15 -29
q44 -8 53 -45q2 -8 2 -14q24 3 25 3q50 0 84 -36q24 29 50 47q58 43 123 43q52 0 89 -23t73 -72q37 -43 40 -94zM598 552q-14 83 5.5 195.5t57 211t84 176.5t85.5 103q-10 5 -26 11.5t-50 5t-50 -27.5q-66 -107 -106 -207.5t-49.5 -172.5t-10 -111.5t4.5 -65.5
q-24 41 -36 95.5t-12.5 102t2.5 89.5t7 67l5 24l-7 7t-16 14.5t-22 18.5t-21 13t-17 3q-21 -7 -83 -237q-47 -10 -83 -27.5t-54 -36.5t-29 -36.5t-13 -28.5l-2 -11q27 40 162 68q-14 -54 -21 -99q-7 -51 -1.5 -83.5t20.5 -50.5t30 -26.5t27 -9.5l12 -2q-20 36 -20.5 96
t12.5 120t29 114.5t30 89.5l13 34q3 -120 24 -218q9 -41 24.5 -77.5t31 -59.5t30.5 -40t24 -24zM1144 716q7 -28 25 -41t33 -12l14 1q-3 3 -6.5 11t-9.5 40.5t4 79.5q6 39 17 85t19 72l8 27q-67 3 -84 -28q-29 -53 -51.5 -106t-46.5 -89q-36 -54 -52 -39q-13 11 2.5 67
t42.5 111q32 63 50 79t55 5q9 24 -24 38q-42 18 -84 -5l-17 -13q-24 -23 -47.5 -74t-35.5 -106q-22 -42 -55 -56q14 61 13 93q-3 76 -28.5 103.5t-66.5 22.5q32 22 76 9q-2 3 -6 7.5t-17.5 17.5t-26.5 19t-33.5 11.5t-37.5 -3.5q-31 -11 -64 -74.5t-48.5 -139.5t-1.5 -119
q15 -45 49 -68.5t77.5 -13t78.5 59.5q17 24 27 48q29 6 57 34q-3 -31 1 -52q9 -54 70 -50q26 2 62.5 58t59.5 111l24 55q-2 -5 -4 -12.5t-8 -31.5t-8.5 -43t-5 -46.5t3.5 -42.5zM1516 652l-5 5t-9.5 16t-10 28t-3 41.5t7.5 56.5q11 45 25.5 87.5t22.5 62.5l9 20l-57 27
q-9 5 -19 -2q-103 -73 -168 -189q33 145 99 283t119 172q-4 2 -10 4.5t-24 7.5t-33 5.5t-32.5 -6.5t-27.5 -23q-92 -150 -135 -337q-12 -51 -20.5 -113.5t-6.5 -82.5q2 -17 15.5 -33.5t26.5 -24.5l12 -8q0 11 2.5 29.5t18.5 66.5t44 84q32 41 59 69.5t38 36.5l11 8
q-3 -7 -8 -20t-16.5 -48.5t-18 -66t-6 -65t12.5 -53.5q19 -31 41 -40.5t34 -3.5zM1636 595q-13 22 -14 60.5t9.5 87t26 99t37 106t40 99t38.5 85.5q171 3 187 4q37 3 67.5 26.5t42.5 45.5l11 21q-64 -25 -159 -26h-97.5t-109 -0.5t-87.5 -2.5t-72 -5q-39 -5 -68.5 -31
t-39.5 -50l-11 -23q8 11 50 20t83 12q47 3 111 4q-2 -7 -53 -142t-70 -214q-8 -38 -3.5 -67.5t18 -50t27.5 -33.5t25 -19zM2273 817q22 37 30 65.5t6 43t-10 32.5q-23 55 -88 31q-31 -12 -62.5 -40t-47.5 -50l-16 -22q72 174 75 176l-25 1q-57 -3 -73 -33q-35 -98 -76 -213
q-1 -4 -3.5 -11t-3.5 -10q-50 -29 -63 -35q14 47 40 115.5t44 113.5l19 45q-69 -3 -91 -28q-5 -6 -43.5 -62t-72.5 -95.5t-47 -30.5t40 106t62 106q-10 0 -25 -1.5t-45 -13.5t-41 -33q-13 -24 -21 -40t-18 -38.5t-15.5 -38t-9.5 -32t-3 -28t7 -19.5q10 -12 32.5 -13t52 14
t52.5 44l86 115q-41 -127 -73 -218q-17 -11 -49.5 -29.5t-45 -27t-32.5 -26.5t-38 -42q-26 -34 -30 -67.5t10.5 -53t49 -17.5t77.5 33q28 20 50.5 58t33 67t35.5 105q46 28 60 34q-35 -98 -46 -151q-7 -24 7.5 -53.5t31.5 -47.5l18 -18q-9 31 42 203q27 90 70 163
q29 50 80 86.5t66 24.5q7 -8 1.5 -37.5t-18.5 -55.5q-16 -32 -38 -55.5t-42 -34t-38 -16.5t-29 -6l-10 -1q5 -4 13.5 -9t34 -12.5t50 -5t56.5 24t57 64.5zM2480 987q36 39 65 29q23 -8 13 -37q-8 -19 -31 -40q-17 -15 -39 -20t-36 -2l-14 3q2 -5 6 -12t21.5 -18.5
t40.5 -10.5q48 3 71.5 33t21.5 70q-2 25 -29 45.5t-68 22.5t-88 -31q-41 -30 -69.5 -77.5t-28 -101.5t43.5 -88q31 -24 73.5 -17t81 28t60.5 45q7 8 11 22.5t4 25.5l1 10q-31 -50 -103.5 -82.5t-90.5 -1.5q-19 31 10 94.5t73 110.5zM1282 94q-16 0 -28 10q-9 8 -9 25
q0 15 6 27t17 19t27 7q17 0 27 -9t10 -25q0 -15 -6 -27t-17 -19q-13 -8 -27 -8zM1734 94q-16 0 -28 10q-10 9 -10 25q0 15 6 27q6 11 18 19q11 7 26 7q18 0 28 -9t10 -25q0 -13 -7 -27q-6 -12 -17 -19q-13 -8 -26 -8zM717 102q-10 -6 -28 -6h-31l17 85h27q18 0 29 -9
q10 -9 10 -24t-6 -27q-6 -11 -18 -19zM511 0l56 282h1728l-56 -282h-1728zM2067 207l-6 -26h44l-22 -111h32l22 111h44l5 26h-119zM1888 207l-27 -137h31l17 86l51 -86h27l27 137h-31l-17 -86l-52 86h-26zM1675 169q-11 -20 -11 -42q0 -17 8 -31q7 -13 23 -21t36 -8
q24 0 44 11q19 10 30 29q11 20 11 43q0 17 -8 31q-7 13 -23 21q-14 7 -36 7q-25 0 -44 -10q-18 -10 -30 -30zM1528 207l-28 -137h32l10 50h64l5 25h-64l7 36h72l5 26h-103zM1223 169q-11 -20 -11 -42q0 -17 8 -31q7 -12 24 -21q16 -8 35 -8q25 0 45 11q18 10 30 30
q10 19 10 42q0 17 -8 31q-7 13 -23 21q-14 7 -36 7q-25 0 -44 -10q-18 -10 -30 -30zM1013 207l-28 -137h30l17 82l28 -68h14l52 67l-16 -81h30l27 137h-27l-67 -86l-34 86h-26zM846 207l-28 -137h107l5 25h-75l6 32h64l5 25h-64l6 29h72l6 26h-104zM648 207l-27 -137h67
q28 0 45 9q19 10 30 29q10 17 10 42q0 16 -8 30q-7 12 -23 20q-14 7 -36 7h-58z" />
    <glyph glyph-name="greater" unicode="&#x3e;" 
d="M1703 583q39 56 129 98q-31 -85 -53 -125.5t-48 -49.5q-41 -14 -48.5 11.5t20.5 65.5zM751 875q3 -45 27 -83.5t61 -51.5q-17 -61 -39 -79.5t-50 -10.5q-24 7 -24.5 72.5t14.5 116.5q3 12 11 36zM795 905q34 52 48 -21q11 -61 4 -112l-1 -5v-1q-34 18 -52 62t1 77z
M2704 921q3 -46 -19 -87q10 -17 10 -33q0 -64 -31 -98q-33 -37 -91 -65.5t-113 -28.5t-94 31q-17 13 -32 33q-62 -69 -146 -69q-33 0 -63 10l-3 -9q-44 -150 -42 -171q10 -43 -26 -66q-15 -9 -32 -9q-22 0 -40 16q-37 37 -54 65q-24 -37 -61 -64q-62 -44 -118 -44
q-21 0 -41 10t-32 21t-30 31q-23 25 -44 65q-15 30 -12 66l-6 6q-24 -11 -48 -11q-68 0 -113 73q-7 10 -12 25l-8 8l-7 -44q-2 -34 -30 -50q-14 -8 -30 -8q-15 0 -29 8q-8 4 -21 14q-7 -4 -14 -5q-6 -2 -22 -2q-65 0 -100 53q-40 -46 -82 -49h-14q-64 0 -97 45
q-62 -87 -150 -87q-62 0 -110 46q2 -34 5 -50q6 -39 -28 -61q-15 -9 -32 -9q-18 0 -34 11q-6 4 -17 13.5t-34.5 38t-42.5 61.5q-20 23 -36 50q-8 -79 10 -113q16 -31 -1 -59q-18 -30 -51 -30h-1q-65 0 -111 54q-73 87 -83 160q-16 -11 -34 -11q-12 0 -21 4q-44 17 -65 58
t-18 69l3.5 17.5t14 34.5t31 47.5t56 45.5t86.5 39q30 107 52 161.5t32 65t27 16.5q11 4 25 4q50 0 122 -74q3 -3 7 -9q37 85 94 177q36 58 108 58q55 0 97 -25q14 -8 44.5 -53.5t31.5 -61.5q2 -33 -28 -53q-14 -9 -35 -35q41 -22 72 -61q10 -13 12 -31q1 -1 4 -3
q19 31 39 50q43 41 106 41q71 0 105 -47q22 2 29 2q41 126 111 241q36 58 108 58q35 0 97 -25q31 -17 33 -51l-1 -1v-2q61 4 233 4h102q17 0 33.5 1.5t29.5 3.5t25 4t21 4.5t15.5 4.5t10.5 3l3 1q9 4 22 4q25 0 43 -18q8 -8 26 -36t18 -29q24 -35 12 -65q-7 -15 -15 -29
q44 -8 53 -45q2 -8 2 -14q24 3 25 3q50 0 84 -36q24 29 50 47q58 43 123 43q52 0 89 -23t73 -72q37 -43 40 -94zM598 552q-14 83 5.5 195.5t57 211t84 176.5t85.5 103q-10 5 -26 11.5t-50 5t-50 -27.5q-66 -107 -106 -207.5t-49.5 -172.5t-10 -111.5t4.5 -65.5
q-24 41 -36 95.5t-12.5 102t2.5 89.5t7 67l5 24l-7 7t-16 14.5t-22 18.5t-21 13t-17 3q-21 -7 -83 -237q-47 -10 -83 -27.5t-54 -36.5t-29 -36.5t-13 -28.5l-2 -11q27 40 162 68q-14 -54 -21 -99q-7 -51 -1.5 -83.5t20.5 -50.5t30 -26.5t27 -9.5l12 -2q-20 36 -20.5 96
t12.5 120t29 114.5t30 89.5l13 34q3 -120 24 -218q9 -41 24.5 -77.5t31 -59.5t30.5 -40t24 -24zM1144 716q7 -28 25 -41t33 -12l14 1q-3 3 -6.5 11t-9.5 40.5t4 79.5q6 39 17 85t19 72l8 27q-67 3 -84 -28q-29 -53 -51.5 -106t-46.5 -89q-36 -54 -52 -39q-13 11 2.5 67
t42.5 111q32 63 50 79t55 5q9 24 -24 38q-42 18 -84 -5l-17 -13q-24 -23 -47.5 -74t-35.5 -106q-22 -42 -55 -56q14 61 13 93q-3 76 -28.5 103.5t-66.5 22.5q32 22 76 9q-2 3 -6 7.5t-17.5 17.5t-26.5 19t-33.5 11.5t-37.5 -3.5q-31 -11 -64 -74.5t-48.5 -139.5t-1.5 -119
q15 -45 49 -68.5t77.5 -13t78.5 59.5q17 24 27 48q29 6 57 34q-3 -31 1 -52q9 -54 70 -50q26 2 62.5 58t59.5 111l24 55q-2 -5 -4 -12.5t-8 -31.5t-8.5 -43t-5 -46.5t3.5 -42.5zM1516 652l-5 5t-9.5 16t-10 28t-3 41.5t7.5 56.5q11 45 25.5 87.5t22.5 62.5l9 20l-57 27
q-9 5 -19 -2q-103 -73 -168 -189q33 145 99 283t119 172q-4 2 -10 4.5t-24 7.5t-33 5.5t-32.5 -6.5t-27.5 -23q-92 -150 -135 -337q-12 -51 -20.5 -113.5t-6.5 -82.5q2 -17 15.5 -33.5t26.5 -24.5l12 -8q0 11 2.5 29.5t18.5 66.5t44 84q32 41 59 69.5t38 36.5l11 8
q-3 -7 -8 -20t-16.5 -48.5t-18 -66t-6 -65t12.5 -53.5q19 -31 41 -40.5t34 -3.5zM1636 595q-13 22 -14 60.5t9.5 87t26 99t37 106t40 99t38.5 85.5q171 3 187 4q37 3 67.5 26.5t42.5 45.5l11 21q-64 -25 -159 -26h-97.5t-109 -0.5t-87.5 -2.5t-72 -5q-39 -5 -68.5 -31
t-39.5 -50l-11 -23q8 11 50 20t83 12q47 3 111 4q-3 -10 -54 -143.5t-70 -212.5q-8 -38 -3.5 -67.5t18 -50t28 -33.5t25.5 -19zM2273 817q22 37 30 65.5t6 43t-10 32.5q-23 55 -88 31q-31 -12 -62.5 -40t-47.5 -50l-16 -22q72 174 75 176l-25 1q-57 -3 -73 -33
q-35 -98 -76 -213q-1 -4 -3.5 -11t-3.5 -10q-50 -29 -63 -35q14 47 40 115.5t44 113.5l19 45q-69 -3 -91 -28q-5 -6 -43.5 -62t-72.5 -95.5t-47 -30.5t40 106t62 106q-10 0 -25 -1.5t-45 -13.5t-41 -33q-13 -24 -21 -40t-18 -38.5t-15.5 -38t-9.5 -32t-3 -28t7 -19.5
q10 -12 32.5 -13t52 14t52.5 44l86 115q-41 -127 -73 -218q-17 -11 -49.5 -29.5t-45 -27t-32.5 -26.5t-38 -42q-26 -34 -30 -67.5t10.5 -53t49 -17.5t77.5 33q28 20 50.5 58t33 67t35.5 105q46 28 60 34q-35 -98 -46 -151q-7 -24 7.5 -53.5t31.5 -47.5l18 -18q-9 31 42 203
q27 90 70 163q29 50 80 86.5t66 24.5q7 -8 1.5 -37.5t-18.5 -55.5q-16 -32 -38 -55.5t-42 -34t-38 -16.5t-29 -6l-10 -1q5 -4 13.5 -9t34 -12.5t50 -5t56.5 24t57 64.5zM2480 987q36 39 65 29q24 -8 13 -37q-7 -19 -31 -40q-17 -15 -39 -20t-36 -2l-14 3q2 -5 6 -12
t21.5 -18.5t40.5 -10.5q48 3 71.5 33t21.5 70q-2 25 -29 45.5t-68 22.5t-88 -31q-41 -30 -69.5 -77.5t-28 -101.5t43.5 -88q31 -24 73.5 -17t81 28t60.5 45q7 8 11 22.5t4 25.5l1 10q-31 -50 -103.5 -82.5t-90.5 -1.5q-19 31 10 94.5t73 110.5zM1282 94q-16 0 -28 10
q-9 8 -9 25q0 15 6 27t17 19t27 7q17 0 27 -9t10 -25q0 -15 -6 -27t-17 -19q-13 -8 -27 -8zM1734 94q-16 0 -28 10q-10 9 -10 25q0 15 6 27q6 11 18 19q11 7 26 7q18 0 28 -9t10 -25q0 -13 -7 -27q-6 -12 -17 -19q-13 -8 -26 -8zM717 102q-10 -6 -28 -6h-31l17 85h27
q18 0 29 -9q10 -9 10 -24t-6 -27q-6 -11 -18 -19zM511 0l56 282h1728l-56 -282h-1728zM2066 207l-5 -26h44l-22 -111h32l22 111h44l5 26h-120zM1888 207l-28 -137h32l17 86l51 -86h27l27 137h-31l-17 -86l-52 86h-26zM1674 169q-10 -19 -10 -42q0 -17 8 -31q7 -13 23 -21
t36 -8q24 0 44 11q19 10 30 29q11 20 11 43q0 17 -8 31q-7 13 -23 21q-14 7 -36 7q-25 0 -44 -10q-20 -11 -31 -30zM1528 207l-28 -137h32l10 50h63l6 25h-64l7 36h72l5 26h-103zM1223 169q-11 -20 -11 -42q0 -17 8 -31q7 -12 24 -21q16 -8 35 -8q25 0 45 11q18 10 30 30
q10 19 10 42q0 17 -8 31q-7 13 -23 21q-14 7 -36 7q-25 0 -44 -10q-18 -10 -30 -30zM1013 207l-28 -137h30l17 82l28 -68h14l52 67l-16 -81h30l27 137h-27l-67 -86l-34 86h-26zM846 207l-28 -137h107l5 25h-75l6 32h64l5 25h-64l6 29h72l6 26h-104zM648 207l-27 -137h67
q27 0 44 9q21 11 31 29q10 17 10 42q0 16 -8 30q-7 12 -23 20q-14 7 -36 7h-58z" />
    <glyph glyph-name="question" unicode="?" 
d="M1703 583q39 56 129 98q-31 -85 -53 -125.5t-48 -49.5q-41 -14 -48.5 11.5t20.5 65.5zM751 875q3 -45 27 -83.5t61 -51.5q-17 -61 -39 -79.5t-50 -10.5q-24 7 -24.5 72.5t14.5 116.5q3 12 11 36zM795 905q34 52 48 -21q11 -61 4 -112l-1 -5v-1q-34 18 -52 62t1 77z
M2704 921q3 -46 -19 -87q10 -17 10 -33q0 -64 -31 -98q-33 -37 -91 -65.5t-113 -28.5t-94 31q-17 13 -32 33q-62 -69 -146 -69q-33 0 -63 10l-3 -9q-44 -150 -42 -171q10 -43 -26 -66q-15 -9 -32 -9q-22 0 -40 16q-37 37 -54 65q-24 -37 -61 -64q-62 -44 -118 -44
q-21 0 -41 10t-32 21t-30 31q-23 25 -44 65q-15 30 -12 66l-6 6q-24 -11 -48 -11q-68 0 -113 73q-7 10 -12 25l-8 8l-7 -44q-2 -34 -30 -50q-14 -8 -30 -8q-15 0 -29 8q-8 4 -21 14q-7 -4 -14 -5q-6 -2 -22 -2q-65 0 -100 53q-40 -46 -82 -49h-14q-64 0 -97 45
q-62 -87 -149 -87q-63 0 -111 46q2 -34 5 -50q6 -39 -28 -61q-15 -9 -32 -9q-18 0 -34 11q-6 4 -17 13.5t-34.5 38t-42.5 61.5q-20 23 -36 50q-8 -79 10 -113q16 -31 -1 -59q-18 -30 -51 -30h-1q-65 0 -111 54q-73 87 -83 160q-16 -11 -34 -11q-12 0 -21 4q-44 17 -65 58
t-18 69l3.5 17.5t14 34.5t31 47.5t56 45.5t86.5 39q30 107 52 161.5t32 65t27 16.5q11 4 25 4q50 0 122 -74q3 -3 7 -9q37 85 94 177q36 58 108 58q55 0 97 -25q14 -8 44.5 -53.5t31.5 -61.5q2 -34 -27 -53q-14 -9 -35 -35q39 -21 71 -61q10 -13 12 -31q1 -1 4 -3
q19 31 39 50q43 41 106 41q71 0 105 -47q22 2 29 2q41 126 111 241q36 58 109 58q34 0 96 -25q31 -17 33 -51l-1 -1v-2q61 4 233 4h102q17 0 33.5 1.5t29.5 3.5t25 4t21 4.5t15.5 4.5t10.5 3l3 1q9 4 22 4q25 0 43 -18q8 -8 26 -36t18 -29q24 -35 12 -65q-7 -15 -15 -29
q44 -8 53 -45q2 -8 2 -14q24 3 25 3q50 0 84 -36q24 29 50 47q58 43 123 43q52 0 89.5 -23t72.5 -72q37 -43 40 -94zM598 552q-14 83 5.5 195.5t57 211t84 176.5t85.5 103q-10 5 -26 11.5t-50 5t-50 -27.5q-66 -107 -106 -207.5t-49.5 -172.5t-10 -111.5t4.5 -65.5
q-24 41 -36 95.5t-12.5 102t2.5 89.5t7 67l5 24l-7 7t-16 14.5t-22 18.5t-21 13t-17 3q-21 -7 -83 -237q-47 -10 -83 -27.5t-54 -36.5t-29 -36.5t-13 -28.5l-2 -11q27 40 162 68q-14 -54 -21 -99q-7 -51 -1.5 -83.5t20.5 -50.5t30 -26.5t27 -9.5l12 -2q-20 36 -20.5 96
t12.5 120t29 114.5t30 89.5l13 34q3 -120 24 -218q9 -41 24.5 -77.5t31 -59.5t30.5 -40t24 -24zM1144 716q7 -28 25 -41t33 -12l14 1q-3 3 -6.5 11t-9.5 40.5t4 79.5q6 39 17 85t19 72l8 27q-67 3 -84 -28q-29 -53 -51.5 -106t-46.5 -89q-36 -54 -52 -39q-13 11 2.5 67
t42.5 111q32 63 50 79t55 5q9 24 -24 38q-42 18 -84 -5l-17 -13q-24 -23 -47.5 -74t-35.5 -106q-22 -42 -55 -56q14 61 13 93q-3 76 -28.5 103.5t-66.5 22.5q32 22 76 9q-2 3 -6 7.5t-17.5 17.5t-26.5 19t-33.5 11.5t-37.5 -3.5q-31 -11 -64 -74.5t-48.5 -139.5t-1.5 -119
q15 -45 49 -68.5t77.5 -13t78.5 59.5q17 24 27 48q29 6 57 34q-3 -31 1 -52q9 -54 70 -50q26 2 62.5 58t59.5 111l24 55q-2 -5 -4 -12.5t-8 -31.5t-8.5 -43t-5 -46.5t3.5 -42.5zM1516 652l-5 5t-9.5 16t-10 28t-3 41.5t7.5 56.5q11 45 25.5 87.5t22.5 62.5l9 20l-57 27
q-9 5 -19 -2q-103 -73 -168 -189q33 145 99 283t119 172q-4 2 -10 4.5t-24 7.5t-33 5.5t-32.5 -6.5t-27.5 -23q-92 -150 -135 -337q-12 -51 -20.5 -113.5t-6.5 -82.5q2 -17 15.5 -33.5t26.5 -24.5l12 -8q0 11 2.5 29.5t18.5 66.5t44 84q32 41 59 69.5t38 36.5l11 8
q-3 -7 -8 -20t-16.5 -48.5t-18 -66t-6 -65t12.5 -53.5q19 -31 41 -40.5t34 -3.5zM1636 595q-13 22 -14 60.5t9.5 87t26 99t37 106t40 99t38.5 85.5q171 3 187 4q37 3 67.5 26.5t42.5 45.5l11 21q-64 -25 -159 -26h-97.5t-109 -0.5t-87.5 -2.5t-72 -5q-39 -5 -68.5 -31
t-39.5 -50l-11 -23q8 11 50 20t83 12q47 3 111 4q-2 -6 -53 -141.5t-70 -214.5q-8 -38 -3.5 -67.5t18 -50t27.5 -33.5t25 -19zM2273 817q22 37 30 65.5t6 43t-10 32.5q-23 55 -88 31q-31 -12 -62.5 -40t-47.5 -50l-16 -22q72 174 75 176l-25 1q-57 -3 -73 -33
q-35 -98 -76 -213q-1 -4 -3.5 -11t-3.5 -10q-50 -29 -63 -35q14 47 40 115.5t44 113.5l19 45q-69 -3 -91 -28q-5 -6 -43.5 -62t-72.5 -95.5t-47 -30.5t40 106t62 106q-10 0 -25 -1.5t-45 -13.5t-41 -33q-13 -24 -21 -40t-18 -38.5t-15.5 -38t-9.5 -32t-3 -28t7 -19.5
q10 -12 32.5 -13t52 14t52.5 44l86 115q-41 -127 -73 -218q-17 -11 -49.5 -29.5t-45 -27t-32.5 -26.5t-38 -42q-26 -34 -30 -67.5t10.5 -53t49 -17.5t77.5 33q28 20 50.5 58t33 67t35.5 105q46 28 60 34q-35 -98 -46 -151q-7 -24 7.5 -53.5t31.5 -47.5l18 -18q-9 31 42 203
q27 90 70 163q29 50 80 86.5t66 24.5q7 -8 1.5 -37.5t-18.5 -55.5q-16 -32 -38 -55.5t-42 -34t-38 -16.5t-29 -6l-10 -1q5 -4 13.5 -9t34 -12.5t50 -5t56.5 24t57 64.5zM2480 987q36 39 65 29q23 -8 13 -37q-8 -19 -31 -40q-17 -15 -39 -20t-36 -2l-14 3q2 -5 6 -12
t21.5 -18.5t40.5 -10.5q48 3 71.5 33t21.5 70q-2 25 -29 45.5t-68 22.5t-88 -31q-41 -30 -69.5 -77.5t-28 -101.5t43.5 -88q31 -24 73.5 -17t81 28t60.5 45q7 8 11 22.5t4 25.5l1 10q-31 -50 -103.5 -82.5t-90.5 -1.5q-19 31 10 94.5t73 110.5zM1282 94q-16 0 -28 10
q-9 8 -9 25q0 15 6 27t17 19t27 7q17 0 27 -9t10 -25q0 -15 -6 -27t-17 -19q-13 -8 -27 -8zM1734 94q-16 0 -28 10q-10 9 -10 25q0 15 6 27q6 11 18 19q11 7 26 7q18 0 28 -9t10 -25q0 -13 -7 -27q-6 -12 -17 -19q-13 -8 -26 -8zM717 102q-10 -6 -28 -6h-31l17 85h27
q18 0 29 -9q10 -9 10 -24t-6 -27q-6 -11 -18 -19zM511 0l56 282h1728l-56 -282h-1728zM2066 207l-5 -26h44l-22 -111h32l22 111h44l5 26h-120zM1888 207l-27 -137h31l17 86l51 -86h27l27 137h-31l-17 -86l-52 86h-26zM1674 169q-10 -19 -10 -42q0 -17 8 -31q7 -13 23 -21
t36 -8q24 0 44 11q19 10 30 29q11 20 11 43q0 17 -8 31q-7 13 -23 21q-14 7 -36 7q-25 0 -44 -10q-20 -11 -31 -30zM1528 207l-28 -137h32l10 50h63l6 25h-64l7 36h72l5 26h-103zM1223 169q-11 -20 -11 -42q0 -17 8 -31q7 -12 24 -21q16 -8 35 -8q25 0 45 11q18 10 30 30
q10 19 10 42q0 17 -8 31q-7 13 -23 21q-14 7 -36 7q-25 0 -44 -10q-18 -10 -30 -30zM1013 207l-28 -137h30l17 82l28 -68h14l52 67l-16 -81h30l27 137h-27l-67 -86l-34 86h-26zM846 207l-28 -137h107l5 25h-75l6 32h64l5 25h-64l6 29h72l6 26h-104zM648 207l-27 -137h67
q28 0 45 9q19 10 30 29q10 17 10 42q0 16 -8 30q-7 12 -23 20q-14 7 -36 7h-58z" />
    <glyph glyph-name="at" unicode="@" 
d="M1703 583q39 56 129 98q-31 -85 -53 -125.5t-48 -49.5q-41 -14 -48.5 11.5t20.5 65.5zM751 875q3 -45 27 -83.5t61 -51.5q-17 -61 -39 -79.5t-50 -10.5q-24 7 -24.5 72.5t14.5 116.5q3 12 11 36zM795 905q34 52 48 -21q11 -61 4 -112l-1 -5v-1q-34 18 -52 62t1 77z
M2704 921q3 -46 -19 -87q10 -17 10 -33q0 -64 -31 -98q-33 -37 -91 -65.5t-113 -28.5t-94 31q-17 13 -32 33q-62 -69 -146 -69q-33 0 -63 10l-3 -9q-44 -150 -42 -171q10 -43 -26 -66q-15 -9 -32 -9q-22 0 -40 16q-37 37 -54 65q-24 -37 -61 -64q-62 -44 -118 -44
q-21 0 -41 10t-32 21t-30 31q-23 25 -44 65q-15 30 -12 66l-6 6q-24 -11 -48 -11q-68 0 -113 73q-7 10 -12 25l-8 8l-7 -44q-2 -34 -30 -50q-14 -8 -30 -8q-15 0 -29 8q-8 4 -21 14q-7 -4 -14 -5q-6 -2 -22 -2q-65 0 -100 53q-40 -46 -82 -49h-14q-64 0 -97 45
q-62 -87 -149 -87q-63 0 -111 46q2 -34 5 -50q6 -39 -28 -61q-15 -9 -32 -9q-18 0 -34 11q-6 4 -17 13.5t-34.5 38t-42.5 61.5q-20 23 -36 50q-8 -79 10 -113q16 -31 -1 -59q-18 -30 -51 -30h-1q-65 0 -111 54q-73 87 -83 160q-16 -11 -34 -11q-12 0 -21 4q-44 17 -65 58
t-18 69l3.5 17.5t14 34.5t31 47.5t56 45.5t86.5 39q30 107 52 161.5t32 65t27 16.5q11 4 25 4q50 0 122 -74q3 -3 7 -9q37 85 94 177q36 58 108 58q55 0 97 -25q14 -8 44.5 -53.5t31.5 -61.5q2 -34 -27 -53q-16 -10 -36 -35q41 -22 72 -61q10 -13 12 -31q1 -1 4 -3
q19 31 39 50q43 41 106 41q71 0 105 -47q22 2 29 2q41 126 111 241q36 58 108 58q35 0 97 -25q31 -17 33 -51l-1 -1v-2q61 4 233 4h102q17 0 33.5 1.5t29.5 3.5t25 4t21 4.5t15.5 4.5t10.5 3l3 1q9 4 22 4q25 0 43 -18q8 -8 26 -36t18 -29q24 -35 12 -65q-7 -15 -15 -29
q44 -8 53 -45q2 -8 2 -14q24 3 25 3q50 0 84 -36q24 29 50 47q58 43 123 43q52 0 89 -23t73 -72q37 -43 40 -94zM598 552q-14 83 5.5 195.5t57 211t84 176.5t85.5 103q-10 5 -26 11.5t-50 5t-50 -27.5q-66 -107 -106 -207.5t-49.5 -172.5t-10 -111.5t4.5 -65.5
q-24 41 -36 95.5t-12.5 102t2.5 89.5t7 67l5 24l-7 7t-16 14.5t-22 18.5t-21 13t-17 3q-21 -7 -83 -237q-47 -10 -83 -27.5t-54 -36.5t-29 -36.5t-13 -28.5l-2 -11q27 40 162 68q-14 -54 -21 -99q-7 -51 -1.5 -83.5t20.5 -50.5t30 -26.5t27 -9.5l12 -2q-20 36 -20.5 96
t12.5 120t29 114.5t30 89.5l13 34q3 -120 24 -218q9 -41 24.5 -77.5t31 -59.5t30.5 -40t24 -24zM1144 716q7 -28 25 -41t33 -12l14 1q-3 3 -6.5 11t-9.5 40.5t4 79.5q6 39 17 85t19 72l8 27q-67 3 -84 -28q-29 -53 -51.5 -106t-46.5 -89q-36 -54 -52 -39q-13 11 2.5 67
t42.5 111q32 63 50 79t55 5q9 24 -24 38q-42 18 -84 -5l-17 -13q-24 -23 -47.5 -74t-35.5 -106q-22 -42 -55 -56q14 61 13 93q-3 76 -28.5 103.5t-66.5 22.5q32 22 76 9q-2 3 -6 7.5t-17.5 17.5t-26.5 19t-33.5 11.5t-37.5 -3.5q-31 -11 -64 -74.5t-48.5 -139.5t-1.5 -119
q15 -45 49 -68.5t77.5 -13t78.5 59.5q17 24 27 48q29 6 57 34q-3 -31 1 -52q9 -54 70 -50q26 2 62.5 58t59.5 111l24 55q-2 -5 -4 -12.5t-8 -31.5t-8.5 -43t-5 -46.5t3.5 -42.5zM1516 652l-5 5t-9.5 16t-10 28t-3 41.5t7.5 56.5q11 45 25.5 87.5t22.5 62.5l9 20l-57 27
q-9 5 -19 -2q-103 -73 -168 -189q33 145 99 283t119 172q-4 2 -10 4.5t-24 7.5t-33 5.5t-32.5 -6.5t-27.5 -23q-92 -150 -135 -337q-12 -51 -20.5 -113.5t-6.5 -82.5q2 -17 15.5 -33.5t26.5 -24.5l12 -8q0 11 2.5 29.5t18.5 66.5t44 84q32 41 59 69.5t38 36.5l11 8
q-3 -7 -8 -20t-16.5 -48.5t-18 -66t-6 -65t12.5 -53.5q19 -31 41 -40.5t34 -3.5zM1636 595q-13 22 -14 60.5t9.5 87t26 99t37 106t40 99t38.5 85.5q171 3 187 4q37 3 67.5 26.5t42.5 45.5l11 21q-64 -25 -159 -26h-97.5t-109 -0.5t-87.5 -2.5t-72 -5q-39 -5 -68.5 -31
t-39.5 -50l-11 -23q8 11 50 20t83 12q47 3 111 4q-2 -6 -53 -141.5t-70 -214.5q-8 -38 -3.5 -67.5t18 -50t27.5 -33.5t25 -19zM2273 817q22 37 30 65.5t6 43t-10 32.5q-23 55 -88 31q-31 -12 -62.5 -40t-47.5 -50l-16 -22q72 174 75 176l-25 1q-57 -3 -73 -33
q-35 -98 -76 -213q-1 -4 -3.5 -11t-3.5 -10q-50 -29 -63 -35q14 47 40 115.5t44 113.5l19 45q-69 -3 -91 -28q-5 -6 -43.5 -62t-72.5 -95.5t-47 -30.5t40 106t62 106q-10 0 -25 -1.5t-45 -13.5t-41 -33q-13 -24 -21 -40t-18 -38.5t-15.5 -38t-9.5 -32t-3 -28t7 -19.5
q10 -12 32.5 -13t52 14t52.5 44l86 115q-41 -127 -73 -218q-17 -11 -49.5 -29.5t-45 -27t-32.5 -26.5t-38 -42q-26 -34 -30 -67.5t10.5 -53t49 -17.5t77.5 33q28 20 50.5 58t33 67t35.5 105q46 28 60 34q-35 -98 -46 -151q-7 -24 7.5 -53.5t31.5 -47.5l18 -18q-9 31 42 203
q27 90 70 163q29 50 80 86.5t66 24.5q7 -8 1.5 -37.5t-18.5 -55.5q-16 -32 -38 -55.5t-42 -34t-38 -16.5t-29 -6l-10 -1q5 -4 13.5 -9t34 -12.5t50 -5t56.5 24t57 64.5zM2480 987q36 39 65 29q23 -8 13 -37q-8 -19 -31 -40q-17 -15 -39 -20t-36 -2l-14 3q2 -5 6 -12
t21.5 -18.5t40.5 -10.5q48 3 71.5 33t21.5 70q-2 25 -29 45.5t-68 22.5t-88 -31q-41 -30 -69.5 -77.5t-28 -101.5t43.5 -88q31 -24 73.5 -17t81 28t60.5 45q7 8 11 22.5t4 25.5l1 10q-31 -50 -103.5 -82.5t-90.5 -1.5q-19 31 10 94.5t73 110.5zM1282 94q-16 0 -28 10
q-9 8 -9 25q0 15 6 27t17 19t27 7q17 0 27 -9t10 -25q0 -15 -6 -27t-17 -19q-13 -8 -27 -8zM1734 94q-16 0 -28 10q-10 9 -10 25q0 15 6 27q6 11 18 19q11 7 26 7q18 0 28 -9t10 -25q0 -13 -7 -27q-6 -12 -17 -19q-13 -8 -26 -8zM717 102q-10 -6 -28 -6h-31l17 85h27
q18 0 29 -9q10 -9 10 -24t-6 -27q-6 -11 -18 -19zM511 0l56 282h1728l-56 -282h-1728zM2066 207l-5 -26h44l-22 -111h32l22 111h44l5 26h-120zM1888 207l-27 -137h31l17 86l51 -86h27l27 137h-31l-17 -86l-52 86h-26zM1675 169q-11 -20 -11 -42q0 -17 8 -31q7 -13 23 -21
t36 -8q24 0 44 11q18 10 30 30q11 20 11 42q0 17 -8 31q-7 13 -23 21q-14 7 -36 7q-25 0 -44 -10q-18 -10 -30 -30zM1528 207l-28 -137h32l10 50h64l5 25h-64l7 36h72l5 26h-103zM1223 169q-11 -20 -11 -42q0 -17 8 -31q7 -12 24 -21q16 -8 35 -8q25 0 45 11q18 10 30 30
q10 19 10 42q0 17 -8 31q-7 13 -23 21q-14 7 -36 7q-25 0 -44 -10q-18 -10 -30 -30zM1013 207l-28 -137h30l17 82l28 -68h14l52 67l-16 -81h30l27 137h-27l-67 -86l-34 86h-26zM846 207l-28 -137h107l5 25h-75l6 32h64l5 25h-64l6 29h72l6 26h-104zM648 207l-27 -137h67
q28 0 45 9q19 10 30 29q10 17 10 42q0 16 -8 30q-7 12 -23 20q-14 7 -36 7h-58z" />
    <glyph glyph-name="A" unicode="A" horiz-adv-x="1230" 
d="M1163 97q12 -36 -10 -66.5t-60 -30.5h-92q-24 0 -43.5 14t-27.5 37l-106 323h-431l-106 -323q-8 -23 -27 -37t-43 -14h-92q-38 0 -60 30.5t-10 66.5l96 293q-34 24 -34 68v67q0 35 24.5 59.5t59.5 24.5h22l205 625q12 37 44.5 60.5t72.5 23.5h128q40 0 71.5 -23t44.5 -61
l205 -625h23q34 0 58.5 -24.5t24.5 -59.5v-67q0 -44 -34 -68zM470 609h277l-138 422z" />
    <glyph glyph-name="A" unicode="&#xc5;" horiz-adv-x="1230" 
d="M1163 97q12 -36 -10 -66.5t-60 -30.5h-92q-24 0 -43.5 14t-27.5 37l-106 323h-431l-106 -323q-8 -23 -27 -37t-43 -14h-92q-38 0 -60 30.5t-10 66.5l96 293q-34 24 -34 68v67q0 35 24.5 59.5t59.5 24.5h22l205 625q12 37 44.5 60.5t72.5 23.5h128q40 0 71.5 -23t44.5 -61
l205 -625h23q34 0 58.5 -24.5t24.5 -59.5v-67q0 -44 -34 -68zM470 609h277l-138 422z" />
    <glyph glyph-name="A" unicode="&#xc4;" horiz-adv-x="1230" 
d="M1163 97q12 -36 -10 -66.5t-60 -30.5h-92q-24 0 -43.5 14t-27.5 37l-106 323h-431l-106 -323q-8 -23 -27 -37t-43 -14h-92q-38 0 -60 30.5t-10 66.5l96 293q-34 24 -34 68v67q0 35 24.5 59.5t59.5 24.5h22l205 625q12 37 44.5 60.5t72.5 23.5h128q40 0 71.5 -23t44.5 -61
l205 -625h23q34 0 58.5 -24.5t24.5 -59.5v-67q0 -44 -34 -68zM470 609h277l-138 422z" />
    <glyph glyph-name="A" unicode="&#xc3;" horiz-adv-x="1230" 
d="M1163 97q12 -36 -10 -66.5t-60 -30.5h-92q-24 0 -43.5 14t-27.5 37l-106 323h-431l-106 -323q-8 -23 -27 -37t-43 -14h-92q-38 0 -60 30.5t-10 66.5l96 293q-34 24 -34 68v67q0 35 24.5 59.5t59.5 24.5h22l205 625q12 37 44.5 60.5t72.5 23.5h128q40 0 71.5 -23t44.5 -61
l205 -625h23q34 0 58.5 -24.5t24.5 -59.5v-67q0 -44 -34 -68zM470 609h277l-138 422z" />
    <glyph glyph-name="A" unicode="&#xc2;" horiz-adv-x="1230" 
d="M1163 97q12 -36 -10 -66.5t-60 -30.5h-92q-24 0 -43.5 14t-27.5 37l-106 323h-431l-106 -323q-8 -23 -27 -37t-43 -14h-92q-38 0 -60 30.5t-10 66.5l96 293q-34 24 -34 68v67q0 35 24.5 59.5t59.5 24.5h22l205 625q12 37 44.5 60.5t72.5 23.5h128q40 0 71.5 -23t44.5 -61
l205 -625h23q34 0 58.5 -24.5t24.5 -59.5v-67q0 -44 -34 -68zM470 609h277l-138 422z" />
    <glyph glyph-name="A" unicode="&#xc1;" horiz-adv-x="1230" 
d="M1163 97q12 -36 -10 -66.5t-60 -30.5h-92q-24 0 -43.5 14t-27.5 37l-106 323h-431l-106 -323q-8 -23 -27 -37t-43 -14h-92q-38 0 -60 30.5t-10 66.5l96 293q-34 24 -34 68v67q0 35 24.5 59.5t59.5 24.5h22l205 625q12 37 44.5 60.5t72.5 23.5h128q40 0 71.5 -23t44.5 -61
l205 -625h23q34 0 58.5 -24.5t24.5 -59.5v-67q0 -44 -34 -68zM470 609h277l-138 422z" />
    <glyph glyph-name="A" unicode="&#xc0;" horiz-adv-x="1230" 
d="M1163 97q12 -36 -10 -66.5t-60 -30.5h-92q-24 0 -43.5 14t-27.5 37l-106 323h-431l-106 -323q-8 -23 -27 -37t-43 -14h-92q-38 0 -60 30.5t-10 66.5l96 293q-34 24 -34 68v67q0 35 24.5 59.5t59.5 24.5h22l205 625q12 37 44.5 60.5t72.5 23.5h128q40 0 71.5 -23t44.5 -61
l205 -625h23q34 0 58.5 -24.5t24.5 -59.5v-67q0 -44 -34 -68zM470 609h277l-138 422z" />
    <glyph glyph-name="B" unicode="B" horiz-adv-x="956" 
d="M763 659q54 -51 84 -117q34 -73 34 -154q0 -80 -34 -153q-29 -64 -81 -115t-120 -82q-82 -38 -180 -38q-95 0 -180 38q0 -16 -11 -27t-27 -11h-108q-37 0 -63 26t-26 63v1141q0 37 26 62.5t63 25.5h107q16 0 27.5 -11t11.5 -27q82 38 180 38t180 -38q141 -64 201 -196
q34 -73 34 -154t-34 -154q-29 -63 -84 -117zM466 235q75 0 127.5 44.5t52.5 108.5t-52.5 109t-127.5 45q-98 0 -180 38v-192q0 -64 52.5 -108.5t127.5 -44.5zM466 776q75 0 127.5 45t52.5 109t-52.5 109t-127.5 45t-127.5 -45t-52.5 -109t52.5 -109t127.5 -45z" />
    <glyph glyph-name="C" unicode="C" horiz-adv-x="913" 
d="M731 1084q-175 0 -300 -125t-125 -300t124.5 -299.5t300.5 -124.5h85q35 0 60 -25t25 -60v-65q0 -35 -25 -60t-60 -25h-85q-134 0 -256 52t-210.5 140.5t-140.5 210.5t-52 256t52 256t140.5 210.5t210.5 140.5t256 52h85q35 0 60 -25t25 -60v-65q0 -35 -25 -59.5
t-60 -24.5h-85z" />
    <glyph glyph-name="C" unicode="&#xc7;" horiz-adv-x="913" 
d="M731 1084q-175 0 -300 -125t-125 -300t124.5 -299.5t300.5 -124.5h85q35 0 60 -25t25 -60v-65q0 -35 -25 -60t-60 -25h-85q-134 0 -256 52t-210.5 140.5t-140.5 210.5t-52 256t52 256t140.5 210.5t210.5 140.5t256 52h85q35 0 60 -25t25 -60v-65q0 -35 -25 -59.5
t-60 -24.5h-85z" />
    <glyph glyph-name="D" unicode="D" horiz-adv-x="946" 
d="M222 1318q134 0 256 -52t210.5 -140.5t140.5 -210.5t52 -256t-52 -256t-140.5 -210.5t-210.5 -140.5t-256 -52h-86q-35 0 -60 25t-25 60v1148q0 35 25 60t60 25h86zM646 659q0 158 -103 277.5t-257 142.5v-839q154 23 257 142t103 277z" />
    <glyph glyph-name="E" unicode="E" horiz-adv-x="1005" 
d="M368 1084q-26 0 -44 -18t-18 -44v-184q0 -25 18 -43t44 -18h204q31 0 52.5 -21.5t21.5 -52.5v-87q0 -31 -21.5 -52.5t-52.5 -21.5h-204q-26 0 -44 -18t-18 -44v-245h522q30 0 51.5 -21.5t21.5 -51.5v-89q0 -30 -21.5 -51.5t-51.5 -21.5h-684q-10 0 -21 3q-5 2 -13 6
q-4 2 -6 4q-25 18 -31 46q-1 5 -1 14v1172q0 31 21 52t52 21h682q31 0 52.5 -21t21.5 -52v-88q0 -31 -21.5 -52t-52.5 -21h-459z" />
    <glyph glyph-name="E" unicode="&#xcb;" horiz-adv-x="1005" 
d="M368 1084q-26 0 -44 -18t-18 -44v-184q0 -25 18 -43t44 -18h204q31 0 52.5 -21.5t21.5 -52.5v-87q0 -31 -21.5 -52.5t-52.5 -21.5h-204q-26 0 -44 -18t-18 -44v-245h522q30 0 51.5 -21.5t21.5 -51.5v-89q0 -30 -21.5 -51.5t-51.5 -21.5h-684q-10 0 -21 3q-5 2 -13 6
q-4 2 -6 4q-25 18 -31 46q-1 5 -1 14v1172q0 31 21 52t52 21h682q31 0 52.5 -21t21.5 -52v-88q0 -31 -21.5 -52t-52.5 -21h-459z" />
    <glyph glyph-name="E" unicode="&#xca;" horiz-adv-x="1005" 
d="M368 1084q-26 0 -44 -18t-18 -44v-184q0 -25 18 -43t44 -18h204q31 0 52.5 -21.5t21.5 -52.5v-87q0 -31 -21.5 -52.5t-52.5 -21.5h-204q-26 0 -44 -18t-18 -44v-245h522q30 0 51.5 -21.5t21.5 -51.5v-89q0 -30 -21.5 -51.5t-51.5 -21.5h-684q-10 0 -21 3q-5 2 -13 6
q-4 2 -6 4q-25 18 -31 46q-1 5 -1 14v1172q0 31 21 52t52 21h682q31 0 52.5 -21t21.5 -52v-88q0 -31 -21.5 -52t-52.5 -21h-459z" />
    <glyph glyph-name="E" unicode="&#xc9;" horiz-adv-x="1005" 
d="M368 1084q-26 0 -44 -18t-18 -44v-184q0 -25 18 -43t44 -18h204q31 0 52.5 -21.5t21.5 -52.5v-87q0 -31 -21.5 -52.5t-52.5 -21.5h-204q-26 0 -44 -18t-18 -44v-245h522q30 0 51.5 -21.5t21.5 -51.5v-89q0 -30 -21.5 -51.5t-51.5 -21.5h-684q-10 0 -21 3q-5 2 -13 6
q-4 2 -6 4q-25 18 -31 46q-1 5 -1 14v1172q0 31 21 52t52 21h682q31 0 52.5 -21t21.5 -52v-88q0 -31 -21.5 -52t-52.5 -21h-459z" />
    <glyph glyph-name="E" unicode="&#xc8;" horiz-adv-x="1005" 
d="M368 1084q-26 0 -44 -18t-18 -44v-184q0 -25 18 -43t44 -18h204q31 0 52.5 -21.5t21.5 -52.5v-87q0 -31 -21.5 -52.5t-52.5 -21.5h-204q-26 0 -44 -18t-18 -44v-245h522q30 0 51.5 -21.5t21.5 -51.5v-89q0 -30 -21.5 -51.5t-51.5 -21.5h-684q-10 0 -21 3q-5 2 -13 6
q-4 2 -6 4q-25 18 -31 46q-1 5 -1 14v1172q0 31 21 52t52 21h682q31 0 52.5 -21t21.5 -52v-88q0 -31 -21.5 -52t-52.5 -21h-459z" />
    <glyph glyph-name="F" unicode="F" horiz-adv-x="792" 
d="M827 1318q31 0 52.5 -21.5t21.5 -52.5v-87q0 -31 -21.5 -52t-52.5 -21h-459q-26 0 -44 -18t-18 -44v-184q0 -25 18 -43t44 -18h204q31 0 52.5 -21.5t21.5 -52.5v-87q0 -31 -21.5 -52.5t-52.5 -21.5h-204q-26 0 -44 -18t-18 -44v-406q0 -31 -21 -52.5t-52 -21.5h-87
q-31 0 -52.5 21.5t-21.5 52.5v1170q0 31 21.5 52.5t52.5 21.5h681z" />
    <glyph glyph-name="G" unicode="G" horiz-adv-x="1005" 
d="M731 1084q-175 0 -300 -125t-125 -300q0 -158 103 -277t257 -142v165q0 26 -18 44t-43 18h-64q-31 0 -52.5 21.5t-21.5 52.5v87q0 31 21.5 52.5t52.5 21.5h267q38 0 65.5 -27.5t27.5 -65.5v-524q0 -35 -25 -60t-60 -25h-85q-134 0 -256 52t-210.5 140.5t-140.5 210.5
t-52 256t52 256t140.5 210.5t210.5 140.5t256 52h85q35 0 60 -25t25 -60v-65q0 -35 -25 -59.5t-60 -24.5h-85z" />
    <glyph glyph-name="H" unicode="H" horiz-adv-x="970" 
d="M793 1318q30 0 51 -21t21 -51v-1174q0 -30 -21 -51t-51 -21h-91q-30 0 -51 21t-21 51v470h-324v-470q0 -30 -21 -51t-51 -21h-90q-30 0 -51 21t-21 51v1174q0 30 21 51t51 21h90q30 0 51 -21t21 -51v-469h324v469q0 30 21 51t51 21h91z" />
    <glyph glyph-name="I" unicode="I" horiz-adv-x="411" 
d="M234 1318q30 0 51 -21t21 -51v-135h-234v135q0 30 21 51t51 21h90zM72 72v1009h234v-1009q0 -30 -21 -51t-51 -21h-90q-30 0 -51 21t-21 51z" />
    <glyph glyph-name="I" unicode="&#xcf;" horiz-adv-x="411" 
d="M234 1318q30 0 51 -21t21 -51v-135h-234v135q0 30 21 51t51 21h90zM72 72v1009h234v-1009q0 -30 -21 -51t-51 -21h-90q-30 0 -51 21t-21 51z" />
    <glyph glyph-name="I" unicode="&#xce;" horiz-adv-x="411" 
d="M234 1318q30 0 51 -21t21 -51v-135h-234v135q0 30 21 51t51 21h90zM72 72v1009h234v-1009q0 -30 -21 -51t-51 -21h-90q-30 0 -51 21t-21 51z" />
    <glyph glyph-name="I" unicode="&#xcd;" horiz-adv-x="411" 
d="M234 1318q30 0 51 -21t21 -51v-135h-234v135q0 30 21 51t51 21h90zM72 72v1009h234v-1009q0 -30 -21 -51t-51 -21h-90q-30 0 -51 21t-21 51z" />
    <glyph glyph-name="I" unicode="&#xcc;" horiz-adv-x="411" 
d="M234 1318q30 0 51 -21t21 -51v-135h-234v135q0 30 21 51t51 21h90zM72 72v1009h234v-1009q0 -30 -21 -51t-51 -21h-90q-30 0 -51 21t-21 51z" />
    <glyph glyph-name="J" unicode="J" horiz-adv-x="995" 
d="M820 1315q28 0 48.5 -20.5t20.5 -48.5v-860q0 -84 -33 -154q-61 -132 -201 -196q-86 -39 -180 -39q-81 0 -147.5 23.5t-108.5 58t-73.5 81.5t-47 87t-25.5 82q-7 32 14 58t54 26h93q23 0 42.5 -14.5t25.5 -36.5q34 -130 173 -130q75 0 127.5 45t52.5 109v860
q0 28 20.5 48.5t48.5 20.5h96z" />
    <glyph glyph-name="K" unicode="K" horiz-adv-x="913" 
d="M801 150q14 -25 6.5 -52t-32.5 -41l-85 -48q-25 -14 -52.5 -6.5t-41.5 32.5l-187 333l-55 97l-68 -121v-278q0 -28 -20 -48.5t-49 -20.5h-97q-28 0 -48.5 20.5t-20.5 48.5v1181q0 28 20 48t49 20h97q29 0 49 -20t20 -48v-425l72 128l188 333q14 25 41.5 32.5t52.5 -6.5
l85 -48q25 -14 32.5 -41t-6.5 -52l-258 -457l-4 -7l54 -97z" />
    <glyph glyph-name="L" unicode="L" horiz-adv-x="987" 
d="M825 232q23 0 39.5 -16.5t16.5 -39.5v-123q0 -23 -16.5 -39.5t-39.5 -16.5h-625q-62 0 -105.5 43.5t-43.5 105.5v1114q0 23 16.5 39t39.5 16h123q23 0 39.5 -16t16.5 -39v-968q0 -25 17.5 -42.5t42.5 -17.5h479z" />
    <glyph glyph-name="M" unicode="M" horiz-adv-x="1032" 
d="M864 1315q27 0 45.5 -18.5t18.5 -45.5v-1189q0 -27 -18.5 -46t-45.5 -19h-106q-27 0 -45.5 19t-18.5 46v664l-68 -139l-32 -64l-26 -54q-21 -44 -69.5 -46t-72.5 41l-3 5l-8 15l-51 103l-68 139v-664q0 -27 -18.5 -46t-45.5 -19h-106q-27 0 -46 19t-19 46v1189
q0 27 19 45.5t46 18.5h106q27 0 45 -18l19 -38l199 -405l199 406l18 36q19 19 46 19h106z" />
    <glyph glyph-name="N" unicode="N" horiz-adv-x="1042" 
d="M874 1315q27 0 46 -18.5t19 -45.5v-1189q0 -27 -19 -46t-46 -19h-106q-16 0 -29.5 7.5t-18.5 15.5l-6 8l-408 698v-664q0 -27 -18.5 -46t-45.5 -19h-106q-27 0 -45.5 19t-18.5 46v1189q0 27 18.5 45.5t45.5 18.5h106q27 0 45 -18l418 -800v763l17 36q19 19 46 19h106z
" />
    <glyph glyph-name="N" unicode="&#xd1;" horiz-adv-x="1042" 
d="M874 1315q27 0 46 -18.5t19 -45.5v-1189q0 -27 -19 -46t-46 -19h-106q-16 0 -29.5 7.5t-18.5 15.5l-6 8l-408 698v-664q0 -27 -18.5 -46t-45.5 -19h-106q-27 0 -45.5 19t-18.5 46v1189q0 27 18.5 45.5t45.5 18.5h106q27 0 45 -18l418 -800v763l17 36q19 19 46 19h106z
" />
    <glyph glyph-name="O" unicode="O" horiz-adv-x="985" 
d="M466 1318q113 0 208.5 -88t151 -240t55.5 -331t-55.5 -331t-151 -240t-208.5 -88t-208.5 88t-151 240t-55.5 331t55.5 331t151 240t208.5 88zM466 235q75 0 127.5 124t52.5 300t-52.5 300.5t-127.5 124.5t-127.5 -124.5t-52.5 -300.5t52.5 -300t127.5 -124z" />
    <glyph glyph-name="O" unicode="&#xd8;" horiz-adv-x="985" 
d="M466 1318q113 0 208.5 -88t151 -240t55.5 -331t-55.5 -331t-151 -240t-208.5 -88t-208.5 88t-151 240t-55.5 331t55.5 331t151 240t208.5 88zM466 235q75 0 127.5 124t52.5 300t-52.5 300.5t-127.5 124.5t-127.5 -124.5t-52.5 -300.5t52.5 -300t127.5 -124z" />
    <glyph glyph-name="O" unicode="&#xd6;" horiz-adv-x="985" 
d="M466 1318q113 0 208.5 -88t151 -240t55.5 -331t-55.5 -331t-151 -240t-208.5 -88t-208.5 88t-151 240t-55.5 331t55.5 331t151 240t208.5 88zM466 235q75 0 127.5 124t52.5 300t-52.5 300.5t-127.5 124.5t-127.5 -124.5t-52.5 -300.5t52.5 -300t127.5 -124z" />
    <glyph glyph-name="O" unicode="&#xd5;" horiz-adv-x="985" 
d="M466 1318q113 0 208.5 -88t151 -240t55.5 -331t-55.5 -331t-151 -240t-208.5 -88t-208.5 88t-151 240t-55.5 331t55.5 331t151 240t208.5 88zM466 235q75 0 127.5 124t52.5 300t-52.5 300.5t-127.5 124.5t-127.5 -124.5t-52.5 -300.5t52.5 -300t127.5 -124z" />
    <glyph glyph-name="O" unicode="&#xd4;" horiz-adv-x="985" 
d="M466 1318q113 0 208.5 -88t151 -240t55.5 -331t-55.5 -331t-151 -240t-208.5 -88t-208.5 88t-151 240t-55.5 331t55.5 331t151 240t208.5 88zM466 235q75 0 127.5 124t52.5 300t-52.5 300.5t-127.5 124.5t-127.5 -124.5t-52.5 -300.5t52.5 -300t127.5 -124z" />
    <glyph glyph-name="O" unicode="&#xd3;" horiz-adv-x="985" 
d="M466 1318q113 0 208.5 -88t151 -240t55.5 -331t-55.5 -331t-151 -240t-208.5 -88t-208.5 88t-151 240t-55.5 331t55.5 331t151 240t208.5 88zM466 235q75 0 127.5 124t52.5 300t-52.5 300.5t-127.5 124.5t-127.5 -124.5t-52.5 -300.5t52.5 -300t127.5 -124z" />
    <glyph glyph-name="O" unicode="&#xd2;" horiz-adv-x="985" 
d="M466 1318q113 0 208.5 -88t151 -240t55.5 -331t-55.5 -331t-151 -240t-208.5 -88t-208.5 88t-151 240t-55.5 331t55.5 331t151 240t208.5 88zM466 235q75 0 127.5 124t52.5 300t-52.5 300.5t-127.5 124.5t-127.5 -124.5t-52.5 -300.5t52.5 -300t127.5 -124z" />
    <glyph glyph-name="P" unicode="P" horiz-adv-x="913" 
d="M466 1318q172 0 293.5 -113.5t121.5 -274.5t-121.5 -274.5t-293.5 -113.5q-98 0 -180 38v-515q0 -27 -19 -46t-46 -19h-105q-27 0 -46 19t-19 46v1188q0 27 19 46t46 19h132q16 0 27 -11t11 -27q82 38 180 38zM466 776q75 0 127.5 45t52.5 109t-52.5 109t-127.5 45
t-127.5 -45t-52.5 -109t52.5 -109t127.5 -45z" />
    <glyph glyph-name="Q" unicode="Q" horiz-adv-x="1038" 
d="M1021 164q18 -26 13 -56t-31 -48l-69 -49q-26 -18 -56 -13t-48 31l-93 132q-116 -161 -271 -161q-113 0 -208.5 88t-151 240t-55.5 331t55.5 331t151 240t208.5 88t208.5 -88t151 -240t55.5 -331q0 -132 -31 -251zM350 711q-18 26 -12.5 56t31.5 48l69 49q26 18 56 13
t48 -31l103 -147q-6 163 -57.5 274t-121.5 111q-75 0 -127.5 -124.5t-52.5 -300.5t52.5 -300t127.5 -124q76 0 129 128z" />
    <glyph glyph-name="R" unicode="R" horiz-adv-x="944" 
d="M656 575l199 -428q14 -31 2.5 -63.5t-42.5 -46.5l-63 -29q-31 -14 -63.5 -2.5t-46.5 42.5l-233 500q-48 8 -103 32v-515q0 -27 -19 -46t-46 -19h-104q-27 0 -46 19t-19 46v1188q0 27 19 46t46 19h132q16 0 26.5 -11t10.5 -27q82 38 181 38q172 0 293 -113.5t121 -274.5
q0 -117 -67.5 -213t-177.5 -142zM557 788q49 17 79.5 56t30.5 86q0 64 -52.5 109t-127.5 45q-30 0 -63 -10q-53 -17 -85.5 -56t-32.5 -88q0 -64 53 -109t128 -45q37 0 70 12z" />
    <glyph glyph-name="S" unicode="S" horiz-adv-x="985" 
d="M355 1084q-28 0 -48.5 -20.5t-20.5 -49.5v-237h519q31 0 53.5 -22.5t22.5 -53.5v-632q0 -28 -20.5 -48.5t-49.5 -20.5h-690q-29 0 -49.5 20.5t-20.5 48.5v96q0 29 20.5 49.5t49.5 20.5h456q29 0 49 20.5t20 48.5v169q0 29 -20 49t-49 20h-456q-29 0 -49.5 20.5
t-20.5 48.5v638q0 28 20.5 48.5t49.5 20.5h690q29 0 49.5 -20.5t20.5 -48.5v-96q0 -28 -20.5 -48.5t-49.5 -20.5h-456z" />
    <glyph glyph-name="T" unicode="T" horiz-adv-x="759" 
d="M817 1318q26 0 45 -18.5t19 -44.5v-108q0 -26 -19 -44.5t-45 -18.5h-198q-15 0 -25.5 -10.5t-10.5 -25.5v-985q0 -26 -18.5 -44.5t-44.5 -18.5h-108q-26 0 -44.5 18.5t-18.5 44.5v985q0 15 -10.5 25.5t-25.5 10.5h-198q-26 0 -45 18.5t-19 44.5v108q0 26 19 44.5t45 18.5
h702z" />
    <glyph glyph-name="U" unicode="U" horiz-adv-x="987" 
d="M820 1318q25 0 43 -17.5t18 -42.5v-843q0 -172 -121.5 -293.5t-293.5 -121.5t-293.5 121.5t-121.5 293.5v843q0 25 18 42.5t43 17.5h113q25 0 43 -17.5t18 -42.5v-843q0 -75 52.5 -127.5t127.5 -52.5t127.5 52.5t52.5 127.5v843q0 25 18 42.5t43 17.5h113z" />
    <glyph glyph-name="U" unicode="&#xdc;" horiz-adv-x="987" 
d="M820 1318q25 0 43 -17.5t18 -42.5v-843q0 -172 -121.5 -293.5t-293.5 -121.5t-293.5 121.5t-121.5 293.5v843q0 25 18 42.5t43 17.5h113q25 0 43 -17.5t18 -42.5v-843q0 -75 52.5 -127.5t127.5 -52.5t127.5 52.5t52.5 127.5v843q0 25 18 42.5t43 17.5h113z" />
    <glyph glyph-name="U" unicode="&#xdb;" horiz-adv-x="987" 
d="M820 1318q25 0 43 -17.5t18 -42.5v-843q0 -172 -121.5 -293.5t-293.5 -121.5t-293.5 121.5t-121.5 293.5v843q0 25 18 42.5t43 17.5h113q25 0 43 -17.5t18 -42.5v-843q0 -75 52.5 -127.5t127.5 -52.5t127.5 52.5t52.5 127.5v843q0 25 18 42.5t43 17.5h113z" />
    <glyph glyph-name="U" unicode="&#xda;" horiz-adv-x="987" 
d="M820 1318q25 0 43 -17.5t18 -42.5v-843q0 -172 -121.5 -293.5t-293.5 -121.5t-293.5 121.5t-121.5 293.5v843q0 25 18 42.5t43 17.5h113q25 0 43 -17.5t18 -42.5v-843q0 -75 52.5 -127.5t127.5 -52.5t127.5 52.5t52.5 127.5v843q0 25 18 42.5t43 17.5h113z" />
    <glyph glyph-name="U" unicode="&#xd9;" horiz-adv-x="987" 
d="M820 1318q25 0 43 -17.5t18 -42.5v-843q0 -172 -121.5 -293.5t-293.5 -121.5t-293.5 121.5t-121.5 293.5v843q0 25 18 42.5t43 17.5h113q25 0 43 -17.5t18 -42.5v-843q0 -75 52.5 -127.5t127.5 -52.5t127.5 52.5t52.5 127.5v843q0 25 18 42.5t43 17.5h113z" />
    <glyph glyph-name="V" unicode="V" horiz-adv-x="1161" 
d="M1179 1274q24 -9 34.5 -32.5t1.5 -47.5l-436 -1133q-10 -28 -35 -44.5t-54 -16.5h-110q-29 0 -54 16.5t-35 44.5l-436 1133q-9 24 1.5 47.5t34.5 32.5l103 40q24 9 47.5 -1t32.5 -34l361 -938l360 938q9 24 32.5 34t47.5 1z" />
    <glyph glyph-name="W" unicode="W" horiz-adv-x="1720" 
d="M1762 1274q24 -9 34.5 -32.5t1.5 -47.5l-436 -1133q-10 -28 -34.5 -44.5t-53.5 -16.5h-110q-30 0 -54 16.5t-35 44.5l-148 385l-148 -385q-11 -28 -35 -44.5t-54 -16.5h-110q-29 0 -54 16.5t-35 44.5l-436 1133q-9 24 1.5 47.5t34.5 32.5l103 40q24 9 47.5 -1t32.5 -34
l361 -938l132 345q16 41 52 65.5t80 24.5h55q44 0 80 -24.5t52 -65.5l133 -345l360 938q9 24 32.5 34t47.5 1z" />
    <glyph glyph-name="X" unicode="X" horiz-adv-x="1052" 
d="M646 659l292 -500q17 -29 8 -62t-38 -50l-62 -36q-29 -17 -61.5 -8t-49.5 38l-225 385l-224 -385q-17 -29 -50 -38t-62 8l-61 36q-29 17 -38 50t8 62l291 500l-291 500q-17 29 -8 62.5t38 50.5l61 35q29 17 62 8t50 -38l224 -385l225 385q17 29 49.5 38t61.5 -8l62 -35
q29 -17 38 -50.5t-8 -62.5z" />
    <glyph glyph-name="Y" unicode="Y" horiz-adv-x="827" 
d="M908 1272q29 -17 38 -50.5t-8 -62.5l-487 -834l-165 -284q-17 -29 -50 -38t-62 8l-61 36q-29 17 -38 50t8 62l291 500l-291 500q-17 29 -8 62.5t38 50.5l61 35q29 17 62 8t50 -38l224 -385l225 385q17 29 49.5 38t61.5 -8z" />
    <glyph glyph-name="Y" unicode="&#x178;" horiz-adv-x="827" 
d="M908 1272q29 -17 38 -50.5t-8 -62.5l-487 -834l-165 -284q-17 -29 -50 -38t-62 8l-61 36q-29 17 -38 50t8 62l291 500l-291 500q-17 29 -8 62.5t38 50.5l61 35q29 17 62 8t50 -38l224 -385l225 385q17 29 49.5 38t61.5 -8z" />
    <glyph glyph-name="Y" unicode="&#xdd;" horiz-adv-x="827" 
d="M908 1272q29 -17 38 -50.5t-8 -62.5l-487 -834l-165 -284q-17 -29 -50 -38t-62 8l-61 36q-29 17 -38 50t8 62l291 500l-291 500q-17 29 -8 62.5t38 50.5l61 35q29 17 62 8t50 -38l224 -385l225 385q17 29 49.5 38t61.5 -8z" />
    <glyph glyph-name="Z" unicode="Z" horiz-adv-x="985" 
d="M901 1166q0 -67 -36 -125l-507 -806h475q28 0 48 -20t20 -49v-98q0 -28 -19.5 -48t-48.5 -20h-685q-32 0 -54 22t-22 54v77q0 66 36 124l507 807h-475q-28 0 -48 20t-20 48v98q0 28 20 48t48 20h685q31 0 53.5 -22t22.5 -54v-76z" />
    <glyph glyph-name="bracketleft" unicode="[" 
d="M1703 583q39 56 129 98q-31 -85 -53 -125.5t-48 -49.5q-41 -14 -48.5 11.5t20.5 65.5zM751 875q3 -45 27 -83.5t61 -51.5q-17 -61 -39 -79.5t-50 -10.5q-24 7 -24.5 72.5t14.5 116.5q3 12 11 36zM795 905q34 52 48 -21q11 -61 4 -112l-1 -5v-1q-34 18 -52 62t1 77z
M2704 921q3 -46 -19 -87q10 -17 10 -33q0 -64 -31 -98q-33 -37 -91 -65.5t-113 -28.5t-94 31q-17 13 -32 33q-62 -69 -145 -69q-34 0 -64 10l-3 -9q-44 -150 -42 -171q10 -43 -26 -66q-15 -9 -32 -9q-22 0 -40 16q-37 37 -54 65q-24 -37 -61 -64q-62 -44 -118 -44
q-21 0 -41 10t-32 21t-30 31q-23 25 -44 65q-15 30 -12 66l-6 6q-24 -11 -48 -11q-68 0 -113 73q-7 10 -12 25l-8 8l-7 -44q-2 -34 -30 -50q-14 -8 -30 -8q-15 0 -29 8q-8 4 -21 14q-7 -4 -14 -5q-6 -2 -22 -2q-65 0 -100 53q-40 -46 -82 -49h-14q-64 0 -97 45
q-62 -87 -149 -87q-63 0 -111 46q2 -34 5 -50q6 -39 -28 -61q-15 -9 -32 -9q-18 0 -34 11q-6 4 -17 13.5t-34.5 38t-42.5 61.5q-20 23 -36 50q-8 -79 10 -113q16 -31 -1 -59q-18 -30 -51 -30h-1q-65 0 -111 54q-73 87 -83 160q-16 -11 -34 -11q-12 0 -21 4q-44 17 -65 58
t-18 69l3.5 17.5t14 34.5t31 47.5t56 45.5t86.5 39q30 107 52 161.5t32 65t27 16.5q11 4 25 4q50 0 122 -74q3 -3 7 -9q37 85 94 177q36 58 108 58q55 0 97 -25q14 -8 44.5 -53.5t31.5 -61.5q2 -34 -27 -53q-16 -10 -36 -35q41 -22 72 -61q10 -13 12 -31q1 -1 4 -3
q19 31 39 50q43 41 106 41q71 0 105 -47q22 2 29 2q41 126 111 241q36 58 108 58q35 0 97 -25q31 -17 33 -51l-1 -1v-2q61 4 233 4h102q17 0 33.5 1.5t29.5 3.5t25 4t21 4.5t15.5 4.5t10.5 3l3 1q9 4 22 4q25 0 43 -18q8 -8 26 -36t18 -29q24 -35 12 -65q-7 -15 -15 -29
q44 -8 53 -45q2 -8 2 -14q24 3 25 3q50 0 84 -36q24 29 50 47q58 43 122 43q52 0 90 -23t73 -72q37 -43 40 -94zM598 552q-14 83 5.5 195.5t57 211t84 176.5t85.5 103q-10 5 -26 11.5t-50 5t-50 -27.5q-66 -107 -106 -207.5t-49.5 -172.5t-10 -111.5t4.5 -65.5
q-24 41 -36 95.5t-12.5 102t2.5 89.5t7 67l5 24l-7 7t-16 14.5t-22 18.5t-21 13t-17 3q-21 -7 -83 -237q-47 -10 -83 -27.5t-54 -36.5t-29 -36.5t-13 -28.5l-2 -11q27 40 162 68q-14 -54 -21 -99q-7 -51 -1.5 -83.5t20.5 -50.5t30 -26.5t27 -9.5l12 -2q-20 36 -20.5 96
t12.5 120t29 114.5t30 89.5l13 34q3 -120 24 -218q9 -41 24.5 -77.5t31 -59.5t30.5 -40t24 -24zM1144 716q7 -28 25 -41t33 -12l14 1q-3 3 -6.5 11t-9.5 40.5t4 79.5q6 39 17 85t19 72l8 27q-67 3 -84 -28q-29 -53 -51.5 -106t-46.5 -89q-36 -54 -52 -39q-13 11 2.5 67
t42.5 111q32 63 50 79t55 5q9 24 -24 38q-42 18 -84 -5l-17 -13q-24 -23 -47.5 -74t-35.5 -106q-22 -42 -55 -56q14 61 13 93q-3 76 -28.5 103.5t-66.5 22.5q32 22 76 9q-2 3 -6 7.5t-17.5 17.5t-26.5 19t-33.5 11.5t-37.5 -3.5q-31 -11 -64 -74.5t-48.5 -139.5t-1.5 -119
q15 -45 49 -68.5t77.5 -13t78.5 59.5q17 24 27 48q29 6 57 34q-3 -31 1 -52q9 -54 70 -50q26 2 62.5 58t59.5 111l24 55q-2 -5 -4 -12.5t-8 -31.5t-8.5 -43t-5 -46.5t3.5 -42.5zM1516 652l-5 5t-9.5 16t-10 28t-3 41.5t7.5 56.5q11 45 25.5 87.5t22.5 62.5l9 20l-57 27
q-9 5 -19 -2q-103 -73 -168 -189q33 145 99 283t119 172q-4 2 -10 4.5t-24 7.5t-33 5.5t-32.5 -6.5t-27.5 -23q-92 -150 -135 -337q-12 -51 -20.5 -113.5t-6.5 -82.5q2 -17 15.5 -33.5t26.5 -24.5l12 -8q0 11 2.5 29.5t18.5 66.5t44 84q32 41 59 69.5t38 36.5l11 8
q-3 -7 -8 -20t-16.5 -48.5t-18 -66t-6 -65t12.5 -53.5q19 -31 41 -40.5t34 -3.5zM1636 595q-13 22 -14 60.5t9.5 87t26 99t37 106t40 99t38.5 85.5q171 3 187 4q37 3 67.5 26.5t42.5 45.5l11 21q-64 -25 -159 -26h-97.5t-109 -0.5t-87.5 -2.5t-72 -5q-39 -5 -68.5 -31
t-39.5 -50l-11 -23q8 11 50 20t83 12q47 3 111 4q-3 -8 -54.5 -142.5t-69.5 -213.5q-8 -38 -3.5 -67.5t18 -50t28 -33.5t25.5 -19zM2273 817q22 37 30 65.5t6 43t-10 32.5q-23 55 -88 31q-31 -12 -62.5 -40t-47.5 -50l-16 -22q72 174 75 176l-25 1q-57 -3 -73 -33
q-35 -98 -76 -213q-1 -4 -3.5 -11t-3.5 -10q-50 -29 -63 -35q14 47 40 115.5t44 113.5l19 45q-69 -3 -91 -28q-5 -6 -43.5 -62t-72.5 -95.5t-47 -30.5t40 106t62 106q-10 0 -25 -1.5t-45 -13.5t-41 -33q-13 -24 -21 -40t-18 -38.5t-15.5 -38t-9.5 -32t-3 -28t7 -19.5
q10 -12 32.5 -13t51.5 14t52 44l87 115q-41 -127 -73 -218q-17 -11 -49.5 -29.5t-45 -27t-32.5 -26.5t-38 -42q-26 -34 -30 -67.5t10.5 -53t49 -17.5t77.5 33q28 20 50.5 58t33 67t35.5 105q46 28 60 34q-35 -98 -46 -151q-7 -24 7.5 -53.5t31.5 -47.5l18 -18q-9 31 42 203
q27 90 70 163q29 50 80 86.5t66 24.5q7 -8 1.5 -37.5t-18.5 -55.5q-16 -32 -38 -55.5t-42 -34t-38 -16.5t-29 -6l-10 -1q5 -4 13.5 -9t34 -12.5t50 -5t56.5 24t57 64.5zM2480 987q36 39 65 29q23 -8 13 -37q-8 -19 -31 -40q-17 -15 -39 -20t-36 -2l-14 3q2 -5 6 -12
t21.5 -18.5t40.5 -10.5q48 3 71.5 33t21.5 70q-2 25 -29 45.5t-68 22.5t-88 -31q-41 -30 -69.5 -77.5t-28 -101.5t43.5 -88q31 -24 73.5 -17t81 28t60.5 45q7 8 11 22.5t4 25.5l1 10q-31 -50 -103.5 -82.5t-90.5 -1.5q-19 31 10 94.5t73 110.5zM1282 94q-16 0 -28 10
q-9 8 -9 25q0 15 6 27t17 19t27 7q17 0 27 -9t10 -25q0 -15 -6 -27t-17 -19q-13 -8 -27 -8zM1733 94q-15 0 -27 10q-10 9 -10 25q0 15 6 27q6 11 18 19q11 7 26 7q18 0 28 -9t10 -25q0 -13 -7 -27q-6 -12 -17 -19q-13 -8 -27 -8zM717 102q-10 -6 -28 -6h-31l17 85h27
q18 0 29 -9q10 -9 10 -24t-6 -27q-6 -11 -18 -19zM511 0l56 282h1728l-56 -282h-1728zM2066 207l-5 -26h44l-22 -111h32l22 111h44l5 26h-120zM1888 207l-28 -137h32l17 86l51 -86h27l27 137h-31l-17 -86l-52 86h-26zM1674 169q-10 -19 -10 -42q0 -17 8 -31q7 -13 23 -21
t36 -8q24 0 44 11q19 10 30 29q11 20 11 43q0 17 -8 31q-7 13 -23 21q-14 7 -36 7q-25 0 -44 -10q-20 -11 -31 -30zM1528 207l-28 -137h32l10 50h63l6 25h-64l7 36h72l5 26h-103zM1223 169q-11 -20 -11 -42q0 -17 8 -31q7 -12 24 -21q16 -8 35 -8q25 0 45 11q18 10 30 30
q10 19 10 42q0 17 -8 31q-7 13 -23 21q-14 7 -36 7q-25 0 -44 -10q-18 -10 -30 -30zM1013 207l-28 -137h30l17 82l28 -68h14l52 67l-16 -81h30l27 137h-27l-67 -86l-34 86h-26zM846 207l-28 -137h107l5 25h-75l6 32h64l5 25h-64l6 29h72l5 26h-103zM648 207l-27 -137h67
q27 0 44 9q21 11 31 29q10 17 10 42q0 16 -8 30q-7 12 -23 20q-14 7 -36 7h-58z" />
    <glyph glyph-name="backslash" unicode="\" 
d="M795 905q34 52 48 -21q11 -61 4 -112l-1 -5v-1q-34 18 -52 62t1 77zM1703 583q39 56 129 98q-31 -85 -53 -125.5t-48 -49.5q-41 -14 -48.5 11.5t20.5 65.5zM751 875q3 -45 27 -83.5t61 -51.5q-17 -61 -39 -79.5t-50 -10.5q-24 7 -24.5 72.5t14.5 116.5q3 12 11 36z
M2704 921q3 -45 -19 -87q10 -17 10 -33q0 -64 -31 -98q-33 -37 -91 -65.5t-113 -28.5t-94 31q-17 13 -32 33q-62 -69 -146 -69q-33 0 -63 10l-3 -9q-44 -150 -42 -171q10 -43 -26 -66q-15 -9 -32 -9q-22 0 -40 16q-37 37 -54 65q-24 -37 -61 -64q-62 -44 -118 -44
q-21 0 -41 10t-32 21t-30 31q-23 25 -44 65q-15 30 -12 66l-6 6q-24 -11 -48 -11q-69 0 -114 73q-5 7 -11 25l-8 8l-7 -44q-2 -34 -31 -50q-14 -8 -29 -8t-29 8q-8 4 -21 14q-7 -4 -14 -5q-6 -2 -22 -2q-66 0 -101 53q-40 -46 -81 -49h-14q-64 0 -97 45q-62 -87 -150 -87
q-62 0 -110 46q2 -34 5 -50q6 -39 -28 -61q-15 -9 -32 -9q-18 0 -34 11q-6 4 -17 13.5t-34.5 38t-42.5 61.5q-20 23 -36 50q-8 -79 10 -113q16 -31 -1 -59q-18 -30 -51 -30h-1q-65 0 -111 54q-73 87 -83 160q-16 -11 -34 -11q-12 0 -21 4q-44 17 -65 58t-18 69l3.5 17.5
t14 34.5t31 47.5t56 45.5t86.5 39q30 106 52 161t32 65.5t27 16.5q11 4 25 4q50 0 122 -74q3 -3 7 -9q40 91 93 177q36 58 109 58q55 0 97 -25q14 -8 44.5 -53.5t31.5 -61.5q2 -33 -28 -53q-14 -9 -35 -35q41 -22 72 -61q11 -13 12 -30l4 -4q19 31 39 50q43 41 106 41
q71 0 105 -47q22 2 29 2q38 120 111 241q36 58 108 58q35 0 97 -25q31 -17 33 -50q0 -1 -0.5 -2t-0.5 -2q61 4 233 4h102q17 0 33.5 1.5t29.5 3.5t25 4t21 4.5t15.5 4.5t10.5 3l3 1q9 4 22 4q25 0 43 -18q8 -8 26 -36t18 -29q24 -35 12 -65q-7 -15 -15 -29q44 -8 53 -45
q2 -8 2 -14q12 3 25 3q50 0 84 -36q24 29 50 47q58 43 122 43q53 0 90.5 -23t72.5 -72q37 -43 40 -94zM598 552q-14 83 5.5 195.5t57 211t84 176.5t85.5 103q-10 5 -26 11.5t-50 5t-50 -27.5q-66 -107 -106 -207.5t-49.5 -172.5t-10 -111.5t4.5 -65.5q-24 41 -36 95.5
t-12.5 102t2.5 89.5t7 67l5 24l-7 7t-16 14.5t-22 18.5t-21 13t-17 3q-21 -7 -83 -237q-47 -10 -83 -27.5t-54 -36.5t-29 -36.5t-13 -28.5l-2 -11q27 40 162 68q-14 -54 -21 -99q-7 -51 -1.5 -83.5t20.5 -50.5t30 -26.5t27 -9.5l12 -2q-20 36 -20.5 96t12.5 120t29 114.5
t30 89.5l13 34q3 -120 24 -218q9 -41 24.5 -77.5t31 -59.5t30.5 -40t24 -24zM1144 717q7 -28 25 -41t33 -12l14 1q-3 3 -6.5 11t-9.5 40t4 79q6 39 17 85t19 72l8 27q-67 3 -84 -28q-28 -52 -51.5 -105.5t-47.5 -89.5q-36 -53 -51 -39q-13 11 2.5 68t42.5 111q32 62 50 78
t55 5q9 24 -24 38q-42 18 -84 -5l-17 -13q-24 -23 -47.5 -74t-35.5 -106q-22 -42 -55 -56q14 61 13 93q-3 76 -28.5 103.5t-66.5 22.5q32 22 76 9q-2 3 -6 7.5t-17.5 17.5t-26.5 19t-33.5 11.5t-37.5 -3.5q-31 -11 -64 -74.5t-48.5 -139.5t-1.5 -119q11 -33 34 -55t51 -28
t60.5 9.5t58.5 52.5q20 30 28 47q28 6 57 35q-3 -31 1 -53q9 -54 70 -50q26 2 62.5 58t59.5 112l24 55q-2 -5 -4 -12.5t-8 -31.5t-8.5 -43t-5 -46.5t3.5 -42.5zM1516 652l-5 5t-9.5 16t-10 28t-3 41.5t7.5 56.5q11 45 25.5 87.5t22.5 62.5l9 20l-57 27q-10 5 -19 -1
q-19 -14 -43 -34.5t-61.5 -64.5t-63.5 -91q33 145 99 283t119 172q-4 2 -10 4.5t-24 7.5t-33 5.5t-32.5 -6.5t-27.5 -23q-92 -150 -135 -337q-12 -51 -20.5 -113.5t-6.5 -82.5q2 -17 15.5 -33.5t26.5 -24.5l12 -8q0 11 2.5 29.5t18.5 66.5t44 84q32 41 59 69.5t38 36.5l11 8
q-3 -7 -8 -20t-16.5 -48.5t-18 -66t-6 -65t12.5 -53.5q19 -31 41 -40.5t34 -3.5zM1636 595q-13 22 -14 60.5t9.5 87t26 99t37 106t40 99t38.5 85.5q171 3 187 4q37 3 67.5 26.5t42.5 45.5l11 21q-64 -25 -159 -26q-69 -1 -135 0t-132.5 -0.5t-98.5 -6.5q-39 -5 -68.5 -31
t-39.5 -50l-11 -24q8 11 50.5 21t82.5 12q22 1 111 3q-3 -10 -54 -143.5t-70 -212.5q-8 -38 -3.5 -67.5t18 -50t28 -33.5t25.5 -19zM2273 817q22 37 30 65.5t6 43t-10 32.5q-23 55 -88 31q-31 -12 -62.5 -40t-47.5 -50l-16 -22q72 174 75 176l-25 1q-57 -3 -73 -33
q-35 -98 -76 -213q-1 -4 -3.5 -10t-3.5 -10q-59 -34 -63 -36q14 47 40 115.5t44 113.5l19 45q-69 -3 -91 -28q-5 -6 -43.5 -62t-72.5 -95.5t-47 -30.5t40 106t62 106q-10 0 -25 -1.5t-45 -13.5t-41 -33q-13 -24 -21 -40t-18 -38.5t-15.5 -38t-9.5 -32t-3 -28t7 -19.5
q10 -12 32.5 -13t52 14t52.5 44l86 115q-41 -127 -73 -218q-17 -11 -49.5 -29.5t-45 -27t-32.5 -26.5t-38 -42q-26 -34 -30 -67.5t10.5 -53t49 -17.5t77.5 33q28 20 50.5 58t33 67t35.5 105q46 28 60 34q-35 -98 -46 -151q-7 -24 7.5 -53.5t31.5 -47.5l18 -18q-9 31 42 203
q28 92 70 164q29 50 80 86.5t66 24.5q7 -8 1.5 -38t-18.5 -56q-16 -32 -38 -55.5t-42 -34t-38 -16.5t-29 -6l-10 -1q5 -4 13.5 -9t34 -12.5t50 -5t56.5 24t57 64.5zM2480 988q35 38 64 29q23 -7 14 -35q-6 -21 -31 -43q-17 -15 -39 -20t-36 -2l-14 3q2 -5 6 -12t21.5 -18.5
t40.5 -10.5q48 3 71.5 33t21.5 70q-2 25 -29 45.5t-68 22.5t-88 -31q-41 -30 -69.5 -77.5t-28 -101.5t43.5 -88q31 -24 73.5 -17t81 28t60.5 45q7 8 11 22.5t4 25.5l1 10q-31 -50 -103.5 -82.5t-90.5 -1.5q-19 31 10 95t73 111zM1282 94q-18 0 -28 10q-9 8 -9 25q0 15 6 27
t17 19t27 7q17 0 27 -9t10 -25q0 -15 -6 -27t-17 -19q-13 -8 -27 -8zM1733 94q-15 0 -27 10q-10 9 -10 25q0 15 6 27q6 11 18 19q11 7 26 7q18 0 28 -9t10 -25q0 -13 -7 -27q-6 -12 -17 -19q-13 -8 -27 -8zM717 103q-11 -7 -28 -7h-31l17 85h27q18 0 29 -9q10 -9 10 -24
t-6 -27q-5 -10 -18 -18zM511 0l56 282h1728l-56 -282h-1728zM2066 207l-5 -26h44l-22 -111h32l22 111h44l5 26h-120zM1888 207l-27 -137h31l17 86l51 -86h27l27 137h-31l-17 -86l-52 86h-26zM1674 169q-10 -19 -10 -42q0 -17 8 -31q7 -13 23 -21t36 -8q24 0 44 11
q18 10 30 30q11 20 11 42q0 17 -8 31q-7 13 -23 21q-14 7 -36 7q-25 0 -44 -10q-20 -11 -31 -30zM1528 207l-28 -137h32l10 50h63l6 25h-64l7 37h72l5 25h-103zM1223 169q-11 -20 -11 -42q0 -17 8 -31q7 -12 24 -21q16 -8 35 -8q25 0 45 11q18 10 30 30q10 19 10 42
q0 17 -8 31q-7 13 -23 21q-14 7 -36 7q-25 0 -44 -10q-18 -10 -30 -30zM1013 207l-28 -137h30l17 82l28 -68h14l52 67l-16 -81h30l27 137h-27l-67 -86l-34 86h-26zM846 207l-28 -137h107l5 25h-75l6 32h64l5 25h-64l6 30h72l6 25h-104zM648 207l-27 -137h67q25 0 44 10
q21 12 31 28q10 17 10 42q0 16 -8 30q-7 12 -23 20q-14 7 -36 7h-58z" />
    <glyph glyph-name="bracketright" unicode="]" 
d="M1703 583q39 56 129 98q-31 -85 -53 -125.5t-48 -49.5q-41 -14 -48.5 11.5t20.5 65.5zM751 875q3 -45 27 -83.5t61 -51.5q-17 -61 -39 -79.5t-50 -10.5q-24 7 -24.5 72.5t14.5 116.5q3 12 11 36zM795 905q34 52 48 -21q11 -61 4 -112l-1 -5v-1q-34 18 -52 62t1 77z
M2704 921q3 -46 -19 -87q10 -17 10 -33q0 -64 -31 -98q-33 -37 -91 -65.5t-113 -28.5t-94 31q-17 13 -32 33q-62 -69 -146 -69q-33 0 -63 10l-3 -9q-44 -150 -42 -171q10 -43 -26 -66q-15 -9 -32 -9q-22 0 -40 16q-37 37 -54 65q-24 -37 -61 -64q-62 -44 -118 -44
q-21 0 -41 10t-32 21t-30 31q-23 25 -44 65q-15 30 -12 66l-6 6q-24 -11 -48 -11q-68 0 -113 73q-7 10 -12 25l-8 8l-7 -44q-2 -34 -30 -50q-14 -8 -30 -8q-15 0 -29 8q-8 4 -21 14q-7 -4 -14 -5q-6 -2 -22 -2q-65 0 -100 53q-40 -46 -82 -49h-14q-64 0 -97 45
q-62 -87 -149 -87q-63 0 -111 46q2 -34 5 -50q6 -39 -28 -61q-15 -9 -32 -9q-18 0 -34 11q-6 4 -17 13.5t-34.5 38t-42.5 61.5q-20 23 -36 50q-8 -79 10 -113q16 -31 -1 -59q-18 -30 -51 -30h-1q-65 0 -111 54q-73 87 -83 160q-16 -11 -34 -11q-12 0 -21 4q-44 17 -65 58
t-18 69l3.5 17.5t14 34.5t31 47.5t56 45.5t86.5 39q30 107 52 161.5t32 65t27 16.5q11 4 25 4q50 0 122 -74q3 -3 7 -9q37 85 94 177q36 58 108 58q55 0 97 -25q14 -8 44.5 -53.5t31.5 -61.5q2 -34 -27 -53q-19 -12 -36 -35q41 -22 72 -61q10 -13 12 -31q1 -1 4 -3
q19 31 39 50q43 41 106 41q71 0 105 -47q22 2 29 2q41 126 111 241q36 58 108 58q35 0 97 -25q31 -17 33 -51l-1 -1v-2q61 4 233 4h102q17 0 33.5 1.5t29.5 3.5t25 4t21 4.5t15.5 4.5t10.5 3l3 1q9 4 22 4q25 0 43 -18q8 -8 26 -36t18 -29q24 -35 12 -65q-7 -15 -15 -29
q44 -8 53 -45q2 -8 2 -14q24 3 25 3q50 0 84 -36q24 29 50 47q58 43 123 43q52 0 89 -23t73 -72q37 -43 40 -94zM598 552q-14 83 5.5 195.5t57 211t84 176.5t85.5 103q-10 5 -26 11.5t-50 5t-50 -27.5q-66 -107 -106 -207.5t-49.5 -172.5t-10 -111.5t4.5 -65.5
q-24 41 -36 95.5t-12.5 102t2.5 89.5t7 67l5 24l-7 7t-16 14.5t-22 18.5t-21 13t-17 3q-21 -7 -83 -237q-47 -10 -83 -27.5t-54 -36.5t-29 -36.5t-13 -28.5l-2 -11q27 40 162 68q-14 -54 -21 -99q-7 -51 -1.5 -83.5t20.5 -50.5t30 -26.5t27 -9.5l12 -2q-20 36 -20.5 96
t12.5 120t29 114.5t30 89.5l13 34q3 -120 24 -218q9 -41 24.5 -77.5t31 -59.5t30.5 -40t24 -24zM1144 716q7 -28 25 -41t33 -12l14 1q-3 3 -6.5 11t-9.5 40.5t4 79.5q6 39 17 85t19 72l8 27q-67 3 -84 -28q-29 -53 -51.5 -106t-46.5 -89q-36 -54 -52 -39q-13 11 2.5 67
t42.5 111q32 63 50 79t55 5q9 24 -24 38q-42 18 -84 -5l-17 -13q-25 -23 -48.5 -74.5t-34.5 -105.5q-22 -42 -55 -56q14 61 13 93q-3 76 -28.5 103.5t-66.5 22.5q32 22 76 9q-2 3 -6 7.5t-17.5 17.5t-26.5 19t-33.5 11.5t-37.5 -3.5q-31 -11 -64 -74.5t-48.5 -139.5
t-1.5 -119q15 -45 49 -68.5t77.5 -13t78.5 59.5q17 24 27 48q29 6 57 34q-3 -31 1 -52q9 -54 70 -50q26 2 62.5 58t59.5 111l24 55q-2 -5 -4 -12.5t-8 -31.5t-8.5 -43t-5 -46.5t3.5 -42.5zM1516 652l-5 5t-9.5 16t-10 28t-3 41.5t7.5 56.5q11 45 25.5 87.5t22.5 62.5l9 20
l-57 27q-9 5 -19 -2q-103 -73 -168 -189q33 145 99 283t119 172q-4 2 -10 4.5t-24 7.5t-33 5.5t-32.5 -6.5t-27.5 -23q-92 -150 -135 -337q-12 -51 -20.5 -113.5t-6.5 -82.5q2 -17 15.5 -33.5t26.5 -24.5l12 -8q0 11 2.5 29.5t18.5 66.5t44 84q32 41 59 69.5t38 36.5l11 8
q-3 -7 -8 -20t-16.5 -48.5t-18 -66t-6 -65t12.5 -53.5q19 -31 41 -40.5t34 -3.5zM1636 595q-13 22 -14 60.5t9.5 87t26 99t37 106t40 99t38.5 85.5q171 3 187 4q37 3 67.5 26.5t42.5 45.5l11 21q-64 -25 -159 -26h-97.5t-109 -0.5t-87.5 -2.5t-72 -5q-39 -5 -68.5 -31
t-39.5 -50l-11 -23q8 11 50 20t83 12q47 3 111 4q-2 -6 -53 -141.5t-70 -214.5q-8 -38 -3.5 -67.5t18 -50t27.5 -33.5t25 -19zM2273 817q22 37 30 65.5t6 43t-10 32.5q-23 55 -88 31q-31 -12 -62.5 -40t-47.5 -50l-16 -22q72 174 75 176l-25 1q-57 -3 -73 -33
q-35 -98 -76 -213q-1 -4 -3.5 -11t-3.5 -10q-50 -29 -63 -35q14 47 40 115.5t44 113.5l19 45q-69 -3 -91 -28q-5 -6 -43.5 -62t-72.5 -95.5t-47 -30.5t40 106t62 106q-10 0 -25 -1.5t-45 -13.5t-41 -33q-13 -24 -21 -40t-18 -38.5t-15.5 -38t-9.5 -32t-3 -28t7 -19.5
q10 -12 32.5 -13t52 14t52.5 44l86 115q-41 -127 -73 -218q-17 -11 -49.5 -29.5t-45 -27t-32.5 -26.5t-38 -42q-26 -34 -30 -67.5t10.5 -53t49 -17.5t77.5 33q28 20 50.5 58t33 67t35.5 105q46 28 60 34q-35 -98 -46 -151q-7 -24 7.5 -53.5t31.5 -47.5l18 -18q-9 31 42 203
q27 90 70 163q29 50 80 86.5t66 24.5q7 -8 1.5 -37.5t-18.5 -55.5q-16 -32 -38 -55.5t-42 -34t-38 -16.5t-29 -6l-10 -1q5 -4 13.5 -9t34 -12.5t50 -5t56.5 24t57 64.5zM2480 987q36 39 65 29q24 -8 13 -37q-7 -19 -31 -40q-17 -15 -39 -20t-36 -2l-14 3q2 -5 6 -12
t21.5 -18.5t40.5 -10.5q48 3 71.5 33t21.5 70q-2 25 -29 45.5t-68 22.5t-88 -31q-41 -30 -69.5 -77.5t-28 -101.5t43.5 -88q31 -24 73.5 -17t81 28t60.5 45q7 8 11 22.5t4 25.5l1 10q-31 -50 -103.5 -82.5t-90.5 -1.5q-19 31 10 94.5t73 110.5zM1282 94q-16 0 -28 10
q-9 8 -9 25q0 15 6 27t17 19t27 7q17 0 27 -9t10 -25q0 -15 -6 -27t-17 -19q-13 -8 -27 -8zM1734 94q-16 0 -28 10q-10 9 -10 25q0 15 6 27q6 11 18 19q11 7 26 7q18 0 28 -9t10 -25q0 -13 -7 -27q-6 -12 -17 -19q-13 -8 -26 -8zM717 102q-10 -6 -28 -6h-31l17 85h27
q18 0 29 -9q10 -9 10 -24t-6 -27q-6 -11 -18 -19zM511 0l56 282h1728l-56 -282h-1728zM2067 207l-6 -26h44l-22 -111h32l22 111h44l5 26h-119zM1888 207l-27 -137h31l17 86l51 -86h27l27 137h-31l-17 -86l-52 86h-26zM1675 169q-11 -20 -11 -42q0 -17 8 -31q7 -13 23 -21
t36 -8q24 0 44 11q18 10 30 30q11 20 11 42q0 17 -8 31q-7 13 -23 21q-14 7 -36 7q-25 0 -44 -10q-18 -10 -30 -30zM1528 207l-28 -137h32l10 50h64l5 25h-64l7 36h72l5 26h-103zM1223 169q-11 -20 -11 -42q0 -17 8 -31q7 -12 24 -21q16 -8 35 -8q25 0 45 11q18 10 30 30
q10 19 10 42q0 17 -8 31q-7 13 -23 21q-14 7 -36 7q-25 0 -44 -10q-18 -10 -30 -30zM1013 207l-28 -137h30l17 82l28 -68h14l52 67l-16 -81h30l28 137h-28l-67 -86l-34 86h-26zM846 207l-28 -137h107l5 25h-75l6 32h64l5 25h-64l6 29h72l6 26h-104zM648 207l-27 -137h67
q28 0 45 9q19 10 30 29q10 17 10 42q0 16 -8 30q-7 12 -23 20q-14 7 -36 7h-58z" />
    <glyph glyph-name="asciicircum" unicode="^" 
d="M1703 583q39 56 129 98q-31 -85 -53 -125.5t-48 -49.5q-41 -14 -48.5 11.5t20.5 65.5zM751 875q3 -45 27 -83.5t61 -51.5q-17 -61 -39 -79.5t-50 -10.5q-24 7 -24.5 72.5t14.5 116.5q3 12 11 36zM795 905q34 52 48 -21q11 -61 4 -112l-1 -5v-1q-34 18 -52 62t1 77z
M2704 921q3 -46 -19 -87q10 -17 10 -33q0 -64 -31 -98q-33 -37 -91 -65.5t-113 -28.5t-94 31q-17 13 -32 33q-62 -69 -146 -69q-33 0 -63 10l-3 -9q-44 -150 -42 -171q10 -43 -26 -66q-15 -9 -32 -9q-22 0 -40 16q-37 37 -54 65q-24 -37 -61 -64q-62 -44 -118 -44
q-21 0 -41 10t-32 21t-30 31q-23 25 -44 65q-15 30 -12 66l-6 6q-24 -11 -48 -11q-68 0 -113 73q-7 10 -12 25l-8 8l-7 -44q-2 -34 -30 -50q-14 -8 -30 -8q-15 0 -29 8q-8 4 -21 14q-7 -4 -14 -5q-6 -2 -22 -2q-65 0 -100 53q-40 -46 -82 -49h-14q-64 0 -97 45
q-62 -87 -149 -87q-63 0 -111 46q2 -34 5 -50q6 -39 -28 -61q-15 -9 -32 -9q-18 0 -34 11q-6 4 -17 13.5t-34.5 38t-42.5 61.5q-20 23 -36 50q-8 -79 10 -113q16 -31 -1 -59q-18 -30 -51 -30h-1q-65 0 -111 54q-73 87 -83 160q-16 -11 -34 -11q-12 0 -21 4q-44 17 -65 58
t-18 69l3.5 17.5t14 34.5t31 47.5t56 45.5t86.5 39q30 107 52 161.5t32 65t27 16.5q11 4 25 4q50 0 122 -74q3 -3 7 -9q37 85 94 177q36 58 108 58q55 0 97 -25q14 -8 44.5 -53.5t31.5 -61.5q2 -34 -27 -53q-16 -10 -36 -35q41 -22 72 -61q10 -13 12 -31q1 -1 4 -3
q19 31 39 50q43 41 106 41q71 0 105 -47q22 2 29 2q41 126 111 241q36 58 108 58q35 0 97 -25q31 -17 33 -51l-1 -1v-2q61 4 233 4h102q17 0 33.5 1.5t29.5 3.5t25 4t21 4.5t15.5 4.5t10.5 3l3 1q9 4 22 4q25 0 43 -18q8 -8 26 -36t18 -29q24 -35 12 -65q-7 -15 -15 -29
q44 -8 53 -45q2 -8 2 -14q24 3 25 3q50 0 84 -36q24 29 50 47q58 43 123 43q52 0 89 -23t73 -72q37 -43 40 -94zM598 552q-14 83 5.5 195.5t57 211t84 176.5t85.5 103q-10 5 -26 11.5t-50 5t-50 -27.5q-66 -107 -106 -207.5t-49.5 -172.5t-10 -111.5t4.5 -65.5
q-24 41 -36 95.5t-12.5 102t2.5 89.5t7 67l5 24l-7 7t-16 14.5t-22 18.5t-21 13t-17 3q-21 -7 -83 -237q-47 -10 -83 -27.5t-54 -36.5t-29 -36.5t-13 -28.5l-2 -11q27 40 162 68q-14 -54 -21 -99q-7 -51 -1.5 -83.5t20.5 -50.5t30 -26.5t27 -9.5l12 -2q-20 36 -20.5 96
t12.5 120t29 114.5t30 89.5l13 34q3 -120 24 -218q9 -41 24.5 -77.5t31 -59.5t30.5 -40t24 -24zM1144 716q7 -28 25 -41t33 -12l14 1q-3 3 -6.5 11t-9.5 40.5t4 79.5q6 39 17 85t19 72l8 27q-67 3 -84 -28q-29 -53 -51.5 -106t-46.5 -89q-36 -54 -52 -39q-13 11 2.5 67
t42.5 111q32 63 50 79t55 5q9 24 -24 38q-42 18 -84 -5l-17 -13q-24 -23 -47.5 -74t-35.5 -106q-22 -42 -55 -56q14 61 13 93q-3 76 -28.5 103.5t-66.5 22.5q32 22 76 9q-2 3 -6 7.5t-17.5 17.5t-26.5 19t-33.5 11.5t-37.5 -3.5q-31 -11 -64 -74.5t-48.5 -139.5t-1.5 -119
q15 -45 49 -68.5t77.5 -13t78.5 59.5q17 24 27 48q29 6 57 34q-3 -31 1 -52q9 -54 70 -50q26 2 62.5 58t59.5 111l24 55q-2 -5 -4 -12.5t-8 -31.5t-8.5 -43t-5 -46.5t3.5 -42.5zM1516 652l-5 5t-9.5 16t-10 28t-3 41.5t7.5 56.5q11 45 25.5 87.5t22.5 62.5l9 20l-57 27
q-9 5 -19 -2q-103 -73 -168 -189q33 145 99 283t119 172q-4 2 -10 4.5t-24 7.5t-33 5.5t-32.5 -6.5t-27.5 -23q-92 -150 -135 -337q-12 -51 -20.5 -113.5t-6.5 -82.5q2 -17 15.5 -33.5t26.5 -24.5l12 -8q0 11 2.5 29.5t18.5 66.5t44 84q32 41 59 69.5t38 36.5l11 8
q-3 -7 -8 -20t-16.5 -48.5t-18 -66t-6 -65t12.5 -53.5q19 -31 41 -40.5t34 -3.5zM1636 595q-13 22 -14 60.5t9.5 87t26 99t37 106t40 99t38.5 85.5q171 3 187 4q37 3 67.5 26.5t42.5 45.5l11 21q-64 -25 -159 -26h-97.5t-109 -0.5t-87.5 -2.5t-72 -5q-39 -5 -68.5 -31
t-39.5 -50l-11 -23q8 11 50 20t83 12q47 3 111 4q-2 -6 -53 -141.5t-70 -214.5q-8 -38 -3.5 -67.5t18 -50t27.5 -33.5t25 -19zM2273 817q22 37 30 65.5t6 43t-10 32.5q-23 55 -88 31q-31 -12 -62.5 -40t-47.5 -50l-16 -22q72 174 75 176l-25 1q-57 -3 -73 -33
q-35 -98 -76 -213q-1 -4 -3.5 -11t-3.5 -10q-50 -29 -63 -35q14 47 40 115.5t44 113.5l19 45q-69 -3 -91 -28q-5 -6 -43.5 -62t-72.5 -95.5t-47 -30.5t40 106t62 106q-10 0 -25 -1.5t-45 -13.5t-41 -33q-13 -24 -21 -40t-18 -38.5t-15.5 -38t-9.5 -32t-3 -28t7 -19.5
q10 -12 32.5 -13t52 14t52.5 44l86 115q-41 -127 -73 -218q-17 -11 -49.5 -29.5t-45 -27t-32.5 -26.5t-38 -42q-26 -34 -30 -67.5t10.5 -53t49 -17.5t77.5 33q28 20 50.5 58t33 67t35.5 105q46 28 60 34q-35 -98 -46 -151q-7 -24 7.5 -53.5t31.5 -47.5l18 -18q-9 31 42 203
q27 90 70 163q29 50 80 86.5t66 24.5q7 -8 1.5 -37.5t-18.5 -55.5q-16 -32 -38 -55.5t-42 -34t-38 -16.5t-29 -6l-10 -1q5 -4 13.5 -9t34 -12.5t50 -5t56.5 24t57 64.5zM2480 987q36 39 65 29q23 -8 13 -37q-8 -19 -31 -40q-17 -15 -39 -20t-36 -2l-14 3q2 -5 6 -12
t21.5 -18.5t40.5 -10.5q48 3 71.5 33t21.5 70q-2 25 -29 45.5t-68 22.5t-88 -31q-41 -30 -69.5 -77.5t-28 -101.5t43.5 -88q31 -24 73.5 -17t81 28t60.5 45q7 8 11 22.5t4 25.5l1 10q-31 -50 -103.5 -82.5t-90.5 -1.5q-19 31 10 94.5t73 110.5zM1282 94q-16 0 -28 10
q-9 8 -9 25q0 15 6 27t17 19t27 7q17 0 27 -9t10 -25q0 -15 -6 -27t-17 -19q-13 -8 -27 -8zM1734 94q-16 0 -28 10q-10 9 -10 25q0 15 6 27q6 11 18 19q11 7 26 7q18 0 28 -9t10 -25q0 -13 -7 -27q-6 -12 -17 -19q-13 -8 -26 -8zM717 102q-10 -6 -28 -6h-31l17 85h27
q18 0 29 -9q10 -9 10 -24t-6 -27q-6 -11 -18 -19zM511 0l56 282h1728l-56 -282h-1728zM2067 207l-6 -26h44l-22 -111h32l22 111h44l5 26h-119zM1888 207l-27 -137h31l17 86l51 -86h27l27 137h-31l-17 -86l-52 86h-26zM1675 169q-11 -20 -11 -42q0 -17 8 -31q7 -13 23 -21
t36 -8q24 0 44 11q18 10 30 30q11 20 11 42q0 17 -8 31q-7 13 -23 21q-14 7 -36 7q-25 0 -44 -10q-18 -10 -30 -30zM1528 207l-28 -137h32l10 50h64l5 25h-64l7 36h72l5 26h-103zM1223 169q-11 -20 -11 -42q0 -17 8 -31q7 -12 24 -21q16 -8 35 -8q25 0 45 11q18 10 30 30
q10 19 10 42q0 17 -8 31q-7 13 -23 21q-14 7 -36 7q-25 0 -44 -10q-18 -10 -30 -30zM1013 207l-28 -137h30l17 82l28 -68h14l52 67l-16 -81h30l28 137h-28l-67 -86l-34 86h-26zM846 207l-28 -137h107l5 25h-75l6 32h64l5 25h-64l6 29h72l6 26h-104zM648 207l-27 -137h67
q28 0 45 9q19 10 30 29q10 17 10 42q0 16 -8 30q-7 12 -23 20q-14 7 -36 7h-58z" />
    <glyph glyph-name="underscore" unicode="_" 
d="M1703 583q39 56 129 98q-31 -85 -53 -125.5t-48 -49.5q-41 -14 -48.5 11.5t20.5 65.5zM751 875q3 -45 27 -83.5t61 -51.5q-17 -61 -39 -79.5t-50 -10.5q-24 7 -24.5 72.5t14.5 116.5q3 12 11 36zM795 905q34 52 48 -21q11 -61 4 -112l-1 -5v-1q-34 18 -52 62t1 77z
M2704 921q3 -46 -19 -87q10 -17 10 -33q0 -64 -31 -98q-33 -37 -91 -65.5t-113 -28.5t-94 31q-17 13 -32 33q-62 -69 -146 -69q-33 0 -63 10l-3 -9q-44 -150 -42 -171q10 -43 -26 -66q-15 -9 -32 -9q-22 0 -40 16q-37 37 -54 65q-24 -37 -61 -64q-62 -44 -118 -44
q-21 0 -41 10t-32 21t-30 31q-23 25 -44 65q-15 30 -12 66l-6 6q-24 -11 -48 -11q-68 0 -113 73q-7 10 -12 25l-8 8l-7 -44q-2 -34 -30 -50q-14 -8 -30 -8q-15 0 -29 8q-8 4 -21 14q-7 -4 -14 -5q-6 -2 -22 -2q-65 0 -100 53q-40 -46 -82 -49h-14q-64 0 -97 45
q-62 -87 -149 -87q-63 0 -111 46q2 -34 5 -50q6 -39 -28 -61q-15 -9 -32 -9q-18 0 -34 11q-6 4 -17 13.5t-34.5 38t-42.5 61.5q-20 23 -36 50q-8 -79 10 -113q16 -31 -1 -59q-18 -30 -51 -30h-1q-65 0 -111 54q-73 87 -83 160q-16 -11 -34 -11q-12 0 -21 4q-44 17 -65 58
t-18 69l3.5 17.5t14 34.5t31 47.5t56 45.5t86.5 39q30 107 52 161.5t32 65t27 16.5q11 4 25 4q50 0 122 -74q3 -3 7 -9q37 85 94 177q36 58 108 58q55 0 97 -25q14 -8 44.5 -53.5t31.5 -61.5q2 -34 -27 -53q-16 -10 -36 -35q41 -22 72 -61q10 -13 12 -31q1 -1 4 -3
q19 31 39 50q43 41 106 41q71 0 105 -47q22 2 29 2q41 126 111 241q36 58 108 58q35 0 97 -25q31 -17 33 -51l-1 -1v-2q61 4 233 4h102q17 0 33.5 1.5t29.5 3.5t25 4t21 4.5t15.5 4.5t10.5 3l3 1q9 4 22 4q25 0 43 -18q8 -8 26 -36t18 -29q24 -35 12 -65q-7 -15 -15 -29
q44 -8 53 -45q2 -8 2 -14q24 3 25 3q50 0 84 -36q24 29 50 47q58 43 123 43q52 0 89 -23t73 -72q37 -43 40 -94zM598 552q-14 83 5.5 195.5t57 211t84 176.5t85.5 103q-10 5 -26 11.5t-50 5t-50 -27.5q-66 -107 -106 -207.5t-49.5 -172.5t-10 -111.5t4.5 -65.5
q-24 41 -36 95.5t-12.5 102t2.5 89.5t7 67l5 24l-7 7t-16 14.5t-22 18.5t-21 13t-17 3q-21 -7 -83 -237q-47 -10 -83 -27.5t-54 -36.5t-29 -36.5t-13 -28.5l-2 -11q27 40 162 68q-14 -54 -21 -99q-7 -51 -1.5 -83.5t20.5 -50.5t30 -26.5t27 -9.5l12 -2q-20 36 -20.5 96
t12.5 120t29 114.5t30 89.5l13 34q3 -120 24 -218q9 -41 24.5 -77.5t31 -59.5t30.5 -40t24 -24zM1144 716q7 -28 25 -41t33 -12l14 1q-3 3 -6.5 11t-9.5 40.5t4 79.5q6 39 17 85t19 72l8 27q-67 3 -84 -28q-29 -53 -51.5 -106t-46.5 -89q-36 -54 -52 -39q-13 11 2.5 67
t42.5 111q32 63 50 79t55 5q9 24 -24 38q-42 18 -84 -5l-17 -13q-24 -23 -47.5 -74t-35.5 -106q-22 -42 -55 -56q14 61 13 93q-3 76 -28.5 103.5t-66.5 22.5q32 22 76 9q-2 3 -6 7.5t-17.5 17.5t-26.5 19t-33.5 11.5t-37.5 -3.5q-31 -11 -64 -74.5t-48.5 -139.5t-1.5 -119
q15 -45 49 -68.5t77.5 -13t78.5 59.5q17 24 27 48q29 6 57 34q-3 -31 1 -52q9 -54 70 -50q26 2 62.5 58t59.5 111l24 55q-2 -5 -4 -12.5t-8 -31.5t-8.5 -43t-5 -46.5t3.5 -42.5zM1516 652l-5 5t-9.5 16t-10 28t-3 41.5t7.5 56.5q11 45 25.5 87.5t22.5 62.5l9 20l-57 27
q-9 5 -19 -2q-103 -73 -168 -189q33 145 99 283t119 172q-4 2 -10 4.5t-24 7.5t-33 5.5t-32.5 -6.5t-27.5 -23q-92 -150 -135 -337q-12 -51 -20.5 -113.5t-6.5 -82.5q2 -17 15.5 -33.5t26.5 -24.5l12 -8q0 11 2.5 29.5t18.5 66.5t44 84q32 41 59 69.5t38 36.5l11 8
q-3 -7 -8 -20t-16.5 -48.5t-18 -66t-6 -65t12.5 -53.5q19 -31 41 -40.5t34 -3.5zM1636 595q-13 22 -14 60.5t9.5 87t26 99t37 106t40 99t38.5 85.5q171 3 187 4q37 3 67.5 26.5t42.5 45.5l11 21q-64 -25 -159 -26h-97.5t-109 -0.5t-87.5 -2.5t-72 -5q-39 -5 -68.5 -31
t-39.5 -50l-11 -23q8 11 50 20t83 12q47 3 111 4q-2 -7 -53 -142t-70 -214q-8 -38 -3.5 -67.5t18 -50t27.5 -33.5t25 -19zM2273 817q22 37 30 65.5t6 43t-10 32.5q-23 55 -88 31q-31 -12 -62.5 -40t-47.5 -50l-16 -22q72 174 75 176l-25 1q-57 -3 -73 -33q-35 -98 -76 -213
q-1 -4 -3.5 -11t-3.5 -10q-50 -29 -63 -35q14 47 40 115.5t44 113.5l19 45q-69 -3 -91 -28q-5 -6 -43.5 -62t-72.5 -95.5t-47 -30.5t40 106t62 106q-10 0 -25 -1.5t-45 -13.5t-41 -33q-13 -24 -21 -40t-18 -38.5t-15.5 -38t-9.5 -32t-3 -28t7 -19.5q10 -12 32.5 -13t52 14
t52.5 44l86 115q-41 -127 -73 -218q-17 -11 -49.5 -29.5t-45 -27t-32.5 -26.5t-38 -42q-26 -34 -30 -67.5t10.5 -53t49 -17.5t77.5 33q28 20 50.5 58t33 67t35.5 105q46 28 60 34q-35 -98 -46 -151q-7 -24 7.5 -53.5t31.5 -47.5l18 -18q-9 31 42 203q27 90 70 163
q29 50 80 86.5t66 24.5q7 -8 1.5 -37.5t-18.5 -55.5q-16 -32 -38 -55.5t-42 -34t-38 -16.5t-29 -6l-10 -1q5 -4 13.5 -9t34 -12.5t50 -5t56.5 24t57 64.5zM2480 987q36 39 65 29q23 -8 13 -37q-8 -19 -31 -40q-17 -15 -39 -20t-36 -2l-14 3q2 -5 6 -12t21.5 -18.5
t40.5 -10.5q48 3 71.5 33t21.5 70q-2 25 -29 45.5t-67.5 22.5t-87.5 -31q-41 -30 -69.5 -77.5t-28.5 -101.5t43 -88q31 -24 73.5 -17t81 28t60.5 45q7 8 11 22.5t4 25.5l1 10q-31 -50 -103.5 -82.5t-90.5 -1.5q-19 31 10 94.5t73 110.5zM1282 94q-16 0 -28 10q-9 8 -9 25
q0 15 6 27t17 19t27 7q17 0 27 -9t10 -25q0 -15 -6 -27t-17 -19q-13 -8 -27 -8zM1734 94q-16 0 -28 10q-10 9 -10 25q0 15 6 27q6 11 18 19q11 7 26 7q18 0 28 -9t10 -25q0 -13 -7 -27q-6 -12 -17 -19q-13 -8 -26 -8zM717 102q-10 -6 -28 -6h-31l17 85h27q18 0 29 -9
q10 -9 10 -24t-6 -27q-6 -11 -18 -19zM511 0l56 282h1728l-56 -282h-1728zM2067 207l-6 -26h44l-22 -111h32l22 111h44l5 26h-119zM1888 207l-27 -137h31l17 86l51 -86h27l27 137h-31l-17 -86l-52 86h-26zM1675 169q-11 -20 -11 -42q0 -17 8 -31q7 -13 23 -21t36 -8
q24 0 44 11q18 10 30 30q11 20 11 42q0 17 -8 31q-7 13 -23 21q-14 7 -36 7q-25 0 -44 -10q-18 -10 -30 -30zM1528 207l-28 -137h32l10 50h64l5 25h-64l7 36h72l5 26h-103zM1223 169q-11 -20 -11 -42q0 -17 8 -31q7 -12 24 -21q16 -8 35 -8q25 0 45 11q18 10 30 30
q10 19 10 42q0 17 -8 31q-7 13 -23 21q-14 7 -36 7q-25 0 -44 -10q-18 -10 -30 -30zM1013 207l-28 -137h30l17 82l28 -68h14l52 67l-16 -81h30l28 137h-28l-67 -86l-34 86h-26zM846 207l-28 -137h107l5 25h-75l6 32h64l5 25h-64l6 29h72l6 26h-104zM648 207l-27 -137h67
q28 0 45 9q19 10 30 29q10 17 10 42q0 16 -8 30q-7 12 -23 20q-14 7 -36 7h-58z" />
    </font>
</defs>
</svg>
