<svg class="dn" height="0" version="1.1" width="0"
  xmlns="http://www.w3.org/2000/svg">
  <defs>
    <g id="medal">
        <path d="m238.377 364.516-90.893-90.892c-5.858-5.858-15.356-5.858-21.214.001l-.001-.001-121.875 121.888c-3.676 3.676-5.187 8.993-3.992 14.053 1.194 5.06 4.924 9.14 9.855 10.784l61.048 20.347 20.347 61.048c1.644 4.932 5.724 8.661 10.784 9.855s10.377-.316 14.053-3.992l121.888-121.877c5.858-5.858 5.858-15.356 0-21.214z" fill="#5abeff"/>
        <path d="m238.377 364.516-45.446-45.446-121.626 121.625 20.347 61.048c1.644 4.932 5.724 8.661 10.784 9.855s10.377-.316 14.053-3.992l121.888-121.877c5.858-5.857 5.858-15.355 0-21.213z" fill="#469be6"/><path d="m364.516 273.623-90.892 90.893c-5.858 5.858-5.858 15.356.001 21.214l-.001.001 121.889 121.876c3.676 3.676 8.993 5.187 14.053 3.992 5.06-1.194 9.14-4.924 10.784-9.855l20.347-61.048 61.048-20.347c4.932-1.644 8.661-5.724 9.855-10.784s-.316-10.377-3.992-14.053l-121.879-121.888c-5.857-5.859-15.355-5.859-21.213-.001z" fill="#5abeff"/>
        <path d="m364.516 273.623-45.446 45.446 121.626 121.626 61.048-20.347c4.932-1.644 8.661-5.724 9.855-10.784s-.316-10.377-3.992-14.053l-121.878-121.887c-5.857-5.859-15.355-5.859-21.213-.001z" fill="#469be6"/><circle cx="256" cy="223.867" fill="#ff7038" r="223.867"/><path d="m256 0c123.44 0 223.867 100.426 223.867 223.867s-100.427 223.866-223.867 223.866z" fill="#ff405c"/><path d="m256 64.267c-88.004 0-159.6 71.596-159.6 159.6s71.596 159.6 159.6 159.6 159.6-71.596 159.6-159.6-71.596-159.6-159.6-159.6z" fill="#ffec29"/>
        <path d="m256 383.467c88.004 0 159.6-71.596 159.6-159.6s-71.596-159.6-159.6-159.6z" fill="#ffcb00"/><path d="m344.157 208.364-27.843 35.099 1.893 44.76c.212 5.021-2.104 9.815-6.17 12.769-4.065 2.953-9.339 3.676-14.051 1.922l-41.986-15.632-41.986 15.632c-4.711 1.754-9.986 1.031-14.051-1.922-4.066-2.954-6.382-7.748-6.17-12.769l1.893-44.76-27.843-35.099c-3.124-3.938-4.067-9.178-2.515-13.958 1.553-4.78 5.397-8.464 10.238-9.814l43.158-12.031 24.778-37.325c2.78-4.187 7.472-6.704 12.497-6.704s9.717 2.517 12.497 6.704l24.778 37.325 43.158 12.031c4.841 1.35 8.685 5.034 10.238 9.814 1.554 4.781.61 10.021-2.513 13.958z" fill="#ffcb00"/>
        <path d="m297.986 302.914c4.711 1.754 9.986 1.031 14.051-1.922 4.066-2.954 6.382-7.748 6.17-12.769l-1.893-44.76 27.843-35.099c3.124-3.938 4.067-9.178 2.515-13.958-1.553-4.78-5.397-8.464-10.238-9.814l-43.158-12.031-24.778-37.325c-2.78-4.187-7.472-6.704-12.497-6.704v158.749z" fill="#ffa07a"/>
    </g>


    <g id="choose">
        <path d="m219.867 72.267c-64.621 0-122.729 27.881-162.956 72.267l-43.662 222.933c30.753 84.325 111.653 144.533 206.618 144.533 121.429 0 219.867-98.438 219.867-219.867s-98.438-219.866-219.867-219.866z" fill="#324b5f"/><path d="m219.867 512c121.429 0 219.867-98.438 219.867-219.867s-98.438-219.866-219.867-219.866z" fill="#1e323c"/><path d="m472.8 144.533h-72.267c-8.284 0-15-6.716-15-15v-99.384c0-16.599-13.405-30.149-30.148-30.149-6.69 0-12.118 5.428-12.118 12.1 0 20.326-5.331 40.403-15.416 58.062l-58.827 102.947c-2.671 4.673-7.641 7.558-13.023 7.558h-54.2c-8.284 0-15 6.716-15 15v90.181c0 3.979 1.581 7.795 4.395 10.608l59.536 59.521c7.304 7.304 17.404 11.491 27.716 11.491h194.352c21.601 0 39.2-17.479 39.2-39.2v-144.535c0-21.706-17.562-39.2-39.2-39.2z" fill="#ffdcdc"/>
        <path d="m191.195 296.455 59.536 59.521c7.304 7.304 17.404 11.491 27.716 11.491h194.353c21.601 0 39.2-17.479 39.2-39.2v-72.267h-325.2v29.847c0 3.979 1.581 7.795 4.395 10.608z" fill="#ffc8c8"/><path d="m132.6 349.4h72.267c8.284 0 15-6.716 15-15v-156.8c0-8.284-6.716-15-15-15h-72.267c-8.284 0-15 6.716-15 15v156.8c0 8.284 6.716 15 15 15z" fill="#f5fafa"/><path d="m132.6 349.4h72.267c8.284 0 15-6.716 15-15v-78.4h-102.267v78.4c0 8.284 6.716 15 15 15z" fill="#e1ebf0"/><path d="m0 292.133c0 26.464 4.678 51.834 13.249 75.333h119.351c8.284 0 15-6.716 15-15v-192.933c0-8.284-6.716-15-15-15h-75.69c-35.363 39.019-56.91 90.793-56.91 147.6z" fill="#5abeff"/><path d="m13.249 367.467h119.351c8.284 0 15-6.716 15-15v-96.467h-144.641c-1.944 11.756-2.959 23.826-2.959 36.133 0 26.464 4.678 51.835 13.249 75.334z" fill="#469be6"/>
    </g>

    <g id="cafe">
        <path d="m95.832031 190.664062c-3.839843 0-7.675781-1.464843-10.605469-4.390624-5.859374-5.859376-5.859374-15.355469 0-21.214844l3.734376-3.734375c10.921874-10.921875 12.191406-28.464844 2.96875-40.84375-.023438-.027344-.046876-.058594-.066407-.085938-18.1875-24.25-15.738281-58.699219 5.695313-80.132812l3.738281-3.738281c5.859375-5.859376 15.355469-5.855469 21.214844.003906 5.855469 5.859375 5.851562 15.359375-.007813 21.214844l-3.730468 3.730468c-10.925782 10.921875-12.191407 28.464844-2.972657 40.839844.023438.03125.046875.0625.070313.089844 18.1875 24.25 15.738281 58.699218-5.695313 80.132812l-3.738281 3.738282c-2.925781 2.929687-6.765625 4.390624-10.605469 4.390624zm0 0" fill="#ede9e8"/>
        <path d="m184.199219 158.53125c-3.839844 0-7.679688-1.464844-10.609375-4.394531-5.855469-5.859375-5.851563-15.355469.007812-21.214844l3.730469-3.730469c10.945313-10.945312 12.195313-28.535156 2.910156-40.917968-.035156-.046876-.066406-.089844-.101562-.136719-18.085938-24.242188-15.609375-58.609375 5.785156-80.007813l3.734375-3.730468c5.855469-5.863282 15.351562-5.863282 21.210938-.007813 5.859374 5.855469 5.863281 15.351563.007812 21.210937l-3.742188 3.742188c-10.941406 10.941406-12.191406 28.535156-2.902343 40.917969.03125.042969.066406.089843.097656.132812 18.085937 24.242188 15.609375 58.613281-5.785156 80.007813l-3.738281 3.742187c-2.929688 2.925781-6.769532 4.386719-10.605469 4.386719zm0 0" fill="#ede9e8"/><path d="m192.234375 463.796875c-25.320313 0-50.007813-4.910156-73.382813-14.59375-23.378906-9.683594-44.304687-23.664063-62.199218-41.558594-17.894532-17.894531-31.875-38.816406-41.558594-62.195312-9.683594-23.378907-14.59375-48.0625-14.59375-73.367188v-32.148437c0-8.285156 6.714844-15 15-15h353.464844c8.285156 0 15 6.714844 15 15v32.132812c0 105.71875-86.011719 191.730469-191.730469 191.730469zm0 0" fill="#fdbf00"/><path d="m368.964844 512h-353.464844c-8.285156 0-15-6.71875-15-15 0-8.285156 6.714844-15 15-15h353.464844c8.285156 0 15 6.714844 15 15 0 8.28125-6.714844 15-15 15zm0 0" fill="#b32445"/>
        <path d="m425.199219 367.398438h-8.03125c-8.285157 0-15-6.714844-15-15 0-8.28125 6.714843-15 15-15h8.03125c11.015625 0 21.367187-4.289063 29.15625-12.074219 7.789062-7.789063 12.078125-18.144531 12.078125-29.15625 0-22.738281-18.5-41.234375-41.234375-41.234375h-72.300781c-8.28125 0-15-6.714844-15-15s6.71875-15 15-15h72.300781c39.277343 0 71.234375 31.953125 71.234375 71.234375 0 19.023437-7.410156 36.914062-20.867188 50.367187-13.449218 13.457032-31.339844 20.863282-50.367187 20.863282zm0 0" fill="#ff9f00"/><path d="m368.964844 224.929688h-176.730469v238.867187c105.722656 0 191.730469-86.007813 191.730469-191.726563v-32.140624c0-8.28125-6.71875-15-15-15zm0 0" fill="#ff9f00"/><path d="m383.964844 497c0 8.277344-6.71875 15-15 15h-176.730469v-30h176.730469c8.28125 0 15 6.71875 15 15zm0 0" fill="#922338"/>
        <path d="m268.664062 120.484375c9.222657 12.378906 7.953126 29.917969-2.96875 40.839844l-3.734374 3.734375c-5.859376 5.859375-5.859376 15.355468 0 21.214844 2.925781 2.929687 6.765624 4.394531 10.605468 4.394531 3.835938 0 7.675782-1.464844 10.605469-4.394531l3.734375-3.738282c21.433594-21.429687 23.882812-55.878906 5.695312-80.128906-.019531-.03125-.042968-.0625-.066406-.089844-9.222656-12.378906-7.953125-29.917968 2.96875-40.84375l3.730469-3.730468c5.859375-5.855469 5.863281-15.351563.007813-21.210938-5.855469-5.859375-15.355469-5.863281-21.210938-.007812l-3.742188 3.738281c-21.433593 21.433593-23.882812 55.882812-5.695312 80.132812.023438.027344.046875.058594.070312.089844zm0 0" fill="#ede9e8"/>
    </g>

  </defs>
</svg>